{
.appVersion = "3151";
.formatVersion = 3;
axes = (
{
name = Weight;
tag = wght;
},
{
name = Width;
tag = wdth;
},
{
name = "Optical Size";
tag = opsz;
}
);
classes = (
{
code = "A Aacute Abreve Abrevedotbelow Acircumflex Acircumflexdotbelow Adieresis Adotbelow Agrave Amacron Aogonek Aring Atilde AE AEacute B C Cacute Ccaron Ccedilla Ccedillaacute Cdotaccent D Eth Dcaron Dcroat Ddotbelow Dlinebelow E Eacute Ecaron Ecedillabreve Ecircumflex Ecircumflexdotbelow Edieresis Edotaccent Edotbelow Egrave Emacron Emacronacute Emacrongrave Eogonek Etilde F G Gbreve Gcommaaccent Gdotaccent Gmacron H Hbar Hbrevebelow Hdotbelow I Iacute Icircumflex Idieresis Idieresisacute Idotaccent Idotbelow Igrave Imacron Iogonek Itilde J K Kcommaaccent L Lacute Lcaron Lcommaaccent Ldotbelow Llinebelow Lslash M Mdotbelow N Nacute Ncaron Ncommaaccent Ndotaccent Ndotbelow Eng Nlinebelow Ntilde O Oacute Ocircumflex Ocircumflexdotbelow Odieresis Odotbelow Ograve Ohungarumlaut Omacron Omacronacute Omacrongrave Oslash Otilde Otildeacute Otildedieresis OE P Thorn Q R Racute Rcaron Rcommaaccent Rdotbelow Rlinebelow S Sacute Sacutedotaccent Scaron Scarondotaccent Scedilla Scommaaccent Sdotaccent Sdotbelow Sdotbelowdotaccent Germandbls T Tbar Tcaron Tcedilla Tcommaaccent Tdotbelow Tlinebelow U Uacute Ucircumflex Udieresis Udotbelow Ugrave Uhungarumlaut Umacron Umacrondieresis Uogonek Uring Utilde Utildeacute V W Wacute Wcircumflex Wdieresis Wgrave X Y Yacute Ycircumflex Ydieresis Ydotaccent Ydotbelow Ygrave Ytilde Z Zacute Zcaron Zdotaccent Zdotbelow G.ss01 Gbreve.ss01 Gcommaaccent.ss01 Gdotaccent.ss01 Gmacron.ss01 Delta Omega";
name = Uppercase;
},
{
code = "aacute abreve acircumflex adieresis agrave amacron aring atilde";
name = a_diac;
},
{
code = "b h hbar k kcommaaccent l lacute lcaron lcommaaccent lslash thorn";
name = ascenders;
},
{
code = "dcaron lcaron tcaron";
name = withcaron;
}
);
customParameters = (
{
name = "Use Typo Metrics";
value = 1;
},
{
name = "Axis Mappings";
value = {
opsz = {

glyphs = (
{
glyphname = A;
kernLeft = public.kern2.A;
kernRight = public.kern1.A;
layers = (
{
anchors = (
{
name = bottom;
pos = (323,0);
},
{
name = ogonek;
pos = (680,0);
},
{
name = top;
pos = (421,700);
}
);
layerId = "3C3B4AE3-80BB-44A4-A3CD-A752C08638B1";
shapes = (
{
closed = 1;
nodes = (
(-34,0,l),
(266,0,l),
(394,522,l),
(398,522,l),
(380,0,l),
(680,0,l),
(685,700,l),
(157,700,l)
);
},
{
closed = 1;
nodes = (
(230,113,l),
(448,113,l),
(476,313,l),
(258,313,l)
);
}
);
width = 722;
},
{
anchors = (
{
name = bottom;
pos = (298,0);
},
{
name = ogonek;
pos = (629,0);
},
{
name = top;
pos = (396,700);
}
);
layerId = "463395A0-2DFC-45D4-87AF-EBCF54FF53ED";
shapes = (
{
closed = 1;
nodes = (
(-33,0,l),
(187,0,l),
(376,569,l),
(379,569,l),
(408,0,l),
(629,0,l),
(584,700,l),
(208,700,l)
);
},
{
closed = 1;
nodes = (
(188,140,l),
(445,140,l),
(466,287,l),
(209,287,l)
);
}
);
width = 672;
},
{
anchors = (
{
name = bottom;
pos = (418,0);
},
{
name = ogonek;
pos = (870,0);
},
{
name = top;
pos = (516,700);
}
);
layerId = "B66266A1-0CD1-42BF-9957-E58294B85305";
shapes = (
{
closed = 1;
nodes = (
(-34,0,l),
(269,0,l),
(489,522,l),
(493,522,l),
(567,0,l),
(870,0,l),
(756,700,l),
(276,700,l)
);
},
{
closed = 1;
nodes = (
(259,113,l),
(609,113,l),
(637,313,l),
(287,313,l)
);
}
);
width = 912;
},
{
anchors = (
{
name = bottom;
pos = (388,0);
},
{
name = ogonek;
pos = (809,0);
},
{
name = top;
pos = (486,700);
}
);
layerId = "3B401755-81E4-40F3-BD5E-9424281583CA";
shapes = (
{
closed = 1;
nodes = (
(-33,0,l),
(220,0,l),
(463,552,l),
(467,552,l),
(556,0,l),
(809,0,l),
(686,700,l),
(286,700,l)
);
},
{
closed = 1;
nodes = (
(229,130,l),
(583,130,l),
(607,297,l),
(253,297,l)
);
}
);
width = 852;
},
{
anchors = (
{
name = bottom;
pos = (89,0);
},
{
name = ogonek;
pos = (200,0);
},
{
name = top;
pos = (186,700);
}
);
layerId = "3D671699-C126-4AA5-A66F-47C26817AED2";
shapes = (
{
closed = 1;
nodes = (
(-23,0,l),
(-19,0,l),
(186,696,l),
(187,696,l),
(196,0,l),
(200,0,l),
(190,700,l),
(183,700,l)
);
},
{
closed = 1;
nodes = (
(41,211,l),
(194,211,l),
(195,215,l),
(42,215,l)
);
}
);
width = 253;
},
{
anchors = (
{
name = bottom;
pos = (178,0);
},
{
name = ogonek;
pos = (386,0);
},
{
name = top;
pos = (276,700);
}
);
layerId = "46E74328-601B-43A9-9281-7B741E5F83E4";
shapes = (
{
closed = 1;
nodes = (
(-30,0,l),
(31,0,l),
(268,653,l),
(272,653,l),
(325,0,l),
(386,0,l),
(326,700,l),
(226,700,l)
);
},
{
closed = 1;
nodes = (
(87,189,l),
(322,189,l),
(329,239,l),
(94,239,l)
);
}
);
width = 432;
},
{
anchors = (
{
name = bottom;
pos = (242,0);
},
{
name = ogonek;
pos = (508,0);
},
{
name = top;
pos = (339,700);
}
);
layerId = "ECB9DAFA-B085-4474-A032-AB3BEA4F5B4C";
shapes = (
{
closed = 1;
nodes = (
(-27,0,l),
(-23,0,l),
(338,697,l),
(339,697,l),
(504,0,l),
(508,0,l),
(342,700,l),
(335,700,l)
);
},
{
closed = 1;
nodes = (
(86,212,l),
(455,212,l),
(455,216,l),
(86,216,l)
);
}
);
width = 557;
},
{
anchors = (
{
name = bottom;
pos = (263,0);
},
{
name = ogonek;
pos = (555,0);
},
{
name = top;
pos = (361,700);
}
);
layerId = "287B816B-C6D9-4D62-948A-F2FEA8E41A5A";
shapes = (
{
closed = 1;
nodes = (
(-29,0,l),
(33,0,l),
(352,650,l),
(356,650,l),
(493,0,l),
(555,0,l),
(405,700,l),
(317,700,l)
);
},
{
closed = 1;
nodes = (
(114,192,l),
(465,192,l),
(472,242,l),
(121,242,l)
);
}
);
width = 602;
}
);
metricRight = "=|";
unicode = 65;
},
{
glyphname = AE;
kernLeft = public.kern2.A;
kernRight = public.kern1.E;
layers = (
{
anchors = (
{
name = bottom;
pos = (530,0);
},
{
name = top;
pos = (628,700);
}
);
guides = (
{
angle = 160.056;
pos = (112,555);
}
);
layerId = "3C3B4AE3-80BB-44A4-A3CD-A752C08638B1";
shapes = (
{
closed = 1;
nodes = (
(-34,0,l),
(266,0,l),
(528,700,l),
(231,700,l)
);
},
{
closed = 1;
nodes = (
(228,190,l),
(938,257,l),
(966,458,l),
(256,391,l)
);
},
{
closed = 1;
nodes = (
(420,0,l),
(928,0,l),
(956,200,l),
(683,200,l),
(726,46,l),
(812,654,l),
(725,500,l),
(993,500,l),
(1021,700,l),
(518,700,l)
);
},
{
closed = 1;
nodes = (
(389,700,l),
(361,501,l),
(725,500,l),
(753,700,l)
);
}
);
width = 988;
},
{
anchors = (
{
name = bottom;
pos = (493,0);
},
{
name = top;
pos = (615,700);
}
);
layerId = "463395A0-2DFC-45D4-87AF-EBCF54FF53ED";
shapes = (
{
closed = 1;
nodes = (
(-33,0,l),
(191,0,l),
(484,700,l),
(262,700,l)
);
},
{
closed = 1;
nodes = (
(203,215,l),
(882,281,l),
(903,429,l),
(224,362,l)
);
},
{
closed = 1;
nodes = (
(406,0,l),
(869,0,l),
(889,147,l),
(598,147,l),
(631,34,l),
(719,666,l),
(656,553,l),
(942,553,l),
(962,700,l),
(504,700,l)
);
},
{
closed = 1;
nodes = (
(374,700,l),
(354,554,l),
(656,553,l),
(676,700,l)
);
}
);
width = 935;
},
{
anchors = (
{
name = bottom;
pos = (650,0);
},
{
name = top;
pos = (748,700);
}
);
guides = (
{
angle = 160.056;
pos = (522,555);
}
);
layerId = "B66266A1-0CD1-42BF-9957-E58294B85305";
shapes = (
{
closed = 1;
nodes = (
(-34,0,l),
(272,0,l),
(584,700,l),
(281,700,l)
);
},
{
closed = 1;
nodes = (
(308,190,l),
(1138,257,l),
(1166,458,l),
(336,391,l)
);
},
{
closed = 1;
nodes = (
(500,0,l),
(1128,0,l),
(1156,200,l),
(763,200,l),
(806,46,l),
(892,654,l),
(805,500,l),
(1193,500,l),
(1221,700,l),
(598,700,l)
);
},
{
closed = 1;
nodes = (
(469,700,l),
(441,501,l),
(805,500,l),
(833,700,l)
);
}
);
width = 1188;
},
{
anchors = (
{
name = bottom;
pos = (601,0);
},
{
name = top;
pos = (716,700);
}
);
layerId = "3B401755-81E4-40F3-BD5E-9424281583CA";
shapes = (
{
closed = 1;
nodes = (
(-33,0,l),
(220,0,l),
(539,700,l),
(288,700,l)
);
},
{
closed = 1;
nodes = (
(276,207,l),
(1073,272,l),
(1097,440,l),
(300,375,l)
);
},
{
closed = 1;
nodes = (
(478,0,l),
(1061,0,l),
(1084,167,l),
(697,167,l),
(733,39,l),
(821,661,l),
(749,533,l),
(1131,533,l),
(1154,700,l),
(576,700,l)
);
},
{
closed = 1;
nodes = (
(445,700,l),
(422,534,l),
(749,533,l),
(772,700,l)
);
}
);
width = 1128;
},
{
anchors = (
{
name = bottom;
pos = (162,0);
},
{
name = top;
pos = (331,700);
}
);
guides = (
{
angle = 158.836;
pos = (-120,127);
},
{
angle = 158.836;
pos = (21,627);
}
);
layerId = "3D671699-C126-4AA5-A66F-47C26817AED2";
shapes = (
{
closed = 1;
nodes = (
(-33,0,l),
(-29,0,l),
(251,700,l),
(247,700,l)
);
},
{
closed = 1;
nodes = (
(86,290,l),
(343,346,l),
(344,350,l),
(86,294,l)
);
},
{
closed = 1;
nodes = (
(174,0,l),
(315,0,l),
(315,4,l),
(176,4,l),
(178,2,l),
(276,698,l),
(274,696,l),
(409,696,l),
(409,700,l),
(272,700,l)
);
},
{
closed = 1;
nodes = (
(249,700,l),
(248,696,l),
(274,696,l),
(274,700,l)
);
}
);
width = 376;
},
{
anchors = (
{
name = bottom;
pos = (324,0);
},
{
name = top;
pos = (492,700);
}
);
layerId = "46E74328-601B-43A9-9281-7B741E5F83E4";
shapes = (
{
closed = 1;
nodes = (
(-30,0,l),
(31,0,l),
(353,700,l),
(293,700,l)
);
},
{
closed = 1;
nodes = (
(137,264,l),
(630,321,l),
(637,371,l),
(144,314,l)
);
},
{
closed = 1;
nodes = (
(308,0,l),
(603,0,l),
(610,54,l),
(365,54,l),
(370,13,l),
(464,687,l),
(449,646,l),
(691,646,l),
(698,700,l),
(406,700,l)
);
},
{
closed = 1;
nodes = (
(327,700,l),
(319,646,l),
(449,646,l),
(456,700,l)
);
}
);
width = 683;
},
{
anchors = (
{
name = bottom;
pos = (383,0);
},
{
name = top;
pos = (580,700);
}
);
guides = (
{
angle = 158.836;
pos = (66,127);
},
{
angle = 158.836;
pos = (207,627);
}
);
layerId = "ECB9DAFA-B085-4474-A032-AB3BEA4F5B4C";
shapes = (
{
closed = 1;
nodes = (
(-27,0,l),
(-23,0,l),
(349,700,l),
(345,700,l)
);
},
{
closed = 1;
nodes = (
(130,290,l),
(755,347,l),
(755,351,l),
(130,294,l)
);
},
{
closed = 1;
nodes = (
(390,0,l),
(732,0,l),
(732,4,l),
(392,4,l),
(394,2,l),
(492,698,l),
(490,696,l),
(825,696,l),
(825,700,l),
(488,700,l)
);
},
{
closed = 1;
nodes = (
(346,700,l),
(346,696,l),
(490,696,l),
(490,700,l)
);
}
);
width = 832;
},
{
anchors = (
{
name = bottom;
pos = (429,0);
},
{
name = top;
pos = (603,700);
}
);
layerId = "287B816B-C6D9-4D62-948A-F2FEA8E41A5A";
shapes = (
{
closed = 1;
nodes = (
(-29,0,l),
(33,0,l),
(380,700,l),
(319,700,l)
);
},
{
closed = 1;
nodes = (
(156,260,l),
(814,321,l),
(821,371,l),
(163,310,l)
);
},
{
closed = 1;
nodes = (
(400,0,l),
(794,0,l),
(801,54,l),
(454,54,l),
(462,14,l),
(556,686,l),
(538,646,l),
(880,646,l),
(887,700,l),
(498,700,l)
);
},
{
closed = 1;
nodes = (
(362,700,l),
(354,646,l),
(538,646,l),
(545,700,l)
);
}
);
width = 882;
}
);
unicode = 198;
},
{
glyphname = B;
kernLeft = public.kern2.H;
kernRight = public.kern1.B;
layers = (
{
layerId = "3C3B4AE3-80BB-44A4-A3CD-A752C08638B1";
shapes = (
{
closed = 1;
nodes = (
(2,0,l),
(441,0,ls),
(574,0,o),
(671,71,o),
(686,180,c),
(686,182,l),
(704,309,o),
(621,375,o),
(442,375,c),
(440,343,l),
(600,343,o),
(698,410,o),
(715,530,c),
(716,532,l),
(731,645,o),
(667,700,o),
(520,700,cs),
(100,700,l)
);
},
{
closed = 1;
nodes = (
(329,190,l),
(340,270,l),
(373,270,ls),
(397,270,o),
(407,258,o),
(404,234,cs),
(403,226,ls),
(399,202,o),
(386,190,o),
(362,190,cs)
);
},
{
closed = 1;
nodes = (
(362,430,l),
(373,510,l),
(399,510,ls),
(424,510,o),
(433,499,o),
(429,474,cs),
(428,466,ls),
(425,441,o),
(413,430,o),
(388,430,cs)
);
}
);
width = 721;
},
{
layerId = "463395A0-2DFC-45D4-87AF-EBCF54FF53ED";
shapes = (
{
closed = 1;
nodes = (
(12,0,l),
(383,0,ls),
(509,0,o),
(593,64,o),
(610,182,cs),
(611,185,l),
(627,307,o),
(560,369,o),
(407,371,c),
(406,348,l),
(539,351,o),
(625,419,o),
(641,530,cs),
(642,533,l),
(657,647,o),
(596,700,o),
(462,700,cs),
(110,700,l)
);
},
{
closed = 1;
nodes = (
(251,140,l),
(273,294,l),
(352,294,ls),
(391,294,o),
(408,269,o),
(401,222,cs),
(400,214,ls),
(392,161,o),
(367,140,o),
(325,140,cs)
);
},
{
closed = 1;
nodes = (
(290,412,l),
(311,560,l),
(374,560,ls),
(420,560,o),
(435,536,o),
(429,490,cs),
(428,482,ls),
(421,438,o),
(399,412,o),
(364,412,cs)
);
}
);
width = 651;
},
{
guides = (
{
angle = 8.246;
pos = (607,487);
}
);
layerId = "B66266A1-0CD1-42BF-9957-E58294B85305";
shapes = (
{
closed = 1;
nodes = (
(2,0,l),
(498,0,ls),
(647,0,o),
(740,66,o),
(757,183,c),
(757,185,l),
(775,316,o),
(694,375,o),
(495,375,c),
(494,343,l),
(659,343,o),
(767,413,o),
(785,533,c),
(785,535,l),
(800,645,o),
(730,700,o),
(575,700,cs),
(100,700,l)
);
},
{
closed = 1;
nodes = (
(329,190,l),
(340,270,l),
(432,270,ls),
(457,270,o),
(467,258,o),
(464,234,cs),
(463,226,ls),
(459,202,o),
(446,190,o),
(421,190,cs)
);
},
{
closed = 1;
nodes = (
(362,430,l),
(373,510,l),
(454,510,ls),
(480,510,o),
(490,499,o),
(486,474,cs),
(485,466,ls),
(482,441,o),
(469,430,o),
(443,430,cs)
);
}
);
width = 791;
},
{
layerId = "3B401755-81E4-40F3-BD5E-9424281583CA";
shapes = (
{
closed = 1;
nodes = (
(14,0,l),
(462,0,ls),
(611,0,o),
(701,64,o),
(718,183,c),
(718,186,l),
(735,313,o),
(660,371,o),
(478,372,c),
(477,346,l),
(629,347,o),
(729,416,o),
(746,531,cs),
(747,534,l),
(761,645,o),
(693,700,o),
(539,700,cs),
(112,700,l)
);
},
{
closed = 1;
nodes = (
(286,159,l),
(304,285,l),
(421,285,ls),
(461,285,o),
(479,265,o),
(474,227,cs),
(473,219,ls),
(467,178,o),
(443,159,o),
(398,159,cs)
);
},
{
closed = 1;
nodes = (
(323,419,l),
(340,541,l),
(439,541,ls),
(485,541,o),
(503,523,o),
(498,483,cs),
(497,476,ls),
(492,439,o),
(469,419,o),
(432,419,cs)
);
}
);
width = 759;
},
{
layerId = "3D671699-C126-4AA5-A66F-47C26817AED2";
shapes = (
{
closed = 1;
nodes = (
(12,0,l),
(88,0,ls),
(141,0,o),
(180,45,o),
(200,182,cs),
(201,188,ls),
(216,293,o),
(203,353,o),
(164,360,c),
(165,362,l),
(202,375,o),
(229,444,o),
(241,527,cs),
(242,533,ls),
(259,661,o),
(227,700,o),
(176,700,cs),
(110,700,l)
);
},
{
closed = 1;
nodes = (
(16,4,l),
(66,359,l),
(152,359,ls),
(198,359,o),
(213,300,o),
(197,188,cs),
(196,182,ls),
(177,45,o),
(137,4,o),
(88,4,cs)
);
},
{
closed = 1;
nodes = (
(67,363,l),
(114,696,l),
(175,696,ls),
(240,696,o),
(251,630,o),
(238,533,cs),
(237,527,ls),
(224,433,o),
(190,363,o),
(156,363,cs)
);
}
);
width = 241;
},
{
layerId = "46E74328-601B-43A9-9281-7B741E5F83E4";
shapes = (
{
closed = 1;
nodes = (
(37,0,l),
(204,0,ls),
(321,0,o),
(380,56,o),
(399,186,cs),
(401,198,ls),
(414,303,o),
(379,358,o),
(295,363,c),
(295,359,l),
(366,367,o),
(419,428,o),
(432,518,cs),
(433,526,ls),
(448,643,o),
(401,700,o),
(289,700,cs),
(135,700,l)
);
},
{
closed = 1;
nodes = (
(104,50,l),
(144,334,l),
(251,334,ls),
(325,334,o),
(354,291,o),
(341,198,cs),
(339,186,ls),
(325,88,o),
(289,50,o),
(211,50,cs)
);
},
{
closed = 1;
nodes = (
(151,384,l),
(188,650,l),
(282,650,ls),
(354,650,o),
(384,609,o),
(373,526,cs),
(372,518,ls),
(360,432,o),
(314,384,o),
(245,384,cs)
);
}
);
width = 452;
},
{
guides = (
{
angle = 8.246;
pos = (489,504);
}
);
layerId = "ECB9DAFA-B085-4474-A032-AB3BEA4F5B4C";
shapes = (
{
closed = 1;
nodes = (
(72,0,l),
(286,0,ls),
(433,0,o),
(507,57,o),
(525,185,cs),
(526,191,ls),
(539,297,o),
(495,353,o),
(395,360,c),
(396,362,l),
(480,369,o),
(544,433,o),
(556,524,cs),
(557,530,ls),
(572,646,o),
(509,700,o),
(362,700,cs),
(170,700,l)
);
},
{
closed = 1;
nodes = (
(76,4,l),
(126,359,l),
(366,359,ls),
(483,359,o),
(537,301,o),
(522,191,cs),
(521,185,ls),
(503,60,o),
(430,4,o),
(286,4,cs)
);
},
{
closed = 1;
nodes = (
(127,363,l),
(174,696,l),
(362,696,ls),
(509,696,o),
(569,643,o),
(553,530,cs),
(552,524,ls),
(539,430,o),
(464,363,o),
(373,363,cs)
);
}
);
width = 598;
},
{
layerId = "287B816B-C6D9-4D62-948A-F2FEA8E41A5A";
shapes = (
{
closed = 1;
nodes = (
(52,0,l),
(295,0,ls),
(436,0,o),
(507,57,o),
(525,186,cs),
(527,199,ls),
(540,305,o),
(495,357,o),
(386,363,c),
(386,358,l),
(477,365,o),
(544,428,o),
(557,520,cs),
(558,529,ls),
(573,644,o),
(512,700,o),
(374,700,cs),
(150,700,l)
);
},
{
closed = 1;
nodes = (
(119,50,l),
(159,334,l),
(347,334,ls),
(439,334,o),
(479,289,o),
(467,199,cs),
(465,186,ls),
(451,87,o),
(404,50,o),
(292,50,cs)
);
},
{
closed = 1;
nodes = (
(166,384,l),
(203,650,l),
(358,650,ls),
(467,650,o),
(510,613,o),
(498,529,cs),
(497,520,ls),
(485,437,o),
(428,384,o),
(348,384,cs)
);
}
);
width = 587;
}
);
metricLeft = H;
unicode = 66;
},
{
glyphname = C;
kernLeft = public.kern2.O;
kernRight = public.kern1.C;
layers = (
{
anchors = (
{
name = bottom;
pos = (317,0);
},
{
name = top;
pos = (415,700);
}
);
guides = (
{
angle = 266.121;
pos = (668,246);
}
);
layerId = "3C3B4AE3-80BB-44A4-A3CD-A752C08638B1";
shapes = (
{
closed = 1;
nodes = (
(506,-15,o),
(636,71,o),
(670,236,c),
(384,265,l),
(373,211,o),
(361,185,o),
(339,185,cs),
(322,185,o),
(314,196,o),
(318,220,c),
(354,480,l),
(358,504,o),
(368,515,o),
(385,515,cs),
(407,515,o),
(413,491,o),
(408,435,c),
(702,464,l),
(714,629,o),
(608,715,o),
(417,715,cs),
(213,715,o),
(73,611,o),
(49,444,cs),
(23,256,ls),
(-1,89,o),
(111,-15,o),
(315,-15,cs)
);
}
);
width = 694;
},
{
anchors = (
{
name = bottom;
pos = (295,-1);
},
{
name = top;
pos = (392,700);
}
);
layerId = "463395A0-2DFC-45D4-87AF-EBCF54FF53ED";
shapes = (
{
closed = 1;
nodes = (
(462,-12,o),
(575,70,o),
(610,223,c),
(400,244,l),
(384,170,o),
(357,135,o),
(311,135,cs),
(264,135,o),
(242,170,o),
(252,243,cs),
(282,458,ls),
(292,529,o),
(325,565,o),
(371,565,cs),
(416,565,o),
(433,533,o),
(430,460,c),
(646,481,l),
(652,631,o),
(563,712,o),
(388,712,cs),
(207,712,o),
(84,615,o),
(62,454,cs),
(33,248,ls),
(10,84,o),
(105,-12,o),
(286,-12,cs)
);
}
);
width = 645;
},
{
anchors = (
{
name = bottom;
pos = (383,0);
},
{
name = top;
pos = (473,700);
}
);
guides = (
{
angle = 99.7;
pos = (594,502);
},
{
angle = 83.946;
pos = (511,204);
},
{
angle = 355.101;
pos = (237,223);
},
{
angle = 4.899;
pos = (309,477);
},
{
angle = 262.161;
pos = (499,285);
},
{
angle = 262.161;
pos = (781,256);
},
{
angle = 278.13;
pos = (845,528);
}
);
layerId = "B66266A1-0CD1-42BF-9957-E58294B85305";
shapes = (
{
closed = 1;
nodes = (
(597,-15,o),
(735,88,o),
(783,256,c),
(497,285,l),
(478,217,o),
(453,185,o),
(401,185,cs),
(351,185,o),
(322,218,o),
(332,286,cs),
(350,414,ls),
(360,482,o),
(397,515,o),
(447,515,cs),
(499,515,o),
(516,485,o),
(515,415,c),
(809,444,l),
(809,612,o),
(699,715,o),
(457,715,cs),
(231,715,o),
(76,600,o),
(50,414,cs),
(32,286,ls),
(6,100,o),
(129,-15,o),
(355,-15,cs)
);
}
);
width = 808;
},
{
anchors = (
{
name = bottom;
pos = (368,0);
},
{
name = top;
pos = (461,700);
}
);
layerId = "3B401755-81E4-40F3-BD5E-9424281583CA";
shapes = (
{
closed = 1;
nodes = (
(568,-13,o),
(699,85,o),
(745,248,c),
(507,272,l),
(485,192,o),
(448,154,o),
(382,154,cs),
(314,154,o),
(280,200,o),
(293,295,cs),
(309,407,ls),
(322,500,o),
(371,546,o),
(438,546,cs),
(503,546,o),
(528,511,o),
(529,432,c),
(774,456,l),
(772,617,o),
(669,713,o),
(447,713,cs),
(232,713,o),
(86,601,o),
(60,414,cs),
(42,288,ls),
(16,99,o),
(129,-13,o),
(344,-13,cs)
);
}
);
width = 778;
},
{
anchors = (
{
name = bottom;
pos = (89,-2);
},
{
name = top;
pos = (188,700);
}
);
guides = (
{
angle = 4.086;
pos = (263,98);
},
{
angle = 4.086;
pos = (338,565);
},
{
angle = 355.914;
pos = (218,136);
},
{
angle = 266.121;
pos = (259,113);
}
);
layerId = "3D671699-C126-4AA5-A66F-47C26817AED2";
shapes = (
{
closed = 1;
nodes = (
(142,-5,o),
(177,41,o),
(195,138,c),
(191,138,l),
(173,42,o),
(141,-1,o),
(89,-1,cs),
(37,-1,o),
(16,40,o),
(28,122,cs),
(92,578,ls),
(103,659,o),
(136,701,o),
(187,701,cs),
(238,701,o),
(259,658,o),
(252,568,c),
(256,568,l),
(264,661,o),
(242,705,o),
(188,705,cs),
(134,705,o),
(100,661,o),
(88,578,cs),
(24,122,ls),
(12,38,o),
(34,-5,o),
(88,-5,cs)
);
}
);
width = 232;
},
{
anchors = (
{
name = bottom;
pos = (201,-2);
},
{
name = top;
pos = (300,700);
}
);
layerId = "46E74328-601B-43A9-9281-7B741E5F83E4";
shapes = (
{
closed = 1;
nodes = (
(304,-7,o),
(372,56,o),
(399,178,c),
(342,183,l),
(321,92,o),
(275,47,o),
(204,47,cs),
(127,47,o),
(95,97,o),
(109,196,cs),
(153,506,ls),
(166,602,o),
(215,653,o),
(291,653,cs),
(359,653,o),
(390,612,o),
(389,526,c),
(448,532,l),
(451,648,o),
(401,707,o),
(298,707,cs),
(183,707,o),
(111,635,o),
(93,506,cs),
(49,197,l),
(31,64,o),
(84,-7,o),
(197,-7,cs)
);
}
);
width = 457;
},
{
anchors = (
{
name = bottom;
pos = (294,-2);
},
{
name = top;
pos = (403,700);
}
);
guides = (
{
pos = (0,194);
},
{
angle = 4.899;
pos = (167,515);
},
{
angle = 262.161;
pos = (547,209);
}
);
layerId = "ECB9DAFA-B085-4474-A032-AB3BEA4F5B4C";
shapes = (
{
closed = 1;
nodes = (
(430,-5,o),
(521,68,o),
(560,208,c),
(556,209,l),
(518,71,o),
(429,-1,o),
(294,-1,cs),
(135,-1,o),
(70,97,o),
(98,296,cs),
(115,414,ls),
(141,602,o),
(238,701,o),
(394,701,cs),
(520,701,o),
(586,640,o),
(594,514,c),
(598,515,l),
(590,642,o),
(523,705,o),
(395,705,cs),
(236,705,o),
(138,604,o),
(111,414,cs),
(94,296,ls),
(66,94,o),
(132,-5,o),
(293,-5,cs)
);
}
);
width = 637;
},
{
anchors = (
{
name = bottom;
pos = (291,-1);
},
{
name = top;
pos = (392,700);
}
);
layerId = "287B816B-C6D9-4D62-948A-F2FEA8E41A5A";
shapes = (
{
closed = 1;
nodes = (
(427,-7,o),
(520,66,o),
(560,208,c),
(504,213,l),
(472,102,o),
(401,47,o),
(293,47,cs),
(164,47,o),
(114,117,o),
(135,268,cs),
(159,438,ls),
(180,583,o),
(253,653,o),
(380,653,cs),
(484,653,o),
(536,605,o),
(540,502,c),
(600,508,l),
(594,641,o),
(524,707,o),
(387,707,cs),
(226,707,o),
(124,612,o),
(99,438,cs),
(75,268,ls),
(50,87,o),
(123,-7,o),
(286,-7,cs)
);
}
);
width = 625;
}
);
metricLeft = O;
unicode = 67;
},
{
glyphname = D;
kernLeft = public.kern2.H;
kernRight = public.kern1.O;
lastChange = "2023-01-16 12:45:25 +0000";
layers = (
{
anchors = (
{
name = bottom;
pos = (316,0);
},
{
name = center;
pos = (201,350);
},
{
name = top;
pos = (404,700);
}
);
layerId = "3C3B4AE3-80BB-44A4-A3CD-A752C08638B1";
shapes = (
{
closed = 1;
nodes = (
(2,0,l),
(306,0,ls),
(556,0,o),
(679,90,o),
(708,293,cs),
(724,406,ls),
(752,609,o),
(653,700,o),
(404,700,cs),
(100,700,l)
);
},
{
closed = 1;
nodes = (
(308,47,l),
(393,651,l),
(310,510,l),
(389,510,ls),
(420,510,o),
(432,497,o),
(427,463,cs),
(395,237,ls),
(390,203,o),
(376,190,o),
(345,190,cs),
(266,190,l)
);
}
);
width = 730;
},
{
anchors = (
{
name = bottom;
pos = (294,0);
},
{
name = center;
pos = (171,350);
},
{
name = top;
pos = (381,700);
}
);
layerId = "463395A0-2DFC-45D4-87AF-EBCF54FF53ED";
shapes = (
{
closed = 1;
nodes = (
(12,0,l),
(291,0,ls),
(505,0,o),
(611,81,o),
(637,262,c),
(661,437,l),
(687,618,o),
(602,700,o),
(389,700,cs),
(110,700,l)
);
},
{
closed = 1;
nodes = (
(237,35,l),
(325,664,l),
(264,560,l),
(366,560,ls),
(430,560,o),
(453,533,o),
(443,467,c),
(411,233,l),
(401,167,o),
(370,140,o),
(306,140,cs),
(204,140,l)
);
}
);
width = 674;
},
{
anchors = (
{
name = bottom;
pos = (383,0);
},
{
name = center;
pos = (201,350);
},
{
name = top;
pos = (466,700);
}
);
layerId = "B66266A1-0CD1-42BF-9957-E58294B85305";
shapes = (
{
closed = 1;
nodes = (
(2,0,l),
(406,0,ls),
(656,0,o),
(779,90,o),
(808,293,cs),
(824,406,ls),
(852,609,o),
(753,700,o),
(504,700,cs),
(100,700,l)
);
},
{
closed = 1;
nodes = (
(308,47,l),
(393,651,l),
(310,510,l),
(434,510,ls),
(509,510,o),
(535,483,o),
(525,413,cs),
(507,287,ls),
(497,217,o),
(465,190,o),
(390,190,cs),
(266,190,l)
);
}
);
width = 835;
},
{
anchors = (
{
name = bottom;
pos = (367,0);
},
{
name = center;
pos = (188,350);
},
{
name = top;
pos = (450,700);
}
);
layerId = "3B401755-81E4-40F3-BD5E-9424281583CA";
shapes = (
{
closed = 1;
nodes = (
(14,0,l),
(381,0,ls),
(620,0,o),
(739,87,o),
(767,285,cs),
(785,414,ls),
(813,612,o),
(718,700,o),
(479,700,cs),
(112,700,l)
);
},
{
closed = 1;
nodes = (
(269,39,l),
(356,659,l),
(287,541,l),
(421,541,ls),
(515,541,o),
(548,507,o),
(536,420,cs),
(516,280,ls),
(504,193,o),
(461,159,o),
(367,159,cs),
(233,159,l)
);
}
);
width = 804;
},
{
anchors = (
{
name = bottom;
pos = (90,0);
},
{
name = center;
pos = (63,350);
},
{
name = top;
pos = (183,700);
}
);
layerId = "3D671699-C126-4AA5-A66F-47C26817AED2";
shapes = (
{
closed = 1;
nodes = (
(12,0,l),
(93,0,ls),
(152,0,o),
(188,42,o),
(200,127,cs),
(262,573,ls),
(274,659,o),
(250,700,o),
(191,700,cs),
(110,700,l)
);
},
{
closed = 1;
nodes = (
(16,3,l),
(114,697,l),
(113,696,l),
(191,696,ls),
(248,696,o),
(270,656,o),
(258,573,cs),
(196,127,ls),
(184,45,o),
(150,4,o),
(93,4,cs),
(15,4,l)
);
}
);
width = 265;
},
{
anchors = (
{
name = bottom;
pos = (203,0);
},
{
name = center;
pos = (116,350);
},
{
name = top;
pos = (293,700);
}
);
layerId = "46E74328-601B-43A9-9281-7B741E5F83E4";
shapes = (
{
closed = 1;
nodes = (
(37,0,l),
(198,0,ls),
(328,0,o),
(395,60,o),
(414,190,c),
(458,510,l),
(477,640,o),
(426,700,o),
(296,700,cs),
(135,700,l)
);
},
{
closed = 1;
nodes = (
(98,11,l),
(194,689,l),
(175,650,l),
(286,650,ls),
(377,650,o),
(412,607,o),
(398,510,cs),
(354,190,l),
(340,94,o),
(293,50,o),
(202,50,cs),
(91,50,l)
);
}
);
width = 484;
},
{
anchors = (
{
name = bottom;
pos = (288,0);
},
{
name = center;
pos = (123,350);
},
{
name = top;
pos = (372,700);
}
);
layerId = "ECB9DAFA-B085-4474-A032-AB3BEA4F5B4C";
shapes = (
{
closed = 1;
nodes = (
(72,0,l),
(258,0,ls),
(445,0,o),
(538,75,o),
(562,244,cs),
(592,456,ls),
(616,625,o),
(543,700,o),
(356,700,cs),
(170,700,l)
);
},
{
closed = 1;
nodes = (
(76,2,l),
(174,698,l),
(172,696,l),
(356,696,ls),
(541,696,o),
(611,623,o),
(588,456,cs),
(558,244,ls),
(535,77,o),
(443,4,o),
(258,4,cs),
(74,4,l)
);
}
);
width = 656;
},
{
anchors = (
{
name = bottom;
pos = (286,0);
},
{
name = center;
pos = (131,350);
},
{
name = top;
pos = (371,700);
}
);
layerId = "287B816B-C6D9-4D62-948A-F2FEA8E41A5A";
shapes = (
{
closed = 1;
nodes = (
(52,0,l),
(278,0,ls),
(454,0,o),
(543,71,o),
(565,232,c),
(599,468,l),
(621,629,o),
(553,700,o),
(376,700,cs),
(150,700,l)
);
},
{
closed = 1;
nodes = (
(113,10,l),
(209,689,l),
(190,650,l),
(351,650,ls),
(506,650,o),
(558,600,o),
(540,468,c),
(506,232,ls),
(488,101,o),
(422,50,o),
(267,50,cs),
(106,50,l)
);
}
);
width = 646;
}
);
metricLeft = H;
metricRight = O;
unicode = 68;
},
{
glyphname = E;
kernLeft = public.kern2.H;
kernRight = public.kern1.E;
layers = (
{
anchors = (
{
name = "#entry";
pos = (400,700);
},
{
name = bottom;
pos = (263,0);
},
{
name = ogonek;
pos = (509,0);
},
{
name = top;
pos = (359,700);
},
{
name = topleft;
pos = (89,700);
}
);
layerId = "3C3B4AE3-80BB-44A4-A3CD-A752C08638B1";
shapes = (
{
closed = 1;
nodes = (
(308,43,l),
(353,367,l),
(270,249,l),
(524,249,l),
(552,449,l),
(298,449,l),
(348,331,l),
(394,657,l),
(305,500,l),
(575,500,l),
(603,700,l),
(100,700,l),
(2,0,l),
(509,0,l),
(537,200,l),
(263,200,l)
);
}
);
width = 569;
},
{
anchors = (
{
name = "#entry";
pos = (330,700);
},
{
name = bottom;
pos = (248,0);
},
{
name = ogonek;
pos = (475,0);
},
{
name = top;
pos = (345,700);
},
{
name = topleft;
pos = (95,700);
}
);
layerId = "463395A0-2DFC-45D4-87AF-EBCF54FF53ED";
shapes = (
{
closed = 1;
nodes = (
(236,33,l),
(282,360,l),
(221,275,l),
(492,275,l),
(513,423,l),
(242,423,l),
(279,338,l),
(326,667,l),
(261,553,l),
(549,553,l),
(569,700,l),
(110,700,l),
(12,0,l),
(475,0,l),
(495,147,l),
(203,147,l)
);
}
);
width = 541;
},
{
anchors = (
{
name = "#entry";
pos = (400,700);
},
{
name = bottom;
pos = (316,0);
},
{
name = ogonek;
pos = (630,0);
},
{
name = top;
pos = (414,700);
},
{
name = topleft;
pos = (100,700);
}
);
layerId = "B66266A1-0CD1-42BF-9957-E58294B85305";
shapes = (
{
closed = 1;
nodes = (
(308,46,l),
(352,358,l),
(272,249,l),
(639,249,l),
(667,449,l),
(300,449,l),
(350,340,l),
(394,654,l),
(307,500,l),
(695,500,l),
(723,700,l),
(100,700,l),
(2,0,l),
(630,0,l),
(658,200,l),
(265,200,l)
);
}
);
width = 690;
},
{
anchors = (
{
name = "#entry";
pos = (362,700);
},
{
name = bottom;
pos = (307,0);
},
{
name = ogonek;
pos = (597,0);
},
{
name = top;
pos = (405,700);
},
{
name = topleft;
pos = (102,700);
}
);
layerId = "3B401755-81E4-40F3-BD5E-9424281583CA";
shapes = (
{
closed = 1;
nodes = (
(269,39,l),
(314,356,l),
(246,266,l),
(608,266,l),
(632,432,l),
(270,432,l),
(312,342,l),
(357,661,l),
(284,533,l),
(667,533,l),
(690,700,l),
(112,700,l),
(14,0,l),
(597,0,l),
(620,167,l),
(232,167,l)
);
}
);
width = 664;
},
{
anchors = (
{
name = "#entry";
pos = (114,700);
},
{
name = bottom;
pos = (86,0);
},
{
name = ogonek;
pos = (155,0);
},
{
name = top;
pos = (184,700);
},
{
name = topleft;
pos = (91,700);
}
);
layerId = "3D671699-C126-4AA5-A66F-47C26817AED2";
shapes = (
{
closed = 1;
nodes = (
(16,2,l),
(65,349,l),
(63,347,l),
(194,347,l),
(194,351,l),
(63,351,l),
(65,349,l),
(114,698,l),
(112,696,l),
(251,696,l),
(251,700,l),
(110,700,l),
(12,0,l),
(155,0,l),
(155,4,l),
(14,4,l)
);
}
);
width = 216;
},
{
anchors = (
{
name = "#entry";
pos = (195,700);
},
{
name = bottom;
pos = (182,0);
},
{
name = ogonek;
pos = (319,0);
},
{
name = top;
pos = (280,700);
},
{
name = topleft;
pos = (108,700);
}
);
layerId = "46E74328-601B-43A9-9281-7B741E5F83E4";
shapes = (
{
closed = 1;
nodes = (
(98,10,l),
(146,351,l),
(128,324,l),
(348,324,l),
(355,374,l),
(135,374,l),
(146,347,l),
(194,690,l),
(174,646,l),
(407,646,l),
(414,700,l),
(135,700,l),
(37,0,l),
(319,0,l),
(326,54,l),
(90,54,l)
);
}
);
width = 399;
},
{
anchors = (
{
name = "#entry";
pos = (174,700);
},
{
name = bottom;
pos = (261,0);
},
{
name = ogonek;
pos = (434,0);
},
{
name = top;
pos = (359,700);
},
{
name = topleft;
pos = (112,700);
}
);
layerId = "ECB9DAFA-B085-4474-A032-AB3BEA4F5B4C";
shapes = (
{
closed = 1;
nodes = (
(76,2,l),
(125,349,l),
(123,347,l),
(457,347,l),
(457,351,l),
(123,351,l),
(125,349,l),
(174,698,l),
(172,696,l),
(527,696,l),
(527,700,l),
(170,700,l),
(72,0,l),
(434,0,l),
(434,4,l),
(74,4,l)
);
}
);
width = 534;
},
{
anchors = (
{
name = "#entry";
pos = (210,700);
},
{
name = bottom;
pos = (254,0);
},
{
name = ogonek;
pos = (446,0);
},
{
name = top;
pos = (352,700);
},
{
name = topleft;
pos = (112,700);
}
);
layerId = "287B816B-C6D9-4D62-948A-F2FEA8E41A5A";
shapes = (
{
closed = 1;
nodes = (
(113,11,l),
(161,348,l),
(143,324,l),
(468,324,l),
(475,374,l),
(150,374,l),
(161,350,l),
(209,689,l),
(189,646,l),
(533,646,l),
(540,700,l),
(150,700,l),
(52,0,l),
(446,0,l),
(453,54,l),
(105,54,l)
);
}
);
width = 534;
}
);
metricLeft = H;
unicode = 69;
},
{
glyphname = F;
kernLeft = public.kern2.H;
kernRight = public.kern1.F;
layers = (
{
layerId = "3C3B4AE3-80BB-44A4-A3CD-A752C08638B1";
shapes = (
{
closed = 1;
nodes = (
(563,500,l),
(591,700,l),
(100,700,l),
(2,0,l),
(302,0,l),
(351,347,l),
(269,229,l),
(504,229,l),
(532,429,l),
(297,429,l),
(346,313,l),
(393,652,l),
(307,500,l)
);
}
);
width = 543;
},
{
layerId = "463395A0-2DFC-45D4-87AF-EBCF54FF53ED";
shapes = (
{
closed = 1;
nodes = (
(522,553,l),
(542,700,l),
(110,700,l),
(12,0,l),
(232,0,l),
(281,348,l),
(220,261,l),
(462,261,l),
(483,408,l),
(241,408,l),
(277,323,l),
(325,664,l),
(262,553,l)
);
}
);
width = 497;
},
{
layerId = "B66266A1-0CD1-42BF-9957-E58294B85305";
shapes = (
{
closed = 1;
nodes = (
(643,500,l),
(671,700,l),
(100,700,l),
(2,0,l),
(302,0,l),
(351,347,l),
(269,229,l),
(584,229,l),
(612,429,l),
(297,429,l),
(346,313,l),
(393,652,l),
(307,500,l)
);
}
);
width = 623;
},
{
layerId = "3B401755-81E4-40F3-BD5E-9424281583CA";
shapes = (
{
closed = 1;
nodes = (
(616,533,l),
(639,700,l),
(112,700,l),
(14,0,l),
(264,0,l),
(313,347,l),
(244,249,l),
(556,249,l),
(579,416,l),
(267,416,l),
(309,319,l),
(357,660,l),
(284,533,l)
);
}
);
width = 595;
},
{
layerId = "3D671699-C126-4AA5-A66F-47C26817AED2";
shapes = (
{
closed = 1;
nodes = (
(230,696,l),
(230,700,l),
(110,700,l),
(12,0,l),
(16,0,l),
(65,349,l),
(64,347,l),
(174,347,l),
(174,351,l),
(64,351,l),
(65,349,l),
(114,698,l),
(113,696,l)
);
}
);
width = 180;
},
{
layerId = "46E74328-601B-43A9-9281-7B741E5F83E4";
shapes = (
{
closed = 1;
nodes = (
(378,646,l),
(385,700,l),
(135,700,l),
(37,0,l),
(97,0,l),
(146,350,l),
(129,321,l),
(320,321,l),
(327,371,l),
(136,371,l),
(145,341,l),
(192,676,l),
(175,646,l)
);
}
);
width = 348;
},
{
layerId = "ECB9DAFA-B085-4474-A032-AB3BEA4F5B4C";
shapes = (
{
closed = 1;
nodes = (
(484,696,l),
(484,700,l),
(170,700,l),
(72,0,l),
(76,0,l),
(125,349,l),
(123,347,l),
(416,347,l),
(416,351,l),
(123,351,l),
(125,349,l),
(174,698,l),
(172,696,l)
);
}
);
width = 457;
},
{
layerId = "287B816B-C6D9-4D62-948A-F2FEA8E41A5A";
shapes = (
{
closed = 1;
nodes = (
(485,646,l),
(492,700,l),
(150,700,l),
(52,0,l),
(112,0,l),
(161,349,l),
(143,321,l),
(423,321,l),
(430,371,l),
(150,371,l),
(160,342,l),
(208,684,l),
(189,646,l)
);
}
);
width = 459;
}
);
metricLeft = H;
unicode = 70;
},
{
glyphname = G;
kernLeft = public.kern2.O;
kernRight = public.kern1.G;
layers = (
{
anchors = (
{
name = bottom;
pos = (317,0);
},
{
name = top;
pos = (414,700);
}
);
layerId = "3C3B4AE3-80BB-44A4-A3CD-A752C08638B1";
shapes = (
{
closed = 1;
nodes = (
(444,-15,o),
(552,89,o),
(573,256,c),
(390,237,l),
(384,195,o),
(371,175,o),
(346,175,cs),
(322,175,o),
(314,192,o),
(320,237,cs),
(350,453,l),
(357,498,o),
(369,515,o),
(394,515,cs),
(417,515,o),
(424,493,o),
(419,445,c),
(706,476,l),
(713,625,o),
(596,715,o),
(398,715,cs),
(206,715,o),
(73,611,o),
(49,444,cs),
(23,256,ls),
(-2,79,o),
(92,-15,o),
(251,-15,cs)
);
},
{
closed = 1;
nodes = (
(487,1,l),
(646,1,l),
(703,410,l),
(369,410,l),
(345,238,l),
(484,238,l),
(405,346,l),
(388,223,l)
);
}
);
width = 718;
},
{
anchors = (
{
name = bottom;
pos = (293,0);
},
{
name = top;
pos = (391,700);
}
);
layerId = "463395A0-2DFC-45D4-87AF-EBCF54FF53ED";
shapes = (
{
closed = 1;
nodes = (
(416,-12,o),
(515,80,o),
(536,233,c),
(403,230,l),
(393,163,o),
(364,127,o),
(312,127,cs),
(260,127,o),
(242,162,o),
(251,232,c),
(284,462,ls),
(294,532,o),
(321,565,o),
(374,565,cs),
(419,565,o),
(438,536,o),
(436,475,c),
(646,498,l),
(651,634,o),
(554,712,o),
(384,712,cs),
(206,712,o),
(86,617,o),
(63,460,c),
(33,242,l),
(9,75,o),
(93,-12,o),
(244,-12,cs)
);
},
{
closed = 1;
nodes = (
(466,1,l),
(583,1,l),
(638,393,l),
(344,393,l),
(326,266,l),
(477,266,l),
(419,346,l),
(400,205,l)
);
}
);
width = 663;
},
{
anchors = (
{
name = bottom;
pos = (382,0);
},
{
name = top;
pos = (480,700);
}
);
guides = (
{
angle = 91.051;
pos = (713,1);
}
);
layerId = "B66266A1-0CD1-42BF-9957-E58294B85305";
shapes = (
{
closed = 1;
nodes = (
(534,-15,o),
(654,89,o),
(678,256,c),
(502,285,l),
(492,217,o),
(465,175,o),
(401,175,cs),
(337,175,o),
(322,217,o),
(332,285,cs),
(349,405,ls),
(359,475,o),
(385,515,o),
(449,515,cs),
(502,515,o),
(523,490,o),
(522,445,c),
(809,476,l),
(814,625,o),
(692,715,o),
(482,715,cs),
(239,715,o),
(76,599,o),
(50,414,cs),
(32,286,ls),
(4,89,o),
(118,-15,o),
(316,-15,cs)
);
},
{
closed = 1;
nodes = (
(592,1,l),
(751,1,l),
(808,410,l),
(433,410,l),
(409,238,l),
(589,238,l),
(510,346,l),
(493,223,l)
);
}
);
width = 823;
},
{
anchors = (
{
name = bottom;
pos = (363,0);
},
{
name = top;
pos = (462,700);
}
);
layerId = "3B401755-81E4-40F3-BD5E-9424281583CA";
shapes = (
{
closed = 1;
nodes = (
(513,-13,o),
(630,86,o),
(653,248,c),
(506,272,l),
(495,193,o),
(456,145,o),
(379,145,cs),
(301,145,o),
(278,194,o),
(290,278,cs),
(309,415,ls),
(321,499,o),
(359,546,o),
(437,546,cs),
(501,546,o),
(527,517,o),
(529,462,c),
(767,488,l),
(770,630,o),
(659,713,o),
(464,713,cs),
(237,713,o),
(86,603,o),
(60,422,cs),
(40,279,ls),
(13,87,o),
(118,-13,o),
(308,-13,cs)
);
},
{
closed = 1;
nodes = (
(576,1,l),
(708,1,l),
(764,401,l),
(415,401,l),
(395,257,l),
(582,257,l),
(517,347,l),
(498,216,l)
);
}
);
width = 790;
},
{
anchors = (
{
name = bottom;
pos = (91,0);
},
{
name = top;
pos = (189,700);
}
);
layerId = "3D671699-C126-4AA5-A66F-47C26817AED2";
shapes = (
{
closed = 1;
nodes = (
(142,-5,o),
(177,41,o),
(195,138,c),
(191,138,l),
(173,42,o),
(141,-1,o),
(89,-1,cs),
(37,-1,o),
(16,40,o),
(28,122,cs),
(92,578,ls),
(103,659,o),
(136,701,o),
(187,701,cs),
(238,701,o),
(259,658,o),
(252,568,c),
(256,568,l),
(264,661,o),
(242,705,o),
(188,705,cs),
(134,705,o),
(100,661,o),
(88,578,cs),
(24,122,ls),
(12,38,o),
(34,-5,o),
(88,-5,cs)
);
},
{
closed = 1;
nodes = (
(174,0,l),
(176,0,l),
(224,342,l),
(133,342,l),
(132,338,l),
(220,338,l),
(219,339,l),
(191,138,l)
);
}
);
width = 257;
},
{
anchors = (
{
name = bottom;
pos = (195,0);
},
{
name = top;
pos = (294,700);
}
);
layerId = "46E74328-601B-43A9-9281-7B741E5F83E4";
shapes = (
{
closed = 1;
nodes = (
(290,-7,o),
(353,58,o),
(372,180,c),
(334,180,l),
(319,92,o),
(273,47,o),
(199,47,cs),
(121,47,o),
(93,88,o),
(107,183,cs),
(154,519,ls),
(167,612,o),
(209,653,o),
(287,653,cs),
(353,653,o),
(384,615,o),
(382,538,c),
(440,544,l),
(443,651,o),
(393,707,o),
(294,707,cs),
(182,707,o),
(111,640,o),
(94,519,cs),
(47,183,ls),
(29,59,o),
(80,-7,o),
(192,-7,cs)
);
},
{
closed = 1;
nodes = (
(337,0,l),
(369,0,l),
(419,358,l),
(242,358,l),
(235,308,l),
(372,308,l),
(357,344,l),
(332,166,l)
);
}
);
width = 471;
},
{
anchors = (
{
name = bottom;
pos = (278,0);
},
{
name = top;
pos = (382,700);
}
);
guides = (
{
angle = 91.051;
pos = (468,0);
}
);
layerId = "ECB9DAFA-B085-4474-A032-AB3BEA4F5B4C";
shapes = (
{
closed = 1;
nodes = (
(420,-5,o),
(515,74,o),
(534,209,c),
(531,209,l),
(512,76,o),
(419,-1,o),
(278,-1,cs),
(131,-1,o),
(68,80,o),
(91,246,cs),
(122,464,ls),
(144,620,o),
(232,701,o),
(380,701,cs),
(498,701,o),
(560,649,o),
(568,544,c),
(572,545,l),
(563,652,o),
(500,705,o),
(381,705,cs),
(231,705,o),
(140,622,o),
(118,464,cs),
(87,246,ls),
(64,79,o),
(127,-5,o),
(277,-5,cs)
);
},
{
closed = 1;
nodes = (
(504,0,l),
(506,0,l),
(556,354,l),
(331,354,l),
(330,350,l),
(553,350,l),
(551,352,l),
(527,181,l)
);
}
);
width = 638;
},
{
anchors = (
{
name = bottom;
pos = (279,0);
},
{
name = top;
pos = (380,700);
}
);
layerId = "287B816B-C6D9-4D62-948A-F2FEA8E41A5A";
shapes = (
{
closed = 1;
nodes = (
(406,-7,o),
(504,77,o),
(522,205,c),
(486,226,l),
(468,109,o),
(397,47,o),
(281,47,cs),
(159,47,o),
(112,107,o),
(130,236,cs),
(163,469,ls),
(180,593,o),
(249,653,o),
(370,653,cs),
(468,653,o),
(518,611,o),
(522,523,c),
(580,529,l),
(577,646,o),
(508,707,o),
(377,707,cs),
(222,707,o),
(124,623,o),
(103,469,cs),
(70,236,ls),
(47,76,o),
(118,-7,o),
(274,-7,cs)
);
},
{
closed = 1;
nodes = (
(484,0,l),
(514,0,l),
(564,358,l),
(328,358,l),
(321,308,l),
(516,308,l),
(502,343,l),
(479,181,l)
);
}
);
width = 629;
}
);
unicode = 71;
},
{
glyphname = H;
kernLeft = public.kern2.H;
kernRight = public.kern1.H;
layers = (
{
anchors = (
{
name = bottom;
pos = (332,0);
},
{
name = center;
pos = (412,570);
},
{
name = top;
pos = (430,700);
},
{
name = topleft;
pos = (80,700);
}
);
layerId = "3C3B4AE3-80BB-44A4-A3CD-A752C08638B1";
shapes = (
{
closed = 1;
nodes = (
(2,0,l),
(302,0,l),
(353,367,l),
(270,249,l),
(464,249,l),
(413,367,l),
(362,0,l),
(662,0,l),
(760,700,l),
(460,700,l),
(408,331,l),
(492,449,l),
(298,449,l),
(348,331,l),
(400,700,l),
(100,700,l)
);
}
);
width = 740;
},
{
anchors = (
{
name = bottom;
pos = (313,0);
},
{
name = center;
pos = (392,562);
},
{
name = top;
pos = (411,700);
},
{
name = topleft;
pos = (86,700);
}
);
layerId = "463395A0-2DFC-45D4-87AF-EBCF54FF53ED";
shapes = (
{
closed = 1;
nodes = (
(12,0,l),
(232,0,l),
(283,362,l),
(221,275,l),
(480,275,l),
(445,362,l),
(394,0,l),
(614,0,l),
(712,700,l),
(492,700,l),
(441,337,l),
(501,423,l),
(242,423,l),
(279,337,l),
(330,700,l),
(110,700,l)
);
}
);
width = 702;
},
{
anchors = (
{
name = bottom;
pos = (407,0);
},
{
name = center;
pos = (487,570);
},
{
name = top;
pos = (505,700);
},
{
name = topleft;
pos = (91,700);
}
);
layerId = "B66266A1-0CD1-42BF-9957-E58294B85305";
shapes = (
{
closed = 1;
nodes = (
(2,0,l),
(302,0,l),
(353,367,l),
(272,249,l),
(612,249,l),
(563,367,l),
(512,0,l),
(812,0,l),
(910,700,l),
(610,700,l),
(559,333,l),
(640,449,l),
(300,449,l),
(349,333,l),
(400,700,l),
(100,700,l)
);
}
);
width = 890;
},
{
anchors = (
{
name = bottom;
pos = (392,0);
},
{
name = center;
pos = (471,565);
},
{
name = top;
pos = (490,700);
},
{
name = topleft;
pos = (92,700);
}
);
layerId = "3B401755-81E4-40F3-BD5E-9424281583CA";
shapes = (
{
closed = 1;
nodes = (
(14,0,l),
(264,0,l),
(315,364,l),
(246,266,l),
(611,266,l),
(571,364,l),
(520,0,l),
(770,0,l),
(868,700,l),
(618,700,l),
(567,336,l),
(635,432,l),
(270,432,l),
(311,336,l),
(362,700,l),
(112,700,l)
);
}
);
width = 860;
},
{
anchors = (
{
name = bottom;
pos = (95,0);
},
{
name = center;
pos = (171,540);
},
{
name = top;
pos = (193,700);
},
{
name = topleft;
pos = (86,700);
}
);
layerId = "3D671699-C126-4AA5-A66F-47C26817AED2";
shapes = (
{
closed = 1;
nodes = (
(12,0,l),
(16,0,l),
(65,348,l),
(64,347,l),
(224,347,l),
(223,348,l),
(174,0,l),
(178,0,l),
(276,700,l),
(272,700,l),
(223,350,l),
(224,351,l),
(64,351,l),
(65,350,l),
(114,700,l),
(110,700,l)
);
}
);
width = 266;
},
{
anchors = (
{
name = bottom;
pos = (219,0);
},
{
name = center;
pos = (296,546);
},
{
name = top;
pos = (317,700);
},
{
name = topleft;
pos = (100,700);
}
);
layerId = "46E74328-601B-43A9-9281-7B741E5F83E4";
shapes = (
{
closed = 1;
nodes = (
(37,0,l),
(97,0,l),
(146,353,l),
(129,324,l),
(398,324,l),
(390,353,l),
(341,0,l),
(401,0,l),
(499,700,l),
(439,700,l),
(390,347,l),
(405,374,l),
(136,374,l),
(146,347,l),
(195,700,l),
(135,700,l)
);
}
);
width = 514;
},
{
anchors = (
{
name = bottom;
pos = (320,0);
},
{
name = center;
pos = (396,540);
},
{
name = top;
pos = (418,700);
},
{
name = topleft;
pos = (99,700);
}
);
layerId = "ECB9DAFA-B085-4474-A032-AB3BEA4F5B4C";
shapes = (
{
closed = 1;
nodes = (
(72,0,l),
(76,0,l),
(125,349,l),
(123,347,l),
(615,347,l),
(613,349,l),
(564,0,l),
(568,0,l),
(666,700,l),
(662,700,l),
(613,349,l),
(615,351,l),
(123,351,l),
(125,349,l),
(174,700,l),
(170,700,l)
);
}
);
width = 716;
},
{
anchors = (
{
name = bottom;
pos = (314,0);
},
{
name = center;
pos = (391,546);
},
{
name = top;
pos = (412,700);
},
{
name = topleft;
pos = (101,700);
}
);
layerId = "287B816B-C6D9-4D62-948A-F2FEA8E41A5A";
shapes = (
{
closed = 1;
nodes = (
(52,0,l),
(112,0,l),
(162,354,l),
(143,324,l),
(573,324,l),
(566,354,l),
(516,0,l),
(576,0,l),
(674,700,l),
(614,700,l),
(565,347,l),
(580,374,l),
(150,374,l),
(161,347,l),
(210,700,l),
(150,700,l)
);
}
);
width = 704;
}
);
metricRight = "=|";
unicode = 72;
},
{
glyphname = I;
kernLeft = public.kern2.H;
kernRight = public.kern1.H;
layers = (
{
anchors = (
{
name = bottom;
pos = (152,0);
},
{
name = ogonek;
pos = (302,0);
},
{
name = top;
pos = (250,700);
},
{
name = topleft;
pos = (100,700);
}
);
layerId = "3C3B4AE3-80BB-44A4-A3CD-A752C08638B1";
shapes = (
{
closed = 1;
nodes = (
(100,700,l),
(2,0,l),
(302,0,l),
(400,700,l)
);
}
);
width = 380;
},
{
anchors = (
{
name = bottom;
pos = (122,0);
},
{
name = ogonek;
pos = (232,0);
},
{
name = top;
pos = (220,700);
},
{
name = topleft;
pos = (85,700);
}
);
layerId = "463395A0-2DFC-45D4-87AF-EBCF54FF53ED";
shapes = (
{
closed = 1;
nodes = (
(110,700,l),
(12,0,l),
(232,0,l),
(330,700,l)
);
}
);
width = 320;
},
{
anchors = (
{
name = bottom;
pos = (152,0);
},
{
name = ogonek;
pos = (302,0);
},
{
name = top;
pos = (250,700);
},
{
name = topleft;
pos = (100,700);
}
);
layerId = "B66266A1-0CD1-42BF-9957-E58294B85305";
shapes = (
{
closed = 1;
nodes = (
(100,700,l),
(2,0,l),
(302,0,l),
(400,700,l)
);
}
);
width = 380;
},
{
anchors = (
{
name = bottom;
pos = (139,0);
},
{
name = ogonek;
pos = (264,0);
},
{
name = top;
pos = (237,700);
},
{
name = topleft;
pos = (95,700);
}
);
layerId = "3B401755-81E4-40F3-BD5E-9424281583CA";
shapes = (
{
closed = 1;
nodes = (
(112,700,l),
(14,0,l),
(264,0,l),
(362,700,l)
);
}
);
width = 354;
},
{
anchors = (
{
name = bottom;
pos = (14,0);
},
{
name = ogonek;
pos = (16,0);
},
{
name = top;
pos = (112,700);
},
{
name = topleft;
pos = (28,700);
}
);
layerId = "3D671699-C126-4AA5-A66F-47C26817AED2";
shapes = (
{
closed = 1;
nodes = (
(110,700,l),
(12,0,l),
(16,0,l),
(114,700,l)
);
}
);
width = 104;
},
{
anchors = (
{
name = bottom;
pos = (67,0);
},
{
name = ogonek;
pos = (97,0);
},
{
name = top;
pos = (165,700);
},
{
name = topleft;
pos = (64,700);
}
);
layerId = "46E74328-601B-43A9-9281-7B741E5F83E4";
shapes = (
{
closed = 1;
nodes = (
(135,700,l),
(37,0,l),
(97,0,l),
(195,700,l)
);
}
);
width = 210;
},
{
anchors = (
{
name = bottom;
pos = (74,0);
},
{
name = ogonek;
pos = (76,0);
},
{
name = top;
pos = (172,700);
},
{
name = topleft;
pos = (68,700);
}
);
layerId = "ECB9DAFA-B085-4474-A032-AB3BEA4F5B4C";
shapes = (
{
closed = 1;
nodes = (
(170,700,l),
(72,0,l),
(76,0,l),
(174,700,l)
);
}
);
width = 224;
},
{
anchors = (
{
name = bottom;
pos = (82,0);
},
{
name = ogonek;
pos = (112,0);
},
{
name = top;
pos = (180,700);
},
{
name = topleft;
pos = (71,700);
}
);
layerId = "287B816B-C6D9-4D62-948A-F2FEA8E41A5A";
shapes = (
{
closed = 1;
nodes = (
(150,700,l),
(52,0,l),
(112,0,l),
(210,700,l)
);
}
);
width = 240;
}
);
metricLeft = H;
metricRight = H;
unicode = 73;
},
{
glyphname = J;
kernLeft = public.kern2.J;
kernRight = public.kern1.J;
layers = (
{
anchors = (
{
name = bottom;
pos = (266,0);
},
{
name = top;
pos = (556,700);
}
);
guides = (
{
angle = 185;
pos = (47,164);
}
);
layerId = "3C3B4AE3-80BB-44A4-A3CD-A752C08638B1";
shapes = (
{
closed = 1;
nodes = (
(480,-15,o),
(622,100,o),
(648,286,cs),
(706,700,l),
(406,700,l),
(341,235,ls),
(336,201,o),
(324,185,o),
(303,185,cs),
(279,185,o),
(275,204,o),
(286,278,c),
(1,246,l),
(-21,85,o),
(83,-15,o),
(275,-15,cs)
);
}
);
width = 684;
},
{
anchors = (
{
name = bottom;
pos = (227,0);
},
{
name = top;
pos = (497,700);
}
);
layerId = "463395A0-2DFC-45D4-87AF-EBCF54FF53ED";
shapes = (
{
closed = 1;
nodes = (
(403,-12,o),
(521,86,o),
(544,252,cs),
(607,700,l),
(387,700,l),
(320,219,l),
(311,161,o),
(289,135,o),
(249,135,cs),
(209,135,o),
(196,166,o),
(207,252,c),
(-1,228,l),
(-22,76,o),
(64,-12,o),
(228,-12,cs)
);
}
);
width = 594;
},
{
anchors = (
{
name = bottom;
pos = (306,0);
},
{
name = top;
pos = (596,700);
}
);
layerId = "B66266A1-0CD1-42BF-9957-E58294B85305";
shapes = (
{
closed = 1;
nodes = (
(512,-15,o),
(662,100,o),
(688,286,cs),
(746,700,l),
(446,700,l),
(384,255,ls),
(377,207,o),
(358,185,o),
(323,185,cs),
(288,185,o),
(277,214,o),
(286,278,c),
(1,246,l),
(-21,84,o),
(91,-15,o),
(295,-15,cs)
);
}
);
width = 724;
},
{
anchors = (
{
name = bottom;
pos = (280,0);
},
{
name = top;
pos = (568,700);
}
);
layerId = "3B401755-81E4-40F3-BD5E-9424281583CA";
shapes = (
{
closed = 1;
nodes = (
(471,-13,o),
(608,94,o),
(633,271,cs),
(693,700,l),
(443,700,l),
(379,246,l),
(371,183,o),
(343,154,o),
(293,154,cs),
(245,154,o),
(228,191,o),
(238,268,c),
(1,242,l),
(-21,82,o),
(81,-13,o),
(270,-13,cs)
);
}
);
width = 682;
},
{
anchors = (
{
name = bottom;
pos = (38,0);
},
{
name = top;
pos = (204,700);
}
);
guides = (
{
angle = 185;
pos = (96,108);
}
);
layerId = "3D671699-C126-4AA5-A66F-47C26817AED2";
shapes = (
{
closed = 1;
nodes = (
(87,-5,o),
(112,33,o),
(126,129,cs),
(206,700,l),
(202,700,l),
(122,129,ls),
(109,35,o),
(85,-1,o),
(38,-1,cs),
(-8,-1,o),
(-21,39,o),
(-8,150,c),
(-12,150,l),
(-25,36,o),
(-12,-5,o),
(37,-5,cs)
);
}
);
width = 194;
},
{
anchors = (
{
name = bottom;
pos = (118,0);
},
{
name = top;
pos = (339,700);
}
);
layerId = "46E74328-601B-43A9-9281-7B741E5F83E4";
shapes = (
{
closed = 1;
nodes = (
(220,-7,o),
(277,53,o),
(295,178,cs),
(368,700,l),
(308,700,l),
(234,170,l),
(221,82,o),
(191,48,o),
(125,48,cs),
(64,48,o),
(43,92,o),
(54,193,c),
(-4,187,l),
(-19,58,o),
(21,-7,o),
(117,-7,cs)
);
}
);
width = 379;
},
{
anchors = (
{
name = bottom;
pos = (157,0);
},
{
name = top;
pos = (436,700);
}
);
guides = (
{
angle = 185;
pos = (70,178);
}
);
layerId = "ECB9DAFA-B085-4474-A032-AB3BEA4F5B4C";
shapes = (
{
closed = 1;
nodes = (
(277,-5,o),
(349,63,o),
(368,199,cs),
(438,700,l),
(434,700,l),
(364,199,ls),
(345,65,o),
(275,-1,o),
(153,-1,cs),
(42,-1,o),
(-8,75,o),
(8,220,c),
(4,220,l),
(-12,72,o),
(39,-5,o),
(152,-5,cs)
);
}
);
width = 483;
},
{
anchors = (
{
name = bottom;
pos = (171,0);
},
{
name = top;
pos = (432,700);
}
);
layerId = "287B816B-C6D9-4D62-948A-F2FEA8E41A5A";
shapes = (
{
closed = 1;
nodes = (
(294,-7,o),
(372,64,o),
(391,203,cs),
(461,700,l),
(401,700,l),
(331,203,ls),
(316,93,o),
(267,47,o),
(170,47,cs),
(82,47,o),
(45,103,o),
(58,218,c),
(1,213,l),
(-14,69,o),
(41,-7,o),
(163,-7,cs)
);
}
);
width = 487;
}
);
unicode = 74;
},
{
glyphname = K;
kernLeft = public.kern2.H;
kernRight = public.kern1.K;
layers = (
{
anchors = (
{
name = bottom;
pos = (337,0);
},
{
name = top;
pos = (435,700);
}
);
guides = (
{
angle = 235.033;
pos = (550,700);
}
);
layerId = "3C3B4AE3-80BB-44A4-A3CD-A752C08638B1";
shapes = (
{
closed = 1;
nodes = (
(306,98,l),
(811,700,l),
(481,700,l),
(92,236,l)
);
},
{
closed = 1;
nodes = (
(2,0,l),
(321,0,l),
(400,700,l),
(100,700,l)
);
},
{
closed = 1;
nodes = (
(394,0,l),
(702,0,l),
(559,483,l),
(311,300,l)
);
}
);
width = 757;
},
{
anchors = (
{
name = bottom;
pos = (301,0);
},
{
name = top;
pos = (395,700);
}
);
layerId = "463395A0-2DFC-45D4-87AF-EBCF54FF53ED";
shapes = (
{
closed = 1;
nodes = (
(245,128,l),
(721,700,l),
(475,700,l),
(83,224,l)
);
},
{
closed = 1;
nodes = (
(12,0,l),
(241,0,l),
(330,700,l),
(110,700,l)
);
},
{
closed = 1;
nodes = (
(389,0,l),
(619,0,l),
(469,448,l),
(285,318,l)
);
}
);
width = 668;
},
{
anchors = (
{
name = bottom;
pos = (377,0);
},
{
name = top;
pos = (475,700);
}
);
guides = (
{
angle = 297.419;
pos = (501,0);
}
);
layerId = "B66266A1-0CD1-42BF-9957-E58294B85305";
shapes = (
{
closed = 1;
nodes = (
(316,98,l),
(880,700,l),
(534,700,l),
(83,214,l)
);
},
{
closed = 1;
nodes = (
(2,0,l),
(302,0,l),
(400,700,l),
(100,700,l)
);
},
{
closed = 1;
nodes = (
(461,0,l),
(785,0,l),
(587,433,l),
(330,270,l)
);
}
);
width = 829;
},
{
anchors = (
{
name = bottom;
pos = (359,0);
},
{
name = top;
pos = (453,700);
}
);
layerId = "3B401755-81E4-40F3-BD5E-9424281583CA";
shapes = (
{
closed = 1;
nodes = (
(281,119,l),
(833,700,l),
(544,700,l),
(87,216,l)
);
},
{
closed = 1;
nodes = (
(14,0,l),
(264,0,l),
(362,700,l),
(112,700,l)
);
},
{
closed = 1;
nodes = (
(468,0,l),
(738,0,l),
(537,428,l),
(323,292,l)
);
}
);
width = 784;
},
{
anchors = (
{
name = bottom;
pos = (90,0);
},
{
name = top;
pos = (179,700);
}
);
layerId = "3D671699-C126-4AA5-A66F-47C26817AED2";
shapes = (
{
closed = 1;
nodes = (
(43,197,l),
(274,700,l),
(270,700,l),
(40,198,l)
);
},
{
closed = 1;
nodes = (
(12,0,l),
(16,0,l),
(114,700,l),
(110,700,l)
);
},
{
closed = 1;
nodes = (
(175,0,l),
(179,0,l),
(131,390,l),
(127,386,l)
);
}
);
width = 225;
},
{
anchors = (
{
name = bottom;
pos = (201,0);
},
{
name = top;
pos = (287,700);
}
);
layerId = "46E74328-601B-43A9-9281-7B741E5F83E4";
shapes = (
{
closed = 1;
nodes = (
(82,127,l),
(481,700,l),
(416,700,l),
(97,241,l)
);
},
{
closed = 1;
nodes = (
(37,0,l),
(97,0,l),
(195,700,l),
(135,700,l)
);
},
{
closed = 1;
nodes = (
(323,0,l),
(385,0,l),
(265,432,l),
(220,371,l)
);
}
);
width = 434;
},
{
anchors = (
{
name = bottom;
pos = (272,0);
},
{
name = top;
pos = (344,700);
}
);
layerId = "ECB9DAFA-B085-4474-A032-AB3BEA4F5B4C";
shapes = (
{
closed = 1;
nodes = (
(107,224,l),
(599,700,l),
(594,700,l),
(106,228,l)
);
},
{
closed = 1;
nodes = (
(72,0,l),
(76,0,l),
(174,700,l),
(170,700,l)
);
},
{
closed = 1;
nodes = (
(503,0,l),
(508,0,l),
(290,403,l),
(287,401,l)
);
}
);
width = 563;
},
{
anchors = (
{
name = bottom;
pos = (270,0);
},
{
name = top;
pos = (350,700);
}
);
layerId = "287B816B-C6D9-4D62-948A-F2FEA8E41A5A";
shapes = (
{
closed = 1;
nodes = (
(88,139,l),
(610,700,l),
(537,700,l),
(101,230,l)
);
},
{
closed = 1;
nodes = (
(52,0,l),
(112,0,l),
(210,700,l),
(150,700,l)
);
},
{
closed = 1;
nodes = (
(452,0,l),
(519,0,l),
(319,422,l),
(271,381,l)
);
}
);
width = 571;
}
);
metricLeft = H;
unicode = 75;
},
{
glyphname = L;
kernLeft = public.kern2.H;
kernRight = public.kern1.L;
layers = (
{
anchors = (
{
name = bottom;
pos = (246,0);
},
{
name = center;
pos = (205,380);
},
{
name = top;
pos = (250,700);
},
{
name = topright;
pos = (438,540);
}
);
guides = (
{
angle = 110.506;
pos = (484,450);
}
);
layerId = "3C3B4AE3-80BB-44A4-A3CD-A752C08638B1";
shapes = (
{
closed = 1;
nodes = (
(308,43,l),
(400,700,l),
(100,700,l),
(2,0,l),
(489,0,l),
(517,200,l),
(263,200,l)
);
}
);
width = 531;
},
{
anchors = (
{
name = bottom;
pos = (226,0);
},
{
name = center;
pos = (176,380);
},
{
name = top;
pos = (222,700);
},
{
name = topright;
pos = (367,540);
}
);
guides = (
{
angle = 110.794;
pos = (418,424);
}
);
layerId = "463395A0-2DFC-45D4-87AF-EBCF54FF53ED";
shapes = (
{
closed = 1;
nodes = (
(236,33,l),
(330,700,l),
(110,700,l),
(12,0,l),
(442,0,l),
(462,147,l),
(203,147,l)
);
}
);
width = 485;
},
{
anchors = (
{
name = bottom;
pos = (282,0);
},
{
name = center;
pos = (212,380);
},
{
name = top;
pos = (257,700);
},
{
name = topright;
pos = (461,540);
}
);
guides = (
{
angle = 117.474;
pos = (520,450);
}
);
layerId = "B66266A1-0CD1-42BF-9957-E58294B85305";
shapes = (
{
closed = 1;
nodes = (
(308,47,l),
(400,700,l),
(100,700,l),
(2,0,l),
(562,0,l),
(590,200,l),
(265,200,l)
);
}
);
width = 604;
},
{
anchors = (
{
name = bottom;
pos = (273,0);
},
{
name = center;
pos = (198,380);
},
{
name = top;
pos = (243,700);
},
{
name = topright;
pos = (421,540);
}
);
guides = (
{
angle = 116.865;
pos = (483,434);
}
);
layerId = "3B401755-81E4-40F3-BD5E-9424281583CA";
shapes = (
{
closed = 1;
nodes = (
(269,39,l),
(362,700,l),
(112,700,l),
(14,0,l),
(534,0,l),
(557,167,l),
(232,167,l)
);
}
);
width = 577;
},
{
anchors = (
{
name = bottom;
pos = (76,0);
},
{
name = center;
pos = (67,380);
},
{
name = top;
pos = (112,700);
},
{
name = topright;
pos = (154,540);
}
);
guides = (
{
angle = 100.102;
pos = (139,352);
}
);
layerId = "3D671699-C126-4AA5-A66F-47C26817AED2";
shapes = (
{
closed = 1;
nodes = (
(16,3,l),
(114,700,l),
(110,700,l),
(12,0,l),
(140,0,l),
(140,4,l),
(15,4,l)
);
}
);
width = 183;
},
{
anchors = (
{
name = bottom;
pos = (163,0);
},
{
name = center;
pos = (121,380);
},
{
name = top;
pos = (167,700);
},
{
name = topright;
pos = (271,540);
}
);
guides = (
{
angle = 106.878;
pos = (263,377);
}
);
layerId = "46E74328-601B-43A9-9281-7B741E5F83E4";
shapes = (
{
closed = 1;
nodes = (
(98,11,l),
(195,700,l),
(135,700,l),
(37,0,l),
(293,0,l),
(300,54,l),
(91,54,l)
);
}
);
width = 339;
},
{
anchors = (
{
name = bottom;
pos = (227,0);
},
{
name = center;
pos = (127,380);
},
{
name = top;
pos = (174,700);
},
{
name = topright;
pos = (314,540);
}
);
guides = (
{
angle = 114.895;
pos = (299,352);
}
);
layerId = "ECB9DAFA-B085-4474-A032-AB3BEA4F5B4C";
shapes = (
{
closed = 1;
nodes = (
(76,2,l),
(174,700,l),
(170,700,l),
(72,0,l),
(399,0,l),
(399,4,l),
(74,4,l)
);
}
);
width = 448;
},
{
anchors = (
{
name = bottom;
pos = (221,0);
},
{
name = center;
pos = (138,380);
},
{
name = top;
pos = (184,700);
},
{
name = topright;
pos = (332,540);
}
);
guides = (
{
angle = 114.028;
pos = (324,377);
}
);
layerId = "287B816B-C6D9-4D62-948A-F2FEA8E41A5A";
shapes = (
{
closed = 1;
nodes = (
(113,11,l),
(210,700,l),
(150,700,l),
(52,0,l),
(400,0,l),
(407,54,l),
(105,54,l)
);
}
);
width = 447;
}
);
unicode = 76;
},
{
glyphname = M;
kernLeft = public.kern2.H;
kernRight = public.kern1.H;
layers = (
{
anchors = (
{
name = bottom;
pos = (404,0);
},
{
name = top;
pos = (502,700);
}
);
guides = (
{
angle = 293.269;
pos = (485,700);
}
);
layerId = "3C3B4AE3-80BB-44A4-A3CD-A752C08638B1";
shapes = (
{
closed = 1;
nodes = (
(2,0,l),
(302,0,l),
(388,616,l),
(211,616,l),
(381,30,l),
(435,30,l),
(769,616,l),
(592,616,l),
(506,0,l),
(806,0,l),
(904,700,l),
(579,700,l),
(364,322,l),
(535,322,l),
(425,700,l),
(100,700,l)
);
}
);
width = 884;
},
{
anchors = (
{
name = bottom;
pos = (382,0);
},
{
name = top;
pos = (480,700);
}
);
layerId = "463395A0-2DFC-45D4-87AF-EBCF54FF53ED";
shapes = (
{
closed = 1;
nodes = (
(12,0,l),
(232,0,l),
(282,356,l),
(285,356,l),
(341,48,l),
(436,48,l),
(577,356,l),
(581,356,l),
(531,0,l),
(751,0,l),
(849,700,l),
(580,700,l),
(437,386,l),
(434,386,l),
(379,700,l),
(110,700,l)
);
}
);
width = 839;
},
{
anchors = (
{
name = bottom;
pos = (479,0);
},
{
name = top;
pos = (577,700);
}
);
guides = (
{
angle = 106.911;
pos = (358,320);
}
);
layerId = "B66266A1-0CD1-42BF-9957-E58294B85305";
shapes = (
{
closed = 1;
nodes = (
(2,0,l),
(302,0,l),
(347,320,l),
(351,320,l),
(398,30,l),
(568,30,l),
(697,320,l),
(701,320,l),
(656,0,l),
(956,0,l),
(1054,700,l),
(662,700,l),
(541,427,l),
(537,427,l),
(492,700,l),
(100,700,l)
);
}
);
width = 1034;
},
{
anchors = (
{
name = bottom;
pos = (446,0);
},
{
name = top;
pos = (544,700);
}
);
guides = (
{
angle = 107.384;
pos = (337,383);
}
);
layerId = "3B401755-81E4-40F3-BD5E-9424281583CA";
shapes = (
{
closed = 1;
nodes = (
(14,0,l),
(264,0,l),
(318,383,l),
(322,383,l),
(381,41,l),
(523,41,l),
(678,383,l),
(682,383,l),
(628,0,l),
(878,0,l),
(976,700,l),
(649,700,l),
(500,371,l),
(496,371,l),
(439,700,l),
(112,700,l)
);
}
);
width = 968;
},
{
anchors = (
{
name = bottom;
pos = (140,0);
},
{
name = top;
pos = (238,700);
}
);
layerId = "3D671699-C126-4AA5-A66F-47C26817AED2";
shapes = (
{
closed = 1;
nodes = (
(12,0,l),
(16,0,l),
(114,696,l),
(113,696,l),
(155,101,l),
(159,101,l),
(363,696,l),
(362,696,l),
(264,0,l),
(268,0,l),
(366,700,l),
(360,700,l),
(156,104,l),
(158,104,l),
(116,700,l),
(110,700,l)
);
}
);
width = 356;
},
{
anchors = (
{
name = bottom;
pos = (267,0);
},
{
name = top;
pos = (365,700);
}
);
layerId = "46E74328-601B-43A9-9281-7B741E5F83E4";
shapes = (
{
closed = 1;
nodes = (
(37,0,l),
(97,0,l),
(186,632,l),
(190,632,l),
(244,85,l),
(314,85,l),
(522,632,l),
(526,632,l),
(437,0,l),
(497,0,l),
(595,700,l),
(494,700,l),
(293,172,l),
(289,172,l),
(236,700,l),
(135,700,l)
);
}
);
width = 610;
},
{
anchors = (
{
name = bottom;
pos = (364,0);
},
{
name = top;
pos = (462,700);
}
);
layerId = "ECB9DAFA-B085-4474-A032-AB3BEA4F5B4C";
shapes = (
{
closed = 1;
nodes = (
(72,0,l),
(76,0,l),
(173,695,l),
(172,695,l),
(374,93,l),
(379,93,l),
(749,695,l),
(748,695,l),
(651,0,l),
(655,0,l),
(753,700,l),
(748,700,l),
(377,97,l),
(376,97,l),
(175,700,l),
(170,700,l)
);
}
);
width = 803;
},
{
anchors = (
{
name = bottom;
pos = (369,0);
},
{
name = top;
pos = (467,700);
}
);
layerId = "287B816B-C6D9-4D62-948A-F2FEA8E41A5A";
shapes = (
{
closed = 1;
nodes = (
(52,0,l),
(112,0,l),
(203,648,l),
(207,648,l),
(345,83,l),
(415,83,l),
(713,648,l),
(717,648,l),
(626,0,l),
(686,0,l),
(784,700,l),
(684,700,l),
(391,142,l),
(387,142,l),
(250,700,l),
(150,700,l)
);
}
);
width = 814;
}
);
unicode = 77;
},
{
glyphname = N;
kernLeft = public.kern2.H;
kernRight = public.kern1.H;
layers = (
{
anchors = (
{
name = bottom;
pos = (340,0);
},
{
name = top;
pos = (438,700);
}
);
guides = (
{
angle = 12.329;
pos = (330,218);
}
);
layerId = "3C3B4AE3-80BB-44A4-A3CD-A752C08638B1";
shapes = (
{
closed = 1;
nodes = (
(476,700,l),
(399,154,l),
(631,154,l),
(350,700,l),
(100,700,l),
(2,0,l),
(302,0,l),
(379,546,l),
(147,546,l),
(428,0,l),
(678,0,l),
(776,700,l)
);
}
);
width = 756;
},
{
anchors = (
{
name = bottom;
pos = (315,0);
},
{
name = top;
pos = (413,700);
}
);
layerId = "463395A0-2DFC-45D4-87AF-EBCF54FF53ED";
shapes = (
{
closed = 1;
nodes = (
(495,700,l),
(427,218,l),
(565,218,l),
(291,700,l),
(110,700,l),
(12,0,l),
(232,0,l),
(300,482,l),
(162,482,l),
(436,0,l),
(617,0,l),
(715,700,l)
);
}
);
width = 705;
},
{
anchors = (
{
name = bottom;
pos = (410,0);
},
{
name = top;
pos = (508,700);
}
);
guides = (
{
angle = 21.66;
pos = (409,350);
}
);
layerId = "B66266A1-0CD1-42BF-9957-E58294B85305";
shapes = (
{
closed = 1;
nodes = (
(616,700,l),
(577,422,l),
(573,422,l),
(439,700,l),
(100,700,l),
(2,0,l),
(302,0,l),
(341,278,l),
(345,278,l),
(479,0,l),
(818,0,l),
(916,700,l)
);
}
);
width = 896;
},
{
anchors = (
{
name = bottom;
pos = (392,0);
},
{
name = top;
pos = (490,700);
}
);
layerId = "3B401755-81E4-40F3-BD5E-9424281583CA";
shapes = (
{
closed = 1;
nodes = (
(619,700,l),
(574,380,l),
(570,380,l),
(384,700,l),
(112,700,l),
(14,0,l),
(264,0,l),
(309,320,l),
(313,320,l),
(499,0,l),
(771,0,l),
(869,700,l)
);
}
);
width = 861;
},
{
anchors = (
{
name = bottom;
pos = (99,0);
},
{
name = top;
pos = (197,700);
}
);
layerId = "3D671699-C126-4AA5-A66F-47C26817AED2";
shapes = (
{
closed = 1;
nodes = (
(280,700,l),
(184,13,l),
(185,16,l),
(113,700,l),
(110,700,l),
(12,0,l),
(16,0,l),
(113,689,l),
(111,686,l),
(183,0,l),
(186,0,l),
(284,700,l)
);
}
);
width = 274;
},
{
anchors = (
{
name = bottom;
pos = (215,0);
},
{
name = top;
pos = (313,700);
}
);
layerId = "46E74328-601B-43A9-9281-7B741E5F83E4";
shapes = (
{
closed = 1;
nodes = (
(434,700,l),
(355,133,l),
(351,133,l),
(208,700,l),
(135,700,l),
(37,0,l),
(97,0,l),
(176,567,l),
(180,567,l),
(323,0,l),
(396,0,l),
(494,700,l)
);
}
);
width = 509;
},
{
anchors = (
{
name = bottom;
pos = (309,0);
},
{
name = top;
pos = (407,700);
}
);
layerId = "ECB9DAFA-B085-4474-A032-AB3BEA4F5B4C";
shapes = (
{
closed = 1;
nodes = (
(639,700,l),
(541,4,l),
(543,4,l),
(174,700,l),
(170,700,l),
(72,0,l),
(76,0,l),
(174,696,l),
(172,696,l),
(541,0,l),
(545,0,l),
(643,700,l)
);
}
);
width = 693;
},
{
anchors = (
{
name = bottom;
pos = (307,0);
},
{
name = top;
pos = (405,700);
}
);
guides = (
{
angle = 30.433;
pos = (353,635);
},
{
angle = 30.433;
pos = (156,-65);
}
);
layerId = "287B816B-C6D9-4D62-948A-F2FEA8E41A5A";
shapes = (
{
closed = 1;
nodes = (
(599,700,l),
(513,86,l),
(509,86,l),
(229,700,l),
(150,700,l),
(52,0,l),
(112,0,l),
(198,614,l),
(202,614,l),
(482,0,l),
(561,0,l),
(659,700,l)
);
}
);
width = 689;
}
);
unicode = 78;
},
{
glyphname = Eng;
kernLeft = public.kern2.H;
kernRight = public.kern1.H;
layers = (
{
layerId = "3C3B4AE3-80BB-44A4-A3CD-A752C08638B1";
shapes = (
{
closed = 1;
nodes = (
(580,-195,o),
(658,-130,o),
(677,0,cs),
(776,700,l),
(476,700,l),
(449,508,l),
(350,700,l),
(100,700,l),
(2,0,l),
(302,0,l),
(328,192,l),
(388,76,l),
(382,30,ls),
(376,-10,o),
(363,-25,o),
(332,-25,cs),
(326,-25,o),
(319,-24,o),
(312,-22,c),
(291,-171,l),
(344,-187,o),
(402,-195,o),
(454,-195,cs)
);
}
);
width = 756;
},
{
layerId = "463395A0-2DFC-45D4-87AF-EBCF54FF53ED";
shapes = (
{
closed = 1;
nodes = (
(535,-194,o),
(599,-130,o),
(618,5,cs),
(715,700,l),
(495,700,l),
(454,412,l),
(291,700,l),
(110,700,l),
(12,0,l),
(232,0,l),
(273,288,l),
(405,55,l),
(398,9,ls),
(391,-45,o),
(368,-68,o),
(322,-68,cs),
(310,-68,o),
(298,-66,o),
(286,-62,c),
(271,-172,l),
(316,-186,o),
(367,-194,o),
(413,-194,cs)
);
}
);
width = 705;
},
{
layerId = "B66266A1-0CD1-42BF-9957-E58294B85305";
shapes = (
{
closed = 1;
nodes = (
(715,-195,o),
(799,-135,o),
(818,0,cs),
(916,700,l),
(616,700,l),
(583,467,l),
(439,700,l),
(100,700,l),
(2,0,l),
(301,0,l),
(341,284,l),
(511,10,l),
(510,0,ls),
(507,-16,o),
(485,-25,o),
(458,-25,cs),
(445,-25,o),
(437,-24,o),
(422,-22,c),
(401,-171,l),
(459,-187,o),
(521,-195,o),
(578,-195,cs)
);
}
);
width = 896;
},
{
layerId = "3B401755-81E4-40F3-BD5E-9424281583CA";
shapes = (
{
closed = 1;
nodes = (
(681,-195,o),
(754,-128,o),
(774,19,cs),
(869,700,l),
(619,700,l),
(578,410,l),
(384,700,l),
(112,700,l),
(14,0,l),
(264,0,l),
(309,325,l),
(520,10,l),
(519,0,ls),
(513,-37,o),
(480,-53,o),
(437,-53,cs),
(424,-53,o),
(409,-51,o),
(396,-48,c),
(378,-172,l),
(431,-187,o),
(489,-195,o),
(542,-195,cs)
);
}
);
width = 861;
},
{
layerId = "3D671699-C126-4AA5-A66F-47C26817AED2";
shapes = (
{
closed = 1;
nodes = (
(139,-185,o),
(165,-145,o),
(174,-83,cs),
(284,700,l),
(280,700,l),
(185,20,l),
(113,700,l),
(110,700,l),
(12,0,l),
(16,0,l),
(112,682,l),
(182,4,l),
(170,-83,ls),
(161,-150,o),
(131,-181,o),
(80,-181,cs),
(63,-181,o),
(43,-175,o),
(29,-167,c),
(28,-171,l),
(42,-179,o),
(62,-185,o),
(80,-185,cs)
);
}
);
width = 274;
},
{
layerId = "46E74328-601B-43A9-9281-7B741E5F83E4";
shapes = (
{
closed = 1;
nodes = (
(326,-185,o),
(377,-134,o),
(391,-36,cs),
(494,700,l),
(434,700,l),
(358,155,l),
(208,700,l),
(135,700,l),
(37,0,l),
(97,0,l),
(178,576,l),
(336,0,l),
(331,-36,ls),
(321,-107,o),
(294,-134,o),
(232,-134,cs),
(212,-134,o),
(190,-130,o),
(176,-123,c),
(163,-170,l),
(181,-179,o),
(212,-185,o),
(240,-185,cs)
);
}
);
width = 509;
},
{
layerId = "ECB9DAFA-B085-4474-A032-AB3BEA4F5B4C";
shapes = (
{
closed = 1;
nodes = (
(469,-185,o),
(527,-130,o),
(542,-20,cs),
(643,700,l),
(639,700,l),
(542,7,l),
(174,700,l),
(170,700,l),
(72,0,l),
(76,0,l),
(173,693,l),
(541,0,l),
(538,-20,ls),
(523,-128,o),
(466,-181,o),
(368,-181,cs),
(332,-181,o),
(294,-174,o),
(268,-163,c),
(266,-167,l),
(293,-178,o),
(332,-185,o),
(368,-185,cs)
);
}
);
width = 693;
},
{
layerId = "287B816B-C6D9-4D62-948A-F2FEA8E41A5A";
shapes = (
{
closed = 1;
nodes = (
(480,-185,o),
(543,-124,o),
(560,-8,c),
(659,700,l),
(599,700,l),
(516,110,l),
(229,700,l),
(150,700,l),
(52,0,l),
(112,0,l),
(199,620,l),
(501,0,l),
(500,-8,ls),
(487,-95,o),
(449,-132,o),
(373,-132,cs),
(351,-132,o),
(331,-129,o),
(308,-122,c),
(289,-173,l),
(317,-181,o),
(349,-185,o),
(374,-185,cs)
);
}
);
width = 689;
}
);
unicode = 330;
},
{
glyphname = O;
kernLeft = public.kern2.O;
kernRight = public.kern1.O;
lastChange = "2023-01-15 14:45:12 +0000";
layers = (
{
anchors = (
{
name = "#exit";
pos = (745,700);
},
{
name = bottom;
pos = (317,0);
},
{
name = center;
pos = (366,350);
},
{
name = ogonek;
pos = (399,10);
},
{
name = top;
pos = (415,700);
},
{
name = topleft;
pos = (127,700);
},
{
name = topright;
pos = (536,700);
}
);
layerId = "3C3B4AE3-80BB-44A4-A3CD-A752C08638B1";
shapes = (
{
closed = 1;
nodes = (
(518,-15,o),
(659,89,o),
(683,256,cs),
(709,444,ls),
(733,611,o),
(620,715,o),
(417,715,cs),
(213,715,o),
(73,611,o),
(49,444,cs),
(23,256,ls),
(-1,89,o),
(111,-15,o),
(315,-15,cs)
);
},
{
closed = 1;
nodes = (
(323,185,o),
(314,196,o),
(318,220,c),
(354,480,l),
(358,504,o),
(369,515,o),
(389,515,cs),
(409,515,o),
(418,504,o),
(414,480,c),
(378,220,l),
(374,196,o),
(363,185,o),
(343,185,cs)
);
}
);
width = 710;
},
{
anchors = (
{
name = "#exit";
pos = (700,700);
},
{
name = bottom;
pos = (300,0);
},
{
name = center;
pos = (349,350);
},
{
name = ogonek;
pos = (398,10);
},
{
name = top;
pos = (398,700);
},
{
name = topleft;
pos = (114,700);
},
{
name = topright;
pos = (500,697);
}
);
layerId = "463395A0-2DFC-45D4-87AF-EBCF54FF53ED";
shapes = (
{
closed = 1;
nodes = (
(487,-12,o),
(614,85,o),
(637,248,cs),
(665,452,ls),
(688,615,o),
(589,712,o),
(400,712,cs),
(212,712,o),
(85,615,o),
(62,452,cs),
(34,248,ls),
(11,85,o),
(110,-12,o),
(298,-12,cs)
);
},
{
closed = 1;
nodes = (
(265,135,o),
(242,167,o),
(251,232,cs),
(285,468,ls),
(294,533,o),
(325,565,o),
(379,565,cs),
(434,565,o),
(457,533,o),
(448,468,cs),
(414,232,ls),
(405,167,o),
(374,135,o),
(319,135,cs)
);
}
);
width = 676;
},
{
anchors = (
{
name = "#exit";
pos = (880,700);
},
{
name = bottom;
pos = (387,0);
},
{
name = center;
pos = (436,350);
},
{
name = ogonek;
pos = (462,10);
},
{
name = top;
pos = (485,700);
},
{
name = topleft;
pos = (95,700);
},
{
name = topright;
pos = (581,700);
}
);
layerId = "B66266A1-0CD1-42BF-9957-E58294B85305";
shapes = (
{
closed = 1;
nodes = (
(630,-15,o),
(796,101,o),
(822,286,cs),
(840,414,ls),
(866,599,o),
(732,715,o),
(487,715,cs),
(241,715,o),
(76,599,o),
(50,414,cs),
(32,286,ls),
(6,101,o),
(139,-15,o),
(385,-15,cs)
);
},
{
closed = 1;
nodes = (
(349,185,o),
(323,221,o),
(333,295,cs),
(349,405,ls),
(359,479,o),
(395,515,o),
(459,515,cs),
(523,515,o),
(549,479,o),
(539,405,cs),
(523,295,ls),
(513,221,o),
(477,185,o),
(413,185,cs)
);
}
);
width = 850;
},
{
anchors = (
{
name = "#exit";
pos = (848,700);
},
{
name = bottom;
pos = (376,0);
},
{
name = center;
pos = (425,350);
},
{
name = ogonek;
pos = (483,10);
},
{
name = top;
pos = (474,700);
},
{
name = topleft;
pos = (98,700);
},
{
name = topright;
pos = (572,698);
}
);
layerId = "3B401755-81E4-40F3-BD5E-9424281583CA";
shapes = (
{
closed = 1;
nodes = (
(608,-13,o),
(764,100,o),
(790,288,cs),
(808,412,ls),
(834,600,o),
(710,713,o),
(476,713,cs),
(242,713,o),
(86,600,o),
(60,412,cs),
(42,288,ls),
(16,100,o),
(140,-13,o),
(374,-13,cs)
);
},
{
closed = 1;
nodes = (
(314,154,o),
(280,200,o),
(293,296,c),
(309,404,l),
(322,500,o),
(370,546,o),
(453,546,cs),
(536,546,o),
(570,500,o),
(557,404,c),
(541,296,l),
(528,200,o),
(480,154,o),
(397,154,cs)
);
}
);
width = 827;
},
{
anchors = (
{
name = "#exit";
pos = (283,700);
},
{
name = bottom;
pos = (96,0);
},
{
name = center;
pos = (145,350);
},
{
name = ogonek;
pos = (145,10);
},
{
name = top;
pos = (194,700);
},
{
name = topleft;
pos = (99,700);
},
{
name = topright;
pos = (231,690);
}
);
layerId = "3D671699-C126-4AA5-A66F-47C26817AED2";
shapes = (
{
closed = 1;
nodes = (
(154,-5,o),
(190,37,o),
(202,122,cs),
(266,578,ls),
(278,664,o),
(254,705,o),
(195,705,cs),
(136,705,o),
(100,664,o),
(88,578,cs),
(24,122,ls),
(12,37,o),
(36,-5,o),
(95,-5,cs)
);
},
{
closed = 1;
nodes = (
(39,-1,o),
(16,40,o),
(28,122,cs),
(92,578,ls),
(104,661,o),
(137,701,o),
(194,701,cs),
(251,701,o),
(274,661,o),
(262,578,cs),
(198,122,ls),
(186,40,o),
(153,-1,o),
(96,-1,cs)
);
}
);
width = 268;
},
{
anchors = (
{
name = "#exit";
pos = (498,700);
},
{
name = bottom;
pos = (211,0);
},
{
name = center;
pos = (260,350);
},
{
name = ogonek;
pos = (324,10);
},
{
name = top;
pos = (309,700);
},
{
name = topleft;
pos = (112,700);
},
{
name = topright;
pos = (379,692);
}
);
layerId = "46E74328-601B-43A9-9281-7B741E5F83E4";
shapes = (
{
closed = 1;
nodes = (
(332,-7,o),
(409,65,o),
(428,198,cs),
(470,502,ls),
(489,635,o),
(432,707,o),
(310,707,cs),
(187,707,o),
(111,635,o),
(92,502,cs),
(50,198,ls),
(31,65,o),
(87,-7,o),
(210,-7,cs)
);
},
{
closed = 1;
nodes = (
(129,47,o),
(95,95,o),
(110,198,c),
(152,502,ls),
(166,602,o),
(217,653,o),
(303,653,cs),
(389,653,o),
(425,603,o),
(410,502,c),
(368,198,ls),
(353,94,o),
(306,47,o),
(217,47,cs)
);
}
);
width = 497;
},
{
anchors = (
{
name = "#exit";
pos = (690,700);
},
{
name = bottom;
pos = (321,0);
},
{
name = center;
pos = (370,350);
},
{
name = ogonek;
pos = (588,10);
},
{
name = top;
pos = (419,700);
},
{
name = topleft;
pos = (115,700);
},
{
name = topright;
pos = (529,690);
}
);
layerId = "ECB9DAFA-B085-4474-A032-AB3BEA4F5B4C";
shapes = (
{
closed = 1;
nodes = (
(499,-5,o),
(606,98,o),
(634,299,cs),
(648,401,ls),
(676,602,o),
(599,705,o),
(421,705,cs),
(243,705,o),
(136,602,o),
(108,401,cs),
(94,299,ls),
(66,98,o),
(143,-5,o),
(321,-5,cs)
);
},
{
closed = 1;
nodes = (
(147,-1,o),
(70,99,o),
(98,299,cs),
(112,401,ls),
(140,601,o),
(245,701,o),
(420,701,cs),
(595,701,o),
(672,601,o),
(644,401,cs),
(630,299,ls),
(602,99,o),
(497,-1,o),
(322,-1,cs)
);
}
);
width = 720;
},
{
anchors = (
{
name = "#exit";
pos = (679,700);
},
{
name = bottom;
pos = (309,0);
},
{
name = center;
pos = (358,350);
},
{
name = ogonek;
pos = (497,10);
},
{
name = top;
pos = (407,700);
},
{
name = topleft;
pos = (105,700);
},
{
name = topright;
pos = (495,692);
}
);
layerId = "287B816B-C6D9-4D62-948A-F2FEA8E41A5A";
shapes = (
{
closed = 1;
nodes = (
(485,-7,o),
(593,89,o),
(619,270,cs),
(641,430,ls),
(667,611,o),
(585,707,o),
(408,707,cs),
(232,707,o),
(123,611,o),
(97,430,cs),
(75,270,ls),
(49,89,o),
(132,-7,o),
(308,-7,cs)
);
},
{
closed = 1;
nodes = (
(174,47,o),
(114,124,o),
(137,283,c),
(155,417,l),
(178,575,o),
(260,653,o),
(401,653,cs),
(542,653,o),
(602,576,o),
(579,417,c),
(561,283,l),
(538,124,o),
(457,47,o),
(315,47,cs)
);
}
);
width = 694;
}
);
metricRight = "=|";
unicode = 79;
},
{
glyphname = P;
kernLeft = public.kern2.H;
kernRight = public.kern1.P;
layers = (
{
layerId = "3C3B4AE3-80BB-44A4-A3CD-A752C08638B1";
shapes = (
{
closed = 1;
nodes = (
(2,0,l),
(302,0,l),
(381,563,l),
(305,500,l),
(389,500,ls),
(416,500,o),
(426,480,o),
(420,437,cs),
(419,425,l),
(412,382,o),
(397,362,o),
(370,362,cs),
(342,362,l),
(314,162,l),
(396,162,ls),
(573,162,o),
(683,243,o),
(703,389,c),
(715,468,l),
(735,616,o),
(647,700,o),
(471,700,cs),
(100,700,l)
);
}
);
width = 699;
},
{
layerId = "463395A0-2DFC-45D4-87AF-EBCF54FF53ED";
shapes = (
{
closed = 1;
nodes = (
(12,0,l),
(232,0,l),
(316,599,l),
(261,553,l),
(356,553,ls),
(408,553,o),
(427,523,o),
(418,459,cs),
(415,432,l),
(406,369,o),
(376,339,o),
(325,339,cs),
(270,339,l),
(250,192,l),
(348,192,ls),
(507,192,o),
(604,267,o),
(624,406,cs),
(634,481,ls),
(654,623,o),
(578,700,o),
(419,700,cs),
(110,700,l)
);
}
);
width = 620;
},
{
layerId = "B66266A1-0CD1-42BF-9957-E58294B85305";
shapes = (
{
closed = 1;
nodes = (
(2,0,l),
(302,0,l),
(381,563,l),
(305,500,l),
(419,500,ls),
(466,500,o),
(486,480,o),
(480,437,cs),
(479,425,l),
(472,382,o),
(447,362,o),
(400,362,cs),
(342,362,l),
(314,162,l),
(441,162,ls),
(628,162,o),
(743,243,o),
(763,389,c),
(775,468,l),
(795,616,o),
(702,700,o),
(516,700,cs),
(100,700,l)
);
}
);
width = 759;
},
{
layerId = "3B401755-81E4-40F3-BD5E-9424281583CA";
shapes = (
{
closed = 1;
nodes = (
(14,0,l),
(264,0,l),
(346,586,l),
(283,533,l),
(407,533,ls),
(471,533,o),
(498,505,o),
(489,446,c),
(488,434,ls),
(480,376,o),
(444,348,o),
(381,348,cs),
(303,348,l),
(279,181,l),
(415,181,ls),
(595,181,o),
(705,260,o),
(726,404,c),
(735,472,ls),
(756,619,o),
(667,700,o),
(488,700,cs),
(112,700,l)
);
}
);
width = 723;
},
{
layerId = "3D671699-C126-4AA5-A66F-47C26817AED2";
shapes = (
{
closed = 1;
nodes = (
(12,0,l),
(16,0,l),
(114,697,l),
(113,696,l),
(156,696,ls),
(220,696,o),
(242,648,o),
(227,539,cs),
(211,430,l),
(197,326,o),
(160,278,o),
(97,278,cs),
(54,278,l),
(53,274,l),
(96,274,ls),
(162,274,o),
(200,324,o),
(215,430,cs),
(231,539,l),
(246,650,o),
(223,700,o),
(156,700,cs),
(110,700,l)
);
}
);
width = 208;
},
{
layerId = "46E74328-601B-43A9-9281-7B741E5F83E4";
shapes = (
{
closed = 1;
nodes = (
(37,0,l),
(97,0,l),
(190,662,l),
(175,650,l),
(264,650,ls),
(347,650,o),
(376,608,o),
(363,512,cs),
(352,436,ls),
(339,343,o),
(296,303,o),
(215,303,cs),
(136,303,l),
(129,253,l),
(220,253,ls),
(330,253,o),
(394,315,o),
(411,436,cs),
(422,512,ls),
(439,638,o),
(394,700,o),
(283,700,cs),
(135,700,l)
);
}
);
width = 411;
},
{
guides = (
{
angle = 135.338;
pos = (509,274);
}
);
layerId = "ECB9DAFA-B085-4474-A032-AB3BEA4F5B4C";
shapes = (
{
closed = 1;
nodes = (
(72,0,l),
(76,0,l),
(174,698,l),
(172,696,l),
(348,696,ls),
(494,696,o),
(554,629,o),
(535,489,c),
(533,480,l),
(515,347,o),
(431,278,o),
(289,278,cs),
(113,278,l),
(112,274,l),
(288,274,ls),
(433,274,o),
(518,345,o),
(537,480,c),
(539,489,l),
(558,631,o),
(496,700,o),
(348,700,cs),
(170,700,l)
);
}
);
width = 541;
},
{
layerId = "287B816B-C6D9-4D62-948A-F2FEA8E41A5A";
shapes = (
{
closed = 1;
nodes = (
(52,0,l),
(112,0,l),
(206,668,l),
(189,650,l),
(335,650,ls),
(454,650,o),
(498,604,o),
(482,494,cs),
(476,453,ls),
(462,351,o),
(405,304,o),
(287,304,cs),
(151,304,l),
(144,254,l),
(296,254,ls),
(436,254,o),
(518,322,o),
(536,453,cs),
(542,494,ls),
(561,631,o),
(500,700,o),
(358,700,cs),
(150,700,l)
);
}
);
width = 538;
}
);
metricLeft = H;
unicode = 80;
},
{
glyphname = Thorn;
kernLeft = public.kern2.H;
kernRight = public.kern1.Thorn;
layers = (
{
layerId = "3C3B4AE3-80BB-44A4-A3CD-A752C08638B1";
shapes = (
{
closed = 1;
nodes = (
(2,0,l),
(302,0,l),
(370,482,l),
(294,419,l),
(378,419,ls),
(405,419,o),
(415,399,o),
(409,356,cs),
(407,344,ls),
(401,301,o),
(385,281,o),
(358,281,cs),
(330,281,l),
(302,81,l),
(384,81,ls),
(561,81,o),
(672,162,o),
(692,308,cs),
(703,387,ls),
(724,535,o),
(636,619,o),
(460,619,cs),
(389,619,l),
(400,700,l),
(100,700,l)
);
}
);
width = 699;
},
{
layerId = "463395A0-2DFC-45D4-87AF-EBCF54FF53ED";
shapes = (
{
closed = 1;
nodes = (
(12,0,l),
(232,0,l),
(303,503,l),
(247,457,l),
(342,457,ls),
(394,457,o),
(414,427,o),
(405,363,cs),
(401,336,ls),
(392,273,o),
(363,243,o),
(312,243,cs),
(257,243,l),
(236,96,l),
(334,96,ls),
(493,96,o),
(591,171,o),
(610,310,cs),
(621,385,ls),
(641,527,o),
(565,604,o),
(406,604,cs),
(317,604,l),
(330,700,l),
(110,700,l)
);
}
);
width = 620;
},
{
layerId = "B66266A1-0CD1-42BF-9957-E58294B85305";
shapes = (
{
closed = 1;
nodes = (
(2,0,l),
(302,0,l),
(370,482,l),
(294,419,l),
(408,419,ls),
(455,419,o),
(475,399,o),
(469,356,cs),
(467,344,ls),
(461,301,o),
(435,281,o),
(388,281,cs),
(330,281,l),
(302,81,l),
(429,81,ls),
(616,81,o),
(732,162,o),
(752,308,cs),
(763,387,ls),
(784,535,o),
(691,619,o),
(505,619,cs),
(389,619,l),
(400,700,l),
(100,700,l)
);
}
);
width = 759;
},
{
layerId = "3B401755-81E4-40F3-BD5E-9424281583CA";
shapes = (
{
closed = 1;
nodes = (
(14,0,l),
(264,0,l),
(334,496,l),
(270,443,l),
(394,443,ls),
(458,443,o),
(485,415,o),
(477,356,cs),
(475,344,ls),
(467,286,o),
(431,258,o),
(368,258,cs),
(290,258,l),
(267,91,l),
(403,91,ls),
(583,91,o),
(693,170,o),
(713,314,cs),
(722,382,ls),
(743,529,o),
(655,610,o),
(476,610,cs),
(350,610,l),
(362,700,l),
(112,700,l)
);
}
);
width = 723;
},
{
layerId = "3D671699-C126-4AA5-A66F-47C26817AED2";
shapes = (
{
closed = 1;
nodes = (
(12,0,l),
(16,0,l),
(95,560,l),
(93,559,l),
(136,559,ls),
(200,559,o),
(223,511,o),
(207,402,cs),
(192,293,ls),
(177,189,o),
(141,141,o),
(78,141,cs),
(35,141,l),
(34,137,l),
(77,137,ls),
(143,137,o),
(181,187,o),
(196,293,cs),
(211,402,ls),
(227,513,o),
(204,563,o),
(137,563,cs),
(95,563,l),
(114,700,l),
(110,700,l)
);
}
);
width = 208;
},
{
layerId = "46E74328-601B-43A9-9281-7B741E5F83E4";
shapes = (
{
closed = 1;
nodes = (
(37,0,l),
(97,0,l),
(172,536,l),
(157,524,l),
(246,524,ls),
(329,524,o),
(359,482,o),
(345,386,cs),
(334,310,ls),
(321,217,o),
(279,177,o),
(198,177,cs),
(119,177,l),
(112,127,l),
(203,127,ls),
(313,127,o),
(376,189,o),
(393,310,cs),
(404,386,ls),
(422,512,o),
(376,574,o),
(265,574,cs),
(177,574,l),
(195,700,l),
(135,700,l)
);
}
);
width = 411;
},
{
guides = (
{
angle = 135.338;
pos = (509,274);
}
);
layerId = "ECB9DAFA-B085-4474-A032-AB3BEA4F5B4C";
shapes = (
{
closed = 1;
nodes = (
(72,0,l),
(76,0,l),
(155,561,l),
(152,559,l),
(328,559,ls),
(474,559,o),
(535,492,o),
(515,352,cs),
(514,343,ls),
(495,210,o),
(412,141,o),
(270,141,cs),
(94,141,l),
(93,137,l),
(269,137,ls),
(414,137,o),
(499,208,o),
(518,343,cs),
(519,352,ls),
(539,494,o),
(477,563,o),
(329,563,cs),
(155,563,l),
(174,700,l),
(170,700,l)
);
}
);
width = 541;
},
{
layerId = "287B816B-C6D9-4D62-948A-F2FEA8E41A5A";
shapes = (
{
closed = 1;
nodes = (
(52,0,l),
(112,0,l),
(188,541,l),
(171,523,l),
(317,523,ls),
(436,523,o),
(480,477,o),
(464,367,c),
(459,326,l),
(444,224,o),
(387,177,o),
(269,177,cs),
(133,177,l),
(126,127,l),
(278,127,ls),
(418,127,o),
(500,195,o),
(519,326,c),
(524,367,l),
(544,504,o),
(482,573,o),
(340,573,cs),
(192,573,l),
(210,700,l),
(150,700,l)
);
}
);
width = 538;
}
);
metricLeft = H;
unicode = 222;
},
{
glyphname = Q;
kernLeft = public.kern2.O;
kernRight = public.kern1.O;
layers = (
{
layerId = "3C3B4AE3-80BB-44A4-A3CD-A752C08638B1";
shapes = (
{
closed = 1;
nodes = (
(684,-109,l),
(710,93,l),
(315,163,l),
(224,2,l)
);
},
{
alignment = -1;
ref = O;
}
);
width = 710;
},
{
layerId = "463395A0-2DFC-45D4-87AF-EBCF54FF53ED";
shapes = (
{
closed = 1;
nodes = (
(642,-93,l),
(661,55,l),
(294,119,l),
(227,1,l)
);
},
{
alignment = -1;
ref = O;
}
);
width = 676;
},
{
layerId = "B66266A1-0CD1-42BF-9957-E58294B85305";
shapes = (
{
closed = 1;
nodes = (
(804,-109,l),
(830,93,l),
(367,161,l),
(276,0,l)
);
},
{
alignment = -1;
ref = O;
}
);
width = 850;
},
{
layerId = "3B401755-81E4-40F3-BD5E-9424281583CA";
shapes = (
{
closed = 1;
nodes = (
(781,-100,l),
(802,69,l),
(357,134,l),
(281,0,l)
);
},
{
alignment = -1;
ref = O;
}
);
width = 829;
},
{
layerId = "3D671699-C126-4AA5-A66F-47C26817AED2";
shapes = (
{
closed = 1;
nodes = (
(236,-45,l),
(236,-41,l),
(100,3,l),
(102,-1,l)
);
},
{
alignment = -1;
ref = O;
}
);
width = 258;
},
{
layerId = "46E74328-601B-43A9-9281-7B741E5F83E4";
shapes = (
{
closed = 1;
nodes = (
(448,-61,l),
(453,-12,l),
(210,33,l),
(192,-1,l)
);
},
{
alignment = -1;
ref = O;
}
);
width = 498;
},
{
layerId = "ECB9DAFA-B085-4474-A032-AB3BEA4F5B4C";
shapes = (
{
closed = 1;
nodes = (
(667,-57,l),
(667,-52,l),
(310,2,l),
(305,-1,l)
);
},
{
alignment = -1;
ref = O;
}
);
width = 723;
},
{
layerId = "287B816B-C6D9-4D62-948A-F2FEA8E41A5A";
shapes = (
{
closed = 1;
nodes = (
(636,-65,l),
(641,-16,l),
(296,31,l),
(270,0,l)
);
},
{
alignment = -1;
ref = O;
}
);
width = 693;
}
);
unicode = 81;
},
{
glyphname = R;
kernLeft = public.kern2.H;
kernRight = public.kern1.R;
layers = (
{
anchors = (
{
name = bottom;
pos = (333,0);
},
{
name = top;
pos = (431,700);
}
);
guides = (
{
angle = 91.664;
pos = (416,241);
}
);
layerId = "3C3B4AE3-80BB-44A4-A3CD-A752C08638B1";
shapes = (
{
closed = 1;
nodes = (
(2,0,l),
(302,0,l),
(381,563,l),
(305,500,l),
(396,500,ls),
(425,500,o),
(437,484,o),
(432,451,cs),
(431,441,ls),
(426,408,o),
(410,392,o),
(381,392,cs),
(346,392,l),
(318,192,l),
(425,192,ls),
(599,192,o),
(706,268,o),
(726,406,cs),
(736,481,ls),
(756,621,o),
(669,700,o),
(496,700,cs),
(100,700,l)
);
},
{
closed = 1;
nodes = (
(377,0,l),
(683,0,l),
(609,246,l),
(311,246,l)
);
}
);
width = 741;
},
{
anchors = (
{
name = bottom;
pos = (293,0);
},
{
name = top;
pos = (386,700);
}
);
layerId = "463395A0-2DFC-45D4-87AF-EBCF54FF53ED";
shapes = (
{
closed = 1;
nodes = (
(12,0,l),
(232,0,l),
(316,599,l),
(261,553,l),
(363,553,ls),
(414,553,o),
(435,526,o),
(427,469,cs),
(424,447,ls),
(416,391,o),
(387,365,o),
(336,365,cs),
(274,365,l),
(253,218,l),
(371,218,ls),
(525,218,o),
(619,289,o),
(638,421,cs),
(648,491,ls),
(667,627,o),
(592,700,o),
(439,700,cs),
(110,700,l)
);
},
{
closed = 1;
nodes = (
(367,0,l),
(591,0,l),
(521,259,l),
(302,259,l)
);
}
);
width = 654;
},
{
anchors = (
{
name = bottom;
pos = (346,0);
},
{
name = top;
pos = (444,700);
}
);
guides = (
{
angle = 91.664;
pos = (586,482);
},
{
angle = 271.548;
pos = (387,588);
},
{
angle = 91.664;
pos = (806,481);
}
);
layerId = "B66266A1-0CD1-42BF-9957-E58294B85305";
shapes = (
{
closed = 1;
nodes = (
(2,0,l),
(302,0,l),
(381,563,l),
(305,500,l),
(419,500,ls),
(466,500,o),
(487,484,o),
(482,451,cs),
(481,441,ls),
(476,408,o),
(451,392,o),
(404,392,cs),
(346,392,l),
(318,192,l),
(465,192,ls),
(639,192,o),
(746,268,o),
(766,406,cs),
(776,481,ls),
(796,621,o),
(709,700,o),
(536,700,cs),
(100,700,l)
);
},
{
closed = 1;
nodes = (
(417,0,l),
(723,0,l),
(649,246,l),
(351,246,l)
);
}
);
width = 781;
},
{
anchors = (
{
name = bottom;
pos = (335,0);
},
{
name = top;
pos = (429,700);
}
);
layerId = "3B401755-81E4-40F3-BD5E-9424281583CA";
shapes = (
{
closed = 1;
nodes = (
(14,0,l),
(264,0,l),
(346,586,l),
(283,533,l),
(411,533,ls),
(474,533,o),
(500,509,o),
(493,458,cs),
(492,448,ls),
(485,399,o),
(450,374,o),
(388,374,cs),
(306,374,l),
(283,208,l),
(439,208,ls),
(607,208,o),
(710,282,o),
(730,419,cs),
(739,483,ls),
(758,623,o),
(676,700,o),
(508,700,cs),
(112,700,l)
);
},
{
closed = 1;
nodes = (
(429,0,l),
(684,0,l),
(606,254,l),
(358,254,l)
);
}
);
width = 748;
},
{
anchors = (
{
name = bottom;
pos = (86,0);
},
{
name = top;
pos = (176,700);
}
);
guides = (
{
angle = 91.664;
pos = (594,524);
}
);
layerId = "3D671699-C126-4AA5-A66F-47C26817AED2";
shapes = (
{
closed = 1;
nodes = (
(12,0,l),
(16,0,l),
(114,697,l),
(113,696,l),
(156,696,ls),
(220,696,o),
(242,648,o),
(227,539,cs),
(213,445,l),
(199,341,o),
(162,293,o),
(99,293,cs),
(56,293,l),
(55,289,l),
(98,289,ls),
(164,289,o),
(202,339,o),
(217,445,cs),
(231,539,l),
(246,650,o),
(223,700,o),
(156,700,cs),
(110,700,l)
);
},
{
closed = 1;
nodes = (
(157,0,l),
(161,0,l),
(137,297,l),
(133,297,l)
);
}
);
width = 229;
},
{
anchors = (
{
name = bottom;
pos = (198,0);
},
{
name = top;
pos = (285,700);
}
);
layerId = "46E74328-601B-43A9-9281-7B741E5F83E4";
shapes = (
{
closed = 1;
nodes = (
(37,0,l),
(97,0,l),
(191,672,l),
(175,650,l),
(270,650,ls),
(350,650,o),
(381,608,o),
(368,516,cs),
(359,448,ls),
(347,361,o),
(303,320,o),
(224,320,cs),
(139,320,l),
(132,270,l),
(232,270,ls),
(340,270,o),
(402,329,o),
(419,448,cs),
(428,516,ls),
(446,640,o),
(401,700,o),
(292,700,cs),
(135,700,l)
);
},
{
closed = 1;
nodes = (
(304,0,l),
(364,0,l),
(309,286,l),
(249,286,l)
);
}
);
width = 440;
},
{
anchors = (
{
name = bottom;
pos = (282,0);
},
{
name = top;
pos = (354,700);
}
);
guides = (
{
angle = 91.664;
pos = (579,484);
},
{
angle = 271.548;
pos = (391,663);
},
{
angle = 224.538;
pos = (640,700);
}
);
layerId = "ECB9DAFA-B085-4474-A032-AB3BEA4F5B4C";
shapes = (
{
closed = 1;
nodes = (
(72,0,l),
(76,0,l),
(174,698,l),
(172,696,l),
(370,696,ls),
(511,696,o),
(567,632,o),
(547,494,cs),
(546,485,ls),
(527,353,o),
(450,288,o),
(312,288,cs),
(114,288,l),
(114,284,l),
(312,284,ls),
(452,284,o),
(531,351,o),
(550,485,cs),
(551,494,ls),
(571,634,o),
(513,700,o),
(370,700,cs),
(170,700,l)
);
},
{
closed = 1;
nodes = (
(490,0,l),
(495,0,l),
(389,294,l),
(385,293,l)
);
}
);
width = 588;
},
{
anchors = (
{
name = bottom;
pos = (265,0);
},
{
name = top;
pos = (346,700);
}
);
layerId = "287B816B-C6D9-4D62-948A-F2FEA8E41A5A";
shapes = (
{
closed = 1;
nodes = (
(52,0,l),
(112,0,l),
(206,673,l),
(189,650,l),
(346,650,ls),
(461,650,o),
(506,605,o),
(491,500,cs),
(486,463,ls),
(472,364,o),
(413,318,o),
(300,318,cs),
(153,318,l),
(145,268,l),
(312,268,ls),
(446,268,o),
(524,334,o),
(542,463,cs),
(547,500,ls),
(566,634,o),
(509,700,o),
(373,700,cs),
(150,700,l)
);
},
{
closed = 1;
nodes = (
(426,0,l),
(488,0,l),
(404,285,l),
(343,285,l)
);
}
);
width = 571;
}
);
metricLeft = H;
unicode = 82;
},
{
color = 1;
glyphname = S;
kernLeft = public.kern2.S;
kernRight = public.kern1.S;
lastChange = "2023-01-15 14:45:12 +0000";
layers = (
{
anchors = (
{
name = bottom;
pos = (309,0);
},
{
name = top;
pos = (407,700);
}
);
guides = (
{
angle = 165.051;
pos = (303,265);
}
);
layerId = "3C3B4AE3-80BB-44A4-A3CD-A752C08638B1";
shapes = (
{
closed = 1;
nodes = (
(512,-10,o),
(636,66,o),
(657,215,cs),
(692,467,o),
(347,411,o),
(357,488,c),
(360,504,o),
(375,515,o),
(389,515,cs),
(410,515,o),
(422,498,o),
(419,465,c),
(702,485,l),
(704,647,o),
(616,715,o),
(412,715,cs),
(213,715,o),
(79,635,o),
(58,487,cs),
(24,244,o),
(370,300,o),
(358,216,cs),
(356,200,o),
(342,190,o),
(327,190,cs),
(305,190,o),
(297,210,o),
(297,246,c),
(16,234,l),
(17,71,o),
(97,-10,o),
(294,-10,cs)
);
}
);
width = 693;
},
{
anchors = (
{
name = bottom;
pos = (277,0);
},
{
name = top;
pos = (376,700);
}
);
guides = (
{
angle = 343.791;
pos = (296,266);
},
{
angle = 215.676;
pos = (376,308);
}
);
layerId = "463395A0-2DFC-45D4-87AF-EBCF54FF53ED";
shapes = (
{
closed = 1;
nodes = (
(457,-9,o),
(570,63,o),
(589,198,cs),
(628,476,o),
(285,397,o),
(301,512,cs),
(306,547,o),
(332,568,o),
(368,568,cs),
(411,568,o),
(430,540,o),
(426,483,c),
(638,498,l),
(643,646,o),
(563,712,o),
(382,712,cs),
(199,712,o),
(85,637,o),
(66,505,cs),
(27,229,o),
(370,308,o),
(354,192,cs),
(349,156,o),
(324,136,o),
(286,136,cs),
(243,136,o),
(225,166,o),
(227,228,c),
(16,220,l),
(13,62,o),
(91,-9,o),
(266,-9,cs)
);
}
);
width = 629;
},
{
anchors = (
{
name = bottom;
pos = (369,0);
},
{
name = top;
pos = (467,700);
}
);
guides = (
{
angle = 278.13;
pos = (17,238);
},
{
angle = 348.486;
pos = (586,425);
},
{
angle = 209.358;
pos = (467,305);
}
);
layerId = "B66266A1-0CD1-42BF-9957-E58294B85305";
shapes = (
{
closed = 1;
nodes = (
(599,-10,o),
(750,72,o),
(770,217,cs),
(808,485,o),
(375,400,o),
(388,494,cs),
(391,513,o),
(414,525,o),
(448,525,cs),
(493,525,o),
(515,505,o),
(513,465,c),
(817,485,l),
(822,639,o),
(710,715,o),
(481,715,cs),
(240,715,o),
(88,632,o),
(68,489,cs),
(31,226,o),
(463,304,o),
(450,212,cs),
(447,191,o),
(427,180,o),
(394,180,cs),
(350,180,o),
(324,205,o),
(322,246,c),
(21,234,l),
(19,64,o),
(120,-10,o),
(354,-10,cs)
);
}
);
width = 813;
},
{
anchors = (
{
name = bottom;
pos = (343,-1);
},
{
name = top;
pos = (442,700);
}
);
layerId = "3B401755-81E4-40F3-BD5E-9424281583CA";
shapes = (
{
closed = 1;
nodes = (
(558,-9,o),
(700,72,o),
(720,211,cs),
(758,485,o),
(331,393,o),
(347,502,cs),
(351,534,o),
(382,555,o),
(425,555,cs),
(487,555,o),
(516,528,o),
(514,475,c),
(767,492,l),
(772,640,o),
(668,713,o),
(453,713,cs),
(230,713,o),
(88,634,o),
(69,498,cs),
(30,217,o),
(456,308,o),
(442,203,cs),
(437,169,o),
(408,149,o),
(364,149,cs),
(304,149,o),
(271,182,o),
(271,239,c),
(19,229,l),
(16,64,o),
(112,-9,o),
(332,-9,cs)
);
}
);
width = 761;
},
{
anchors = (
{
name = bottom;
pos = (77,-2);
},
{
name = top;
pos = (179,700);
}
);
guides = (
{
angle = 332.403;
pos = (334,375);
}
);
layerId = "3D671699-C126-4AA5-A66F-47C26817AED2";
shapes = (
{
closed = 1;
nodes = (
(136,-5,o),
(168,39,o),
(182,139,cs),
(211,348,o),
(52,357,o),
(81,561,cs),
(95,658,o),
(126,701,o),
(182,701,cs),
(237,701,o),
(254,653,o),
(241,540,c),
(245,540,l),
(259,656,o),
(239,705,o),
(182,705,cs),
(123,705,o),
(91,661,o),
(77,561,cs),
(48,356,o),
(207,347,o),
(178,139,cs),
(164,41,o),
(134,-1,o),
(77,-1,cs),
(23,-1,o),
(5,48,o),
(18,160,c),
(14,160,l),
(0,44,o),
(20,-5,o),
(77,-5,cs)
);
}
);
width = 236;
},
{
anchors = (
{
name = bottom;
pos = (178,0);
},
{
name = top;
pos = (275,700);
}
);
guides = (
{
angle = 89.063;
pos = (356,159);
},
{
angle = 35.628;
pos = (424,401);
}
);
layerId = "46E74328-601B-43A9-9281-7B741E5F83E4";
shapes = (
{
closed = 1;
nodes = (
(287,-7,o),
(357,59,o),
(374,179,cs),
(406,405,o),
(122,357,o),
(148,542,cs),
(159,615,o),
(199,653,o),
(268,653,cs),
(343,653,o),
(373,612,o),
(365,521,c),
(424,526,l),
(434,649,o),
(388,707,o),
(276,707,cs),
(168,707,o),
(104,651,o),
(88,542,c),
(56,310,o),
(340,359,o),
(314,178,cs),
(302,94,o),
(256,47,o),
(183,47,cs),
(107,47,o),
(78,89,o),
(85,188,c),
(26,187,l),
(17,52,o),
(63,-7,o),
(175,-7,cs)
);
}
);
width = 426;
},
{
anchors = (
{
name = bottom;
pos = (259,-2);
},
{
name = top;
pos = (355,700);
}
);
guides = (
{
angle = 166.316;
pos = (372,329);
}
);
layerId = "ECB9DAFA-B085-4474-A032-AB3BEA4F5B4C";
shapes = (
{
closed = 1;
nodes = (
(394,-5,o),
(492,60,o),
(506,159,cs),
(541,407,o),
(87,285,o),
(123,540,cs),
(137,640,o),
(224,701,o),
(355,701,cs),
(499,701,o),
(563,644,o),
(556,524,c),
(561,525,l),
(570,646,o),
(502,705,o),
(356,705,cs),
(223,705,o),
(133,642,o),
(119,540,cs),
(82,281,o),
(536,403,o),
(502,159,cs),
(489,62,o),
(393,-1,o),
(259,-1,cs),
(116,-1,o),
(48,67,o),
(54,206,c),
(50,206,l),
(43,64,o),
(111,-5,o),
(258,-5,cs)
);
}
);
width = 584;
},
{
anchors = (
{
name = bottom;
pos = (257,-2);
},
{
name = top;
pos = (354,700);
}
);
guides = (
{
angle = 82;
pos = (255,-7);
},
{
angle = 193.608;
pos = (323,352);
}
);
layerId = "287B816B-C6D9-4D62-948A-F2FEA8E41A5A";
shapes = (
{
closed = 1;
nodes = (
(402,-7,o),
(504,65,o),
(520,178,cs),
(559,456,o),
(131,310,o),
(162,530,cs),
(173,608,o),
(242,653,o),
(347,653,cs),
(460,653,o),
(510,609,o),
(505,516,c),
(570,521,l),
(579,644,o),
(506,707,o),
(354,707,cs),
(210,707,o),
(118,642,o),
(102,530,cs),
(63,248,o),
(490,394,o),
(460,178,cs),
(448,97,o),
(374,47,o),
(265,47,cs),
(153,47,o),
(100,98,o),
(103,205,c),
(39,202,l),
(31,59,o),
(100,-7,o),
(258,-7,cs)
);
}
);
width = 584;
}
);
metricRight = "=|";
unicode = 83;
},
{
glyphname = T;
kernLeft = public.kern2.T;
kernRight = public.kern1.T;
layers = (
{
anchors = (
{
name = bottom;
pos = (244,0);
},
{
name = center;
pos = (286,300);
},
{
name = top;
pos = (342,700);
}
);
layerId = "3C3B4AE3-80BB-44A4-A3CD-A752C08638B1";
shapes = (
{
closed = 1;
nodes = (
(64,700,l),
(36,500,l),
(308,500,l),
(180,614,l),
(94,0,l),
(394,0,l),
(480,614,l),
(319,500,l),
(592,500,l),
(620,700,l)
);
}
);
width = 564;
},
{
anchors = (
{
name = bottom;
pos = (221,0);
},
{
name = center;
pos = (266,320);
},
{
name = top;
pos = (319,700);
}
);
layerId = "463395A0-2DFC-45D4-87AF-EBCF54FF53ED";
shapes = (
{
closed = 1;
nodes = (
(65,700,l),
(45,553,l),
(294,553,l),
(200,637,l),
(111,0,l),
(331,0,l),
(420,637,l),
(302,553,l),
(553,553,l),
(573,700,l)
);
}
);
width = 518;
},
{
anchors = (
{
name = bottom;
pos = (284,0);
},
{
name = center;
pos = (326,300);
},
{
name = top;
pos = (382,700);
}
);
layerId = "B66266A1-0CD1-42BF-9957-E58294B85305";
shapes = (
{
closed = 1;
nodes = (
(64,700,l),
(36,500,l),
(348,500,l),
(220,614,l),
(134,0,l),
(434,0,l),
(520,614,l),
(359,500,l),
(672,500,l),
(700,700,l)
);
}
);
width = 644;
},
{
anchors = (
{
name = bottom;
pos = (269,0);
},
{
name = center;
pos = (314,320);
},
{
name = top;
pos = (367,700);
}
);
layerId = "3B401755-81E4-40F3-BD5E-9424281583CA";
shapes = (
{
closed = 1;
nodes = (
(65,700,l),
(42,533,l),
(339,533,l),
(232,628,l),
(144,0,l),
(394,0,l),
(482,628,l),
(348,533,l),
(646,533,l),
(669,700,l)
);
}
);
width = 614;
},
{
anchors = (
{
name = bottom;
pos = (65,0);
},
{
name = center;
pos = (114,350);
},
{
name = top;
pos = (163,700);
}
);
layerId = "3D671699-C126-4AA5-A66F-47C26817AED2";
shapes = (
{
closed = 1;
nodes = (
(65,700,l),
(65,696,l),
(162,696,l),
(161,698,l),
(63,0,l),
(67,0,l),
(165,698,l),
(164,696,l),
(261,696,l),
(261,700,l)
);
}
);
width = 206;
},
{
anchors = (
{
name = bottom;
pos = (140,0);
},
{
name = center;
pos = (189,350);
},
{
name = top;
pos = (238,700);
}
);
layerId = "46E74328-601B-43A9-9281-7B741E5F83E4";
shapes = (
{
closed = 1;
nodes = (
(68,700,l),
(61,646,l),
(228,646,l),
(206,682,l),
(110,0,l),
(170,0,l),
(266,682,l),
(231,646,l),
(400,646,l),
(407,700,l)
);
}
);
width = 355;
},
{
anchors = (
{
name = bottom;
pos = (197,0);
},
{
name = center;
pos = (247,350);
},
{
name = top;
pos = (295,700);
}
);
layerId = "ECB9DAFA-B085-4474-A032-AB3BEA4F5B4C";
shapes = (
{
closed = 1;
nodes = (
(71,700,l),
(71,696,l),
(295,696,l),
(293,698,l),
(195,0,l),
(199,0,l),
(297,698,l),
(295,696,l),
(519,696,l),
(519,700,l)
);
}
);
width = 470;
},
{
anchors = (
{
name = bottom;
pos = (197,0);
},
{
name = center;
pos = (246,350);
},
{
name = top;
pos = (295,700);
}
);
layerId = "287B816B-C6D9-4D62-948A-F2FEA8E41A5A";
shapes = (
{
closed = 1;
nodes = (
(69,700,l),
(62,646,l),
(286,646,l),
(262,679,l),
(167,0,l),
(227,0,l),
(322,679,l),
(288,646,l),
(514,646,l),
(521,700,l)
);
}
);
width = 470;
}
);
metricRight = "=|";
unicode = 84;
},
{
glyphname = U;
kernLeft = public.kern2.U;
kernRight = public.kern1.U;
lastChange = "2023-01-15 14:45:12 +0000";
layers = (
{
anchors = (
{
name = bottom;
pos = (331,0);
},
{
name = ogonek;
pos = (424,0);
},
{
name = top;
pos = (429,700);
},
{
name = topright;
pos = (758,700);
}
);
layerId = "3C3B4AE3-80BB-44A4-A3CD-A752C08638B1";
shapes = (
{
closed = 1;
nodes = (
(518,-15,o),
(674,103,o),
(696,256,cs),
(758,700,l),
(458,700,l),
(391,225,l),
(388,198,o),
(376,185,o),
(356,185,cs),
(336,185,o),
(328,198,o),
(331,225,c),
(398,700,l),
(98,700,l),
(36,256,ls),
(11,81,o),
(112,-15,o),
(328,-15,cs)
);
}
);
width = 736;
},
{
anchors = (
{
name = bottom;
pos = (303,0);
},
{
name = ogonek;
pos = (352,-1);
},
{
name = top;
pos = (401,700);
},
{
name = topright;
pos = (692,700);
}
);
layerId = "463395A0-2DFC-45D4-87AF-EBCF54FF53ED";
shapes = (
{
closed = 1;
nodes = (
(463,-12,o),
(606,82,o),
(629,240,c),
(693,700,l),
(473,700,l),
(406,221,ls),
(398,163,o),
(369,135,o),
(321,135,cs),
(273,135,o),
(252,163,o),
(260,221,cs),
(327,700,l),
(107,700,l),
(43,240,ls),
(19,71,o),
(107,-12,o),
(300,-12,cs)
);
}
);
width = 680;
},
{
anchors = (
{
name = bottom;
pos = (385,0);
},
{
name = ogonek;
pos = (451,0);
},
{
name = top;
pos = (483,700);
},
{
name = topright;
pos = (866,700);
}
);
layerId = "B66266A1-0CD1-42BF-9957-E58294B85305";
shapes = (
{
closed = 1;
nodes = (
(563,-15,o),
(778,69,o),
(808,286,cs),
(866,700,l),
(566,700,l),
(506,273,ls),
(498,214,o),
(465,185,o),
(410,185,cs),
(354,185,o),
(330,214,o),
(338,273,cs),
(398,700,l),
(98,700,l),
(40,286,ls),
(10,69,o),
(128,-15,o),
(382,-15,cs)
);
}
);
width = 844;
},
{
anchors = (
{
name = bottom;
pos = (369,0);
},
{
name = ogonek;
pos = (426,-1);
},
{
name = top;
pos = (467,700);
},
{
name = topright;
pos = (823,700);
}
);
layerId = "3B401755-81E4-40F3-BD5E-9424281583CA";
shapes = (
{
closed = 1;
nodes = (
(542,-13,o),
(735,70,o),
(764,276,cs),
(823,700,l),
(573,700,l),
(512,266,ls),
(502,191,o),
(460,154,o),
(389,154,cs),
(318,154,o),
(288,191,o),
(298,266,cs),
(359,700,l),
(109,700,l),
(50,276,ls),
(21,70,o),
(130,-13,o),
(366,-13,cs)
);
}
);
width = 812;
},
{
anchors = (
{
name = bottom;
pos = (92,0);
},
{
name = ogonek;
pos = (96,-4);
},
{
name = top;
pos = (190,700);
},
{
name = topright;
pos = (275,700);
}
);
layerId = "3D671699-C126-4AA5-A66F-47C26817AED2";
shapes = (
{
closed = 1;
nodes = (
(148,-5,o),
(182,37,o),
(194,122,cs),
(275,700,l),
(271,700,l),
(190,122,ls),
(178,39,o),
(147,-1,o),
(93,-1,cs),
(39,-1,o),
(18,39,o),
(30,122,cs),
(111,700,l),
(107,700,l),
(26,122,ls),
(14,37,o),
(36,-5,o),
(92,-5,cs)
);
}
);
width = 262;
},
{
anchors = (
{
name = bottom;
pos = (206,0);
},
{
name = ogonek;
pos = (223,-4);
},
{
name = top;
pos = (304,700);
},
{
name = topright;
pos = (476,700);
}
);
layerId = "46E74328-601B-43A9-9281-7B741E5F83E4";
shapes = (
{
closed = 1;
nodes = (
(310,-7,o),
(387,56,o),
(404,179,cs),
(477,700,l),
(417,700,l),
(344,179,ls),
(332,91,o),
(287,47,o),
(212,47,cs),
(136,47,o),
(106,91,o),
(118,179,cs),
(191,700,l),
(131,700,l),
(58,179,ls),
(40,54,o),
(90,-7,o),
(205,-7,cs)
);
}
);
width = 488;
},
{
anchors = (
{
name = bottom;
pos = (293,0);
},
{
name = ogonek;
pos = (301,-4);
},
{
name = top;
pos = (391,700);
},
{
name = topright;
pos = (610,700);
}
);
layerId = "ECB9DAFA-B085-4474-A032-AB3BEA4F5B4C";
shapes = (
{
closed = 1;
nodes = (
(438,-5,o),
(524,74,o),
(546,229,cs),
(612,700,l),
(608,700,l),
(542,229,ls),
(520,76,o),
(437,-1,o),
(292,-1,cs),
(145,-1,o),
(81,76,o),
(103,229,cs),
(169,700,l),
(165,700,l),
(99,229,ls),
(77,74,o),
(142,-5,o),
(291,-5,cs)
);
}
);
width = 657;
},
{
anchors = (
{
name = bottom;
pos = (288,0);
},
{
name = ogonek;
pos = (307,-4);
},
{
name = top;
pos = (386,700);
},
{
name = topright;
pos = (622,700);
}
);
layerId = "287B816B-C6D9-4D62-948A-F2FEA8E41A5A";
shapes = (
{
closed = 1;
nodes = (
(439,-7,o),
(536,78,o),
(557,229,cs),
(623,700,l),
(563,700,l),
(497,229,ls),
(480,109,o),
(411,47,o),
(294,47,cs),
(166,47,o),
(122,100,o),
(140,229,cs),
(206,700,l),
(146,700,l),
(80,229,ls),
(58,69,o),
(124,-7,o),
(287,-7,cs)
);
}
);
width = 649;
}
);
metricRight = "=|";
unicode = 85;
},
{
glyphname = V;
kernLeft = public.kern2.V;
kernRight = public.kern1.V;
layers = (
{
layerId = "3C3B4AE3-80BB-44A4-A3CD-A752C08638B1";
shapes = (
{
closed = 1;
nodes = (
(59,0,l),
(585,0,l),
(776,700,l),
(478,700,l),
(349,178,l),
(345,178,l),
(362,700,l),
(64,700,l)
);
}
);
width = 720;
},
{
layerId = "463395A0-2DFC-45D4-87AF-EBCF54FF53ED";
shapes = (
{
closed = 1;
nodes = (
(99,0,l),
(478,0,l),
(708,700,l),
(489,700,l),
(308,131,l),
(305,131,l),
(284,700,l),
(65,700,l)
);
}
);
width = 653;
},
{
layerId = "B66266A1-0CD1-42BF-9957-E58294B85305";
shapes = (
{
closed = 1;
nodes = (
(142,0,l),
(642,0,l),
(916,700,l),
(616,700,l),
(419,178,l),
(415,178,l),
(364,700,l),
(64,700,l)
);
}
);
width = 860;
},
{
layerId = "3B401755-81E4-40F3-BD5E-9424281583CA";
shapes = (
{
closed = 1;
nodes = (
(155,0,l),
(572,0,l),
(858,700,l),
(608,700,l),
(386,148,l),
(383,148,l),
(315,700,l),
(65,700,l)
);
}
);
width = 803;
},
{
layerId = "3D671699-C126-4AA5-A66F-47C26817AED2";
shapes = (
{
closed = 1;
nodes = (
(80,-1,l),
(87,-1,l),
(288,700,l),
(284,700,l),
(84,3,l),
(83,3,l),
(79,700,l),
(75,700,l)
);
}
);
width = 243;
},
{
layerId = "46E74328-601B-43A9-9281-7B741E5F83E4";
shapes = (
{
closed = 1;
nodes = (
(120,-1,l),
(218,-1,l),
(466,700,l),
(406,700,l),
(177,46,l),
(173,46,l),
(128,700,l),
(68,700,l)
);
}
);
width = 414;
},
{
layerId = "ECB9DAFA-B085-4474-A032-AB3BEA4F5B4C";
shapes = (
{
closed = 1;
nodes = (
(220,0,l),
(227,0,l),
(572,700,l),
(568,700,l),
(224,3,l),
(223,3,l),
(75,700,l),
(71,700,l)
);
}
);
width = 523;
},
{
layerId = "287B816B-C6D9-4D62-948A-F2FEA8E41A5A";
shapes = (
{
closed = 1;
nodes = (
(198,-1,l),
(286,-1,l),
(610,700,l),
(548,700,l),
(251,49,l),
(247,49,l),
(131,700,l),
(69,700,l)
);
}
);
width = 559;
}
);
metricRight = "=|";
unicode = 86;
},
{
glyphname = W;
kernLeft = public.kern2.W;
kernRight = public.kern1.W;
layers = (
{
anchors = (
{
name = bottom;
pos = (458,0);
},
{
name = top;
pos = (556,700);
}
);
guides = (
{
angle = 80.508;
pos = (502,230);
},
{
angle = 95.63;
pos = (424,700);
}
);
layerId = "3C3B4AE3-80BB-44A4-A3CD-A752C08638B1";
shapes = (
{
closed = 1;
nodes = (
(35,0,l),
(418,0,l),
(580,530,l),
(484,530,l),
(498,0,l),
(881,0,l),
(1048,700,l),
(756,700,l),
(611,89,l),
(704,89,l),
(692,700,l),
(420,700,l),
(236,89,l),
(329,89,l),
(356,700,l),
(64,700,l)
);
}
);
width = 992;
},
{
anchors = (
{
name = bottom;
pos = (426,0);
},
{
name = top;
pos = (524,700);
}
);
layerId = "463395A0-2DFC-45D4-87AF-EBCF54FF53ED";
shapes = (
{
closed = 1;
nodes = (
(60,0,l),
(347,0,l),
(471,366,l),
(474,366,l),
(495,0,l),
(782,0,l),
(973,700,l),
(758,700,l),
(638,275,l),
(634,275,l),
(612,700,l),
(427,700,l),
(284,275,l),
(280,275,l),
(280,700,l),
(65,700,l)
);
}
);
width = 918;
},
{
anchors = (
{
name = bottom;
pos = (568,0);
},
{
name = top;
pos = (666,700);
}
);
guides = (
{
angle = 77.205;
pos = (560,700);
}
);
layerId = "B66266A1-0CD1-42BF-9957-E58294B85305";
shapes = (
{
closed = 1;
nodes = (
(75,0,l),
(484,0,l),
(584,273,l),
(587,273,l),
(611,0,l),
(1020,0,l),
(1227,700,l),
(927,700,l),
(832,349,l),
(822,349,l),
(791,700,l),
(500,700,l),
(371,349,l),
(361,349,l),
(364,700,l),
(64,700,l)
);
}
);
width = 1171;
},
{
anchors = (
{
name = bottom;
pos = (532,0);
},
{
name = top;
pos = (630,700);
}
);
layerId = "3B401755-81E4-40F3-BD5E-9424281583CA";
shapes = (
{
closed = 1;
nodes = (
(87,0,l),
(428,0,l),
(562,345,l),
(564,345,l),
(602,0,l),
(943,0,l),
(1161,700,l),
(911,700,l),
(786,291,l),
(778,291,l),
(735,700,l),
(492,700,l),
(334,291,l),
(326,291,l),
(315,700,l),
(65,700,l)
);
}
);
width = 1106;
},
{
anchors = (
{
name = bottom;
pos = (171,0);
},
{
name = top;
pos = (269,700);
}
);
layerId = "3D671699-C126-4AA5-A66F-47C26817AED2";
shapes = (
{
closed = 1;
nodes = (
(64,-1,l),
(71,-1,l),
(268,696,l),
(270,696,l),
(270,-1,l),
(277,-1,l),
(462,700,l),
(458,700,l),
(274,3,l),
(273,3,l),
(273,700,l),
(265,700,l),
(68,3,l),
(67,3,l),
(79,700,l),
(75,700,l)
);
}
);
width = 417;
},
{
anchors = (
{
name = bottom;
pos = (282,0);
},
{
name = top;
pos = (380,700);
}
);
layerId = "46E74328-601B-43A9-9281-7B741E5F83E4";
shapes = (
{
closed = 1;
nodes = (
(80,-1,l),
(179,-1,l),
(364,611,l),
(368,611,l),
(381,-1,l),
(480,-1,l),
(688,700,l),
(629,700,l),
(437,46,l),
(433,46,l),
(418,700,l),
(338,700,l),
(139,46,l),
(135,46,l),
(127,700,l),
(68,700,l)
);
}
);
width = 636;
},
{
anchors = (
{
name = bottom;
pos = (356,0);
},
{
name = top;
pos = (454,700);
}
);
layerId = "ECB9DAFA-B085-4474-A032-AB3BEA4F5B4C";
shapes = (
{
closed = 1;
nodes = (
(148,0,l),
(155,0,l),
(453,697,l),
(454,697,l),
(556,0,l),
(563,0,l),
(835,700,l),
(831,700,l),
(560,3,l),
(559,3,l),
(457,700,l),
(450,700,l),
(152,3,l),
(151,3,l),
(75,700,l),
(71,700,l)
);
}
);
width = 786;
},
{
anchors = (
{
name = bottom;
pos = (382,0);
},
{
name = top;
pos = (480,700);
}
);
layerId = "287B816B-C6D9-4D62-948A-F2FEA8E41A5A";
shapes = (
{
closed = 1;
nodes = (
(125,-1,l),
(221,-1,l),
(461,625,l),
(463,625,l),
(528,-1,l),
(624,-1,l),
(875,700,l),
(813,700,l),
(586,48,l),
(581,48,l),
(514,700,l),
(430,700,l),
(181,48,l),
(177,48,l),
(131,700,l),
(69,700,l)
);
}
);
width = 824;
}
);
metricRight = "=|";
unicode = 87;
},
{
glyphname = X;
kernLeft = public.kern2.X;
kernRight = public.kern1.X;
lastChange = "2023-01-15 14:45:12 +0000";
layers = (
{
layerId = "3C3B4AE3-80BB-44A4-A3CD-A752C08638B1";
shapes = (
{
closed = 1;
nodes = (
(382,0,l),
(724,0,l),
(410,700,l),
(68,700,l)
);
},
{
closed = 1;
nodes = (
(-34,0,l),
(283,0,l),
(449,293,l),
(214,398,l)
);
},
{
closed = 1;
nodes = (
(570,302,l),
(818,700,l),
(501,700,l),
(335,407,l)
);
}
);
width = 766;
},
{
layerId = "463395A0-2DFC-45D4-87AF-EBCF54FF53ED";
shapes = (
{
closed = 1;
nodes = (
(382,0,l),
(633,0,l),
(321,700,l),
(70,700,l)
);
},
{
closed = 1;
nodes = (
(-33,0,l),
(200,0,l),
(401,316,l),
(229,394,l)
);
},
{
closed = 1;
nodes = (
(467,309,l),
(728,700,l),
(495,700,l),
(295,387,l)
);
}
);
width = 676;
},
{
layerId = "B66266A1-0CD1-42BF-9957-E58294B85305";
shapes = (
{
closed = 1;
nodes = (
(472,0,l),
(814,0,l),
(410,700,l),
(68,700,l)
);
},
{
closed = 1;
nodes = (
(-34,0,l),
(283,0,l),
(543,323,l),
(308,428,l)
);
},
{
closed = 1;
nodes = (
(566,272,l),
(908,700,l),
(591,700,l),
(331,377,l)
);
}
);
width = 856;
},
{
layerId = "3B401755-81E4-40F3-BD5E-9424281583CA";
shapes = (
{
closed = 1;
nodes = (
(468,0,l),
(753,0,l),
(356,700,l),
(71,700,l)
);
},
{
closed = 1;
nodes = (
(-33,0,l),
(231,0,l),
(496,328,l),
(300,416,l)
);
},
{
closed = 1;
nodes = (
(515,286,l),
(848,700,l),
(583,700,l),
(319,374,l)
);
}
);
width = 796;
},
{
layerId = "3D671699-C126-4AA5-A66F-47C26817AED2";
shapes = (
{
closed = 1;
nodes = (
(191,0,l),
(195,0,l),
(74,700,l),
(70,700,l)
);
},
{
closed = 1;
nodes = (
(-33,0,l),
(-29,0,l),
(133,355,l),
(130,358,l)
);
},
{
closed = 1;
nodes = (
(134,355,l),
(293,700,l),
(289,700,l),
(131,358,l)
);
}
);
width = 238;
},
{
layerId = "46E74328-601B-43A9-9281-7B741E5F83E4";
shapes = (
{
closed = 1;
nodes = (
(308,0,l),
(374,0,l),
(141,700,l),
(75,700,l)
);
},
{
closed = 1;
nodes = (
(-30,0,l),
(33,0,l),
(242,346,l),
(197,368,l)
);
},
{
closed = 1;
nodes = (
(250,343,l),
(472,700,l),
(409,700,l),
(204,365,l)
);
}
);
width = 420;
},
{
layerId = "ECB9DAFA-B085-4474-A032-AB3BEA4F5B4C";
shapes = (
{
closed = 1;
nodes = (
(448,0,l),
(453,0,l),
(88,700,l),
(83,700,l)
);
},
{
closed = 1;
nodes = (
(-27,0,l),
(-22,0,l),
(265,353,l),
(264,357,l)
);
},
{
closed = 1;
nodes = (
(267,355,l),
(551,700,l),
(546,700,l),
(265,359,l)
);
}
);
width = 502;
},
{
layerId = "287B816B-C6D9-4D62-948A-F2FEA8E41A5A";
shapes = (
{
closed = 1;
nodes = (
(424,0,l),
(491,0,l),
(146,700,l),
(79,700,l)
);
},
{
closed = 1;
nodes = (
(-29,0,l),
(34,0,l),
(314,354,l),
(268,377,l)
);
},
{
closed = 1;
nodes = (
(297,335,l),
(589,700,l),
(526,700,l),
(252,356,l)
);
}
);
width = 538;
}
);
metricRight = "=|";
unicode = 88;
},
{
glyphname = Y;
kernLeft = public.kern2.Y;
kernRight = public.kern1.Y;
layers = (
{
anchors = (
{
name = bottom;
pos = (304,0);
},
{
name = top;
pos = (402,700);
},
{
name = topleft;
pos = (64,700);
}
);
layerId = "3C3B4AE3-80BB-44A4-A3CD-A752C08638B1";
shapes = (
{
closed = 1;
nodes = (
(189,144,l),
(459,144,l),
(740,700,l),
(442,700,l),
(377,507,l),
(373,507,l),
(362,700,l),
(64,700,l)
);
},
{
closed = 1;
nodes = (
(159,0,l),
(449,0,l),
(483,246,l),
(193,246,l)
);
}
);
width = 684;
},
{
anchors = (
{
name = bottom;
pos = (269,0);
},
{
name = top;
pos = (367,700);
},
{
name = topleft;
pos = (67,700);
}
);
layerId = "463395A0-2DFC-45D4-87AF-EBCF54FF53ED";
shapes = (
{
closed = 1;
nodes = (
(193,177,l),
(394,177,l),
(668,700,l),
(445,700,l),
(330,424,l),
(326,424,l),
(289,700,l),
(65,700,l)
);
},
{
closed = 1;
nodes = (
(163,0,l),
(375,0,l),
(411,254,l),
(199,254,l)
);
}
);
width = 613;
},
{
anchors = (
{
name = bottom;
pos = (354,0);
},
{
name = top;
pos = (452,700);
},
{
name = topleft;
pos = (64,700);
}
);
layerId = "B66266A1-0CD1-42BF-9957-E58294B85305";
shapes = (
{
closed = 1;
nodes = (
(239,184,l),
(521,184,l),
(840,700,l),
(522,700,l),
(420,457,l),
(416,457,l),
(382,700,l),
(64,700,l)
);
},
{
closed = 1;
nodes = (
(209,0,l),
(499,0,l),
(540,296,l),
(250,296,l)
);
}
);
width = 784;
},
{
anchors = (
{
name = bottom;
pos = (329,0);
},
{
name = top;
pos = (427,700);
},
{
name = topleft;
pos = (68,700);
}
);
layerId = "3B401755-81E4-40F3-BD5E-9424281583CA";
shapes = (
{
closed = 1;
nodes = (
(239,192,l),
(474,192,l),
(789,700,l),
(525,700,l),
(390,421,l),
(387,421,l),
(330,700,l),
(65,700,l)
);
},
{
closed = 1;
nodes = (
(208,0,l),
(450,0,l),
(490,286,l),
(248,286,l)
);
}
);
width = 734;
},
{
anchors = (
{
name = bottom;
pos = (70,0);
},
{
name = top;
pos = (168,700);
},
{
name = topleft;
pos = (68,700);
}
);
layerId = "3D671699-C126-4AA5-A66F-47C26817AED2";
shapes = (
{
closed = 1;
nodes = (
(100,230,l),
(104,230,l),
(268,700,l),
(264,700,l),
(105,242,l),
(103,242,l),
(72,700,l),
(68,700,l)
);
},
{
closed = 1;
nodes = (
(68,0,l),
(72,0,l),
(105,234,l),
(101,234,l)
);
}
);
width = 216;
},
{
anchors = (
{
name = bottom;
pos = (156,0);
},
{
name = top;
pos = (254,700);
},
{
name = topleft;
pos = (68,700);
}
);
layerId = "46E74328-601B-43A9-9281-7B741E5F83E4";
shapes = (
{
closed = 1;
nodes = (
(158,229,l),
(218,229,l),
(440,700,l),
(379,700,l),
(202,317,l),
(198,317,l),
(129,700,l),
(68,700,l)
);
},
{
closed = 1;
nodes = (
(126,0,l),
(186,0,l),
(222,261,l),
(162,261,l)
);
}
);
width = 388;
},
{
anchors = (
{
name = bottom;
pos = (208,0);
},
{
name = top;
pos = (306,700);
},
{
name = topleft;
pos = (87,700);
}
);
layerId = "ECB9DAFA-B085-4474-A032-AB3BEA4F5B4C";
shapes = (
{
closed = 1;
nodes = (
(239,234,l),
(243,234,l),
(541,700,l),
(537,700,l),
(243,241,l),
(241,241,l),
(75,700,l),
(71,700,l)
);
},
{
closed = 1;
nodes = (
(206,0,l),
(210,0,l),
(243,234,l),
(239,234,l)
);
}
);
width = 492;
},
{
anchors = (
{
name = bottom;
pos = (220,0);
},
{
name = top;
pos = (318,700);
},
{
name = topleft;
pos = (77,700);
}
);
layerId = "287B816B-C6D9-4D62-948A-F2FEA8E41A5A";
shapes = (
{
closed = 1;
nodes = (
(222,226,l),
(282,226,l),
(567,700,l),
(502,700,l),
(262,286,l),
(258,286,l),
(134,700,l),
(69,700,l)
);
},
{
closed = 1;
nodes = (
(190,0,l),
(250,0,l),
(287,265,l),
(227,265,l)
);
}
);
width = 516;
}
);
metricRight = "=|";
unicode = 89;
},
{
glyphname = Z;
kernLeft = public.kern2.Z;
kernRight = public.kern1.Z;
layers = (
{
anchors = (
{
name = bottom;
pos = (276,0);
},
{
name = top;
pos = (374,700);
}
);
guides = (
{
angle = 268.282;
pos = (-154,0);
},
{
angle = 90;
pos = (201,0);
}
);
layerId = "3C3B4AE3-80BB-44A4-A3CD-A752C08638B1";
shapes = (
{
closed = 1;
nodes = (
(-26,0,l),
(567,0,l),
(595,200,l),
(86,200,l),
(214,51,l),
(639,516,l),
(665,700,l),
(93,700,l),
(65,500,l),
(553,500,l),
(425,649,l),
(0,184,l)
);
}
);
width = 617;
},
{
anchors = (
{
name = bottom;
pos = (249,0);
},
{
name = top;
pos = (350,700);
}
);
layerId = "463395A0-2DFC-45D4-87AF-EBCF54FF53ED";
shapes = (
{
closed = 1;
nodes = (
(-23,0,l),
(509,0,l),
(529,147,l),
(59,147,l),
(155,38,l),
(588,565,l),
(607,700,l),
(94,700,l),
(74,553,l),
(523,553,l),
(428,662,l),
(-4,135,l)
);
}
);
width = 562;
},
{
anchors = (
{
name = bottom;
pos = (331,0);
},
{
name = top;
pos = (429,700);
}
);
guides = (
{
angle = 268.282;
pos = (-263,-12);
},
{
angle = 90;
pos = (419,0);
}
);
layerId = "B66266A1-0CD1-42BF-9957-E58294B85305";
shapes = (
{
closed = 1;
nodes = (
(-26,0,l),
(657,0,l),
(685,200,l),
(86,200,l),
(222,51,l),
(729,516,l),
(755,700,l),
(93,700,l),
(65,500,l),
(637,500,l),
(501,649,l),
(0,184,l)
);
}
);
width = 707;
},
{
anchors = (
{
name = bottom;
pos = (311,0);
},
{
name = top;
pos = (413,700);
}
);
layerId = "3B401755-81E4-40F3-BD5E-9424281583CA";
shapes = (
{
closed = 1;
nodes = (
(-22,0,l),
(619,0,l),
(643,167,l),
(72,167,l),
(185,43,l),
(696,547,l),
(718,700,l),
(98,700,l),
(74,533,l),
(618,533,l),
(506,657,l),
(0,153,l)
);
}
);
width = 674;
},
{
anchors = (
{
name = bottom;
pos = (57,0);
},
{
name = top;
pos = (161,700);
}
);
guides = (
{
angle = 90;
pos = (469,0);
}
);
layerId = "3D671699-C126-4AA5-A66F-47C26817AED2";
shapes = (
{
closed = 1;
nodes = (
(-33,0,l),
(146,0,l),
(146,4,l),
(-31,4,l),
(-29,3,l),
(244,697,l),
(244,700,l),
(76,700,l),
(76,696,l),
(242,696,l),
(240,697,l),
(-33,3,l)
);
}
);
width = 189;
},
{
anchors = (
{
name = bottom;
pos = (154,0);
},
{
name = top;
pos = (259,700);
}
);
layerId = "46E74328-601B-43A9-9281-7B741E5F83E4";
shapes = (
{
closed = 1;
nodes = (
(-15,0,l),
(319,0,l),
(326,54,l),
(30,54,l),
(37,11,l),
(412,663,l),
(417,700,l),
(98,700,l),
(91,646,l),
(371,646,l),
(365,689,l),
(-10,37,l)
);
}
);
width = 380;
},
{
anchors = (
{
name = bottom;
pos = (196,0);
},
{
name = top;
pos = (308,700);
}
);
guides = (
{
angle = 268.282;
pos = (-59,0);
},
{
angle = 90;
pos = (374,0);
}
);
layerId = "ECB9DAFA-B085-4474-A032-AB3BEA4F5B4C";
shapes = (
{
closed = 1;
nodes = (
(-21,0,l),
(412,0,l),
(412,4,l),
(-18,4,l),
(-17,1,l),
(510,698,l),
(510,700,l),
(98,700,l),
(98,696,l),
(507,696,l),
(506,699,l),
(-21,2,l)
);
}
);
width = 467;
},
{
anchors = (
{
name = bottom;
pos = (220,0);
},
{
name = top;
pos = (328,700);
}
);
layerId = "287B816B-C6D9-4D62-948A-F2FEA8E41A5A";
shapes = (
{
closed = 1;
nodes = (
(-11,0,l),
(440,0,l),
(447,54,l),
(24,54,l),
(42,11,l),
(533,664,l),
(538,700,l),
(107,700,l),
(100,646,l),
(501,646,l),
(485,689,l),
(-6,36,l)
);
}
);
width = 505;
}
);
metricRight = "=|";
unicode = 90;
},
{
glyphname = G.ss01;
kernLeft = public.kern2.O;
kernRight = public.kern1.G;
layers = (
{
anchors = (
{
name = bottom;
pos = (317,0);
},
{
name = top;
pos = (414,700);
}
);
guides = (
{
angle = 185.711;
pos = (586,470);
}
);
layerId = "3C3B4AE3-80BB-44A4-A3CD-A752C08638B1";
shapes = (
{
closed = 1;
nodes = (
(513,-15,o),
(649,86,o),
(672,248,cs),
(694,410,l),
(369,410,l),
(345,238,l),
(484,238,l),
(395,346,l),
(378,220,l),
(374,197,o),
(363,185,o),
(342,185,cs),
(323,185,o),
(314,197,o),
(318,220,c),
(354,480,l),
(358,504,o),
(368,515,o),
(385,515,cs),
(404,515,o),
(411,497,o),
(409,455,c),
(703,484,l),
(705,636,o),
(600,715,o),
(417,715,cs),
(213,715,o),
(73,611,o),
(49,444,cs),
(23,256,ls),
(-1,89,o),
(111,-15,o),
(315,-15,cs)
);
}
);
width = 709;
},
{
anchors = (
{
name = bottom;
pos = (261,0);
},
{
name = top;
pos = (359,700);
}
);
layerId = "463395A0-2DFC-45D4-87AF-EBCF54FF53ED";
shapes = (
{
closed = 1;
nodes = (
(443,-12,o),
(558,77,o),
(579,226,cs),
(602,393,l),
(326,393,l),
(307,261,l),
(445,261,l),
(382,345,l),
(363,208,ls),
(357,165,o),
(338,139,o),
(294,139,cs),
(251,139,o),
(242,167,o),
(248,208,cs),
(288,493,ls),
(294,535,o),
(312,561,o),
(353,561,cs),
(387,561,o),
(402,538,o),
(401,483,c),
(616,504,l),
(618,641,o),
(532,712,o),
(377,712,cs),
(204,712,o),
(86,621,o),
(65,469,cs),
(31,232,l),
(10,79,o),
(101,-12,o),
(274,-12,cs)
);
}
);
width = 628;
},
{
anchors = (
{
name = bottom;
pos = (382,0);
},
{
name = top;
pos = (480,700);
}
);
guides = (
{
angle = 91.051;
pos = (713,1);
},
{
angle = 185.711;
pos = (693,460);
}
);
layerId = "B66266A1-0CD1-42BF-9957-E58294B85305";
shapes = (
{
closed = 1;
nodes = (
(598,-15,o),
(763,108,o),
(791,307,c),
(803,410,l),
(428,410,l),
(404,238,l),
(584,238,l),
(505,346,l),
(497,285,ls),
(487,217,o),
(453,185,o),
(401,185,cs),
(351,185,o),
(322,218,o),
(332,286,cs),
(350,414,ls),
(360,482,o),
(397,515,o),
(447,515,cs),
(491,515,o),
(510,494,o),
(514,445,c),
(807,474,l),
(795,624,o),
(684,715,o),
(457,715,cs),
(231,715,o),
(76,600,o),
(50,414,cs),
(32,286,ls),
(6,100,o),
(129,-15,o),
(355,-15,cs)
);
}
);
width = 820;
},
{
anchors = (
{
name = bottom;
pos = (346,0);
},
{
name = top;
pos = (445,700);
}
);
layerId = "3B401755-81E4-40F3-BD5E-9424281583CA";
shapes = (
{
closed = 1;
nodes = (
(561,-13,o),
(714,101,o),
(739,292,cs),
(753,399,l),
(407,399,l),
(386,253,l),
(569,253,l),
(504,345,l),
(494,275,ls),
(483,194,o),
(442,156,o),
(376,156,cs),
(311,156,o),
(278,195,o),
(290,276,cs),
(311,426,ls),
(322,505,o),
(366,544,o),
(430,544,cs),
(482,544,o),
(511,522,o),
(516,461,c),
(759,486,l),
(748,630,o),
(645,713,o),
(440,713,cs),
(230,713,o),
(86,605,o),
(61,426,cs),
(40,276,ls),
(14,95,o),
(127,-13,o),
(337,-13,cs)
);
}
);
width = 780;
},
{
anchors = (
{
name = bottom;
pos = (91,0);
},
{
name = top;
pos = (189,700);
}
);
layerId = "3D671699-C126-4AA5-A66F-47C26817AED2";
shapes = (
{
closed = 1;
nodes = (
(142,-5,o),
(176,38,o),
(188,122,cs),
(219,342,l),
(128,342,l),
(127,338,l),
(215,338,l),
(214,339,l),
(184,122,ls),
(172,40,o),
(141,-1,o),
(89,-1,cs),
(37,-1,o),
(16,40,o),
(28,122,cs),
(92,578,ls),
(103,659,o),
(136,701,o),
(187,701,cs),
(238,701,o),
(259,658,o),
(252,568,c),
(256,568,l),
(264,661,o),
(242,705,o),
(188,705,cs),
(134,705,o),
(100,661,o),
(88,578,cs),
(24,122,ls),
(12,38,o),
(34,-5,o),
(88,-5,cs)
);
}
);
width = 257;
},
{
anchors = (
{
name = bottom;
pos = (195,0);
},
{
name = top;
pos = (294,700);
}
);
layerId = "46E74328-601B-43A9-9281-7B741E5F83E4";
shapes = (
{
closed = 1;
nodes = (
(304,-7,o),
(373,59,o),
(391,183,c),
(415,358,l),
(238,358,l),
(231,308,l),
(368,308,l),
(353,344,l),
(331,183,l),
(317,88,o),
(277,47,o),
(199,47,cs),
(121,47,o),
(93,88,o),
(107,183,cs),
(154,519,ls),
(167,612,o),
(209,653,o),
(287,653,cs),
(353,653,o),
(384,615,o),
(382,538,c),
(440,544,l),
(443,651,o),
(393,707,o),
(294,707,cs),
(182,707,o),
(111,640,o),
(94,519,cs),
(47,183,ls),
(29,59,o),
(80,-7,o),
(192,-7,cs)
);
}
);
width = 467;
},
{
anchors = (
{
name = bottom;
pos = (278,0);
},
{
name = top;
pos = (382,700);
}
);
guides = (
{
angle = 91.051;
pos = (468,0);
}
);
layerId = "ECB9DAFA-B085-4474-A032-AB3BEA4F5B4C";
shapes = (
{
closed = 1;
nodes = (
(427,-5,o),
(514,79,o),
(537,246,c),
(553,354,l),
(328,354,l),
(327,350,l),
(550,350,l),
(548,352,l),
(533,246,ls),
(510,80,o),
(425,-1,o),
(278,-1,cs),
(131,-1,o),
(68,80,o),
(91,246,cs),
(122,464,ls),
(144,620,o),
(232,701,o),
(380,701,cs),
(498,701,o),
(560,649,o),
(568,544,c),
(572,545,l),
(563,652,o),
(500,705,o),
(381,705,cs),
(231,705,o),
(140,622,o),
(118,464,cs),
(87,246,ls),
(64,79,o),
(127,-5,o),
(277,-5,cs)
);
}
);
width = 635;
},
{
anchors = (
{
name = bottom;
pos = (279,0);
},
{
name = top;
pos = (380,700);
}
);
layerId = "287B816B-C6D9-4D62-948A-F2FEA8E41A5A";
shapes = (
{
closed = 1;
nodes = (
(430,-7,o),
(523,76,o),
(546,236,cs),
(563,358,l),
(327,358,l),
(320,308,l),
(515,308,l),
(501,343,l),
(486,236,ls),
(468,107,o),
(403,47,o),
(281,47,cs),
(159,47,o),
(112,107,o),
(130,236,cs),
(163,469,ls),
(180,593,o),
(249,653,o),
(370,653,cs),
(468,653,o),
(518,611,o),
(522,523,c),
(580,529,l),
(577,646,o),
(508,707,o),
(377,707,cs),
(222,707,o),
(124,623,o),
(103,469,cs),
(70,236,ls),
(47,76,o),
(118,-7,o),
(274,-7,cs)
);
}
);
width = 628;
}
);
},
{
glyphname = M.superior;
kernLeft = public.kern2.H.superior;
kernRight = public.kern1.H.superior;
layers = (
{
layerId = "3C3B4AE3-80BB-44A4-A3CD-A752C08638B1";
shapes = (
{
closed = 1;
nodes = (
(45,320,l),
(185,320,l),
(238,700,l),
(156,700,l),
(247,348,l),
(273,348,l),
(461,700,l),
(379,700,l),
(326,320,l),
(466,320,l),
(525,740,l),
(373,740,l),
(239,484,l),
(319,484,l),
(256,740,l),
(104,740,l)
);
}
);
width = 497;
},
{
layerId = "463395A0-2DFC-45D4-87AF-EBCF54FF53ED";
shapes = (
{
closed = 1;
nodes = (
(53,320,l),
(173,320,l),
(207,559,l),
(209,559,l),
(249,352,l),
(308,352,l),
(406,559,l),
(408,559,l),
(374,320,l),
(494,320,l),
(553,740,l),
(402,740,l),
(305,532,l),
(302,532,l),
(263,740,l),
(112,740,l)
);
}
);
width = 533;
},
{
layerId = "B66266A1-0CD1-42BF-9957-E58294B85305";
shapes = (
{
closed = 1;
nodes = (
(52,320,l),
(192,320,l),
(230,592,l),
(217,592,l),
(290,347,l),
(354,347,l),
(494,592,l),
(481,592,l),
(443,320,l),
(583,320,l),
(642,740,l),
(461,740,l),
(305,470,l),
(372,470,l),
(292,740,l),
(111,740,l)
);
}
);
width = 621;
},
{
layerId = "3B401755-81E4-40F3-BD5E-9424281583CA";
shapes = (
{
closed = 1;
nodes = (
(56,320,l),
(186,320,l),
(222,577,l),
(224,577,l),
(288,350,l),
(348,350,l),
(476,577,l),
(478,577,l),
(442,320,l),
(572,320,l),
(631,740,l),
(458,740,l),
(333,520,l),
(351,520,l),
(288,740,l),
(115,740,l)
);
}
);
width = 614;
},
{
layerId = "3D671699-C126-4AA5-A66F-47C26817AED2";
shapes = (
{
closed = 1;
nodes = (
(49,320,l),
(53,320,l),
(111,735,l),
(110,735,l),
(141,380,l),
(145,380,l),
(273,735,l),
(272,735,l),
(214,320,l),
(218,320,l),
(277,740,l),
(272,740,l),
(143,385,l),
(145,385,l),
(113,740,l),
(108,740,l)
);
}
);
width = 253;
},
{
layerId = "46E74328-601B-43A9-9281-7B741E5F83E4";
shapes = (
{
closed = 1;
nodes = (
(64,320,l),
(114,320,l),
(165,680,l),
(168,680,l),
(207,368,l),
(253,368,l),
(380,680,l),
(383,680,l),
(332,320,l),
(382,320,l),
(441,740,l),
(364,740,l),
(241,438,l),
(239,438,l),
(200,740,l),
(123,740,l)
);
}
);
width = 432;
},
{
layerId = "ECB9DAFA-B085-4474-A032-AB3BEA4F5B4C";
shapes = (
{
closed = 1;
nodes = (
(82,320,l),
(86,320,l),
(144,735,l),
(143,735,l),
(262,376,l),
(267,376,l),
(485,735,l),
(484,735,l),
(426,320,l),
(430,320,l),
(489,740,l),
(484,740,l),
(266,381,l),
(265,381,l),
(146,740,l),
(141,740,l)
);
}
);
width = 498;
},
{
layerId = "287B816B-C6D9-4D62-948A-F2FEA8E41A5A";
shapes = (
{
closed = 1;
nodes = (
(72,320,l),
(122,320,l),
(174,691,l),
(176,691,l),
(260,368,l),
(309,368,l),
(483,691,l),
(486,691,l),
(434,320,l),
(484,320,l),
(543,740,l),
(465,740,l),
(293,421,l),
(290,421,l),
(208,740,l),
(131,740,l)
);
}
);
width = 542;
}
);
},
{
glyphname = S.superior;
kernLeft = public.kern2.S.superior;
kernRight = public.kern1.S.superior;
layers = (
{
layerId = "3C3B4AE3-80BB-44A4-A3CD-A752C08638B1";
shapes = (
{
closed = 1;
nodes = (
(304,313,o),
(368,355,o),
(380,439,cs),
(400,584,o),
(210,558,o),
(219,622,cs),
(222,641,o),
(235,653,o),
(251,653,cs),
(270,653,o),
(280,639,o),
(278,608,c),
(409,617,l),
(412,708,o),
(367,747,o),
(262,747,cs),
(158,747,o),
(91,703,o),
(79,621,cs),
(60,481,o),
(249,505,o),
(240,438,cs),
(237,418,o),
(225,407,o),
(207,407,cs),
(187,407,o),
(181,423,o),
(182,455,c),
(50,449,l),
(49,357,o),
(90,313,o),
(192,313,cs)
);
}
);
width = 385;
},
{
layerId = "463395A0-2DFC-45D4-87AF-EBCF54FF53ED";
shapes = (
{
closed = 1;
nodes = (
(314,313,o),
(382,356,o),
(393,437,cs),
(416,599,o),
(195,555,o),
(206,630,cs),
(209,653,o),
(231,667,o),
(263,667,cs),
(293,667,o),
(310,652,o),
(307,613,c),
(423,621,l),
(427,708,o),
(378,747,o),
(271,747,cs),
(162,747,o),
(96,703,o),
(85,626,cs),
(62,465,o),
(284,509,o),
(273,434,cs),
(269,408,o),
(246,393,o),
(213,393,cs),
(181,393,o),
(167,413,o),
(169,453,c),
(53,449,l),
(51,355,o),
(98,313,o),
(202,313,cs)
);
}
);
width = 402;
},
{
layerId = "B66266A1-0CD1-42BF-9957-E58294B85305";
shapes = (
{
closed = 1;
nodes = (
(366,313,o),
(447,359,o),
(458,441,cs),
(479,593,o),
(227,547,o),
(237,621,cs),
(240,643,o),
(263,655,o),
(296,655,cs),
(336,655,o),
(357,639,o),
(355,605,c),
(487,614,l),
(491,708,o),
(430,749,o),
(312,749,cs),
(189,749,o),
(109,703,o),
(97,622,cs),
(76,472,o),
(328,514,o),
(318,442,cs),
(315,419,o),
(292,407,o),
(259,407,cs),
(218,407,o),
(197,424,o),
(197,462,c),
(66,456,l),
(63,357,o),
(118,313,o),
(240,313,cs)
);
}
);
width = 470;
},
{
layerId = "3B401755-81E4-40F3-BD5E-9424281583CA";
shapes = (
{
closed = 1;
nodes = (
(360,313,o),
(438,360,o),
(449,443,cs),
(472,604,o),
(221,550,o),
(232,625,cs),
(235,647,o),
(258,660,o),
(294,660,cs),
(342,660,o),
(360,640,o),
(358,606,c),
(477,615,l),
(482,704,o),
(426,747,o),
(308,747,cs),
(189,747,o),
(113,702,o),
(102,623,cs),
(78,458,o),
(329,512,o),
(319,439,cs),
(315,414,o),
(291,400,o),
(255,400,cs),
(210,400,o),
(187,420,o),
(186,458,c),
(70,453,l),
(67,359,o),
(114,313,o),
(238,313,cs)
);
}
);
width = 459;
},
{
layerId = "3D671699-C126-4AA5-A66F-47C26817AED2";
shapes = (
{
closed = 1;
nodes = (
(132,317,o),
(152,344,o),
(161,404,cs),
(179,530,o),
(75,534,o),
(92,656,cs),
(100,713,o),
(120,739,o),
(156,739,cs),
(191,739,o),
(203,710,o),
(196,644,c),
(200,644,l),
(207,711,o),
(195,743,o),
(156,743,cs),
(117,743,o),
(97,716,o),
(88,656,cs),
(71,532,o),
(174,528,o),
(157,404,cs),
(149,347,o),
(130,321,o),
(93,321,cs),
(58,321,o),
(46,351,o),
(54,416,c),
(50,416,l),
(42,347,o),
(55,317,o),
(93,317,cs)
);
}
);
width = 176;
},
{
layerId = "46E74328-601B-43A9-9281-7B741E5F83E4";
shapes = (
{
closed = 1;
nodes = (
(240,315,o),
(288,355,o),
(298,428,cs),
(318,567,o),
(130,537,o),
(144,643,cs),
(150,684,o),
(175,706,o),
(218,706,cs),
(265,706,o),
(284,682,o),
(280,630,c),
(329,634,l),
(334,709,o),
(302,745,o),
(224,745,cs),
(148,745,o),
(104,709,o),
(94,643,cs),
(74,500,o),
(264,531,o),
(249,427,cs),
(243,381,o),
(214,354,o),
(168,354,cs),
(120,354,o),
(102,379,o),
(105,435,c),
(57,433,l),
(52,351,o),
(85,315,o),
(162,315,cs)
);
}
);
width = 312;
},
{
layerId = "ECB9DAFA-B085-4474-A032-AB3BEA4F5B4C";
shapes = (
{
closed = 1;
nodes = (
(273,317,o),
(330,354,o),
(338,414,cs),
(359,560,o),
(94,499,o),
(115,646,cs),
(123,704,o),
(174,739,o),
(251,739,cs),
(339,739,o),
(372,702,o),
(367,636,c),
(371,636,l),
(377,706,o),
(340,743,o),
(251,743,cs),
(172,743,o),
(119,707,o),
(111,646,cs),
(90,495,o),
(354,556,o),
(334,414,cs),
(326,357,o),
(271,321,o),
(192,321,cs),
(109,321,o),
(70,360,o),
(73,439,c),
(69,439,l),
(65,359,o),
(103,317,o),
(192,317,cs)
);
}
);
width = 365;
},
{
layerId = "287B816B-C6D9-4D62-948A-F2FEA8E41A5A";
shapes = (
{
closed = 1;
nodes = (
(301,315,o),
(366,358,o),
(376,428,cs),
(399,590,o),
(134,515,o),
(152,637,cs),
(158,681,o),
(197,706,o),
(260,706,cs),
(326,706,o),
(358,681,o),
(354,628,c),
(407,631,l),
(411,707,o),
(364,745,o),
(266,745,cs),
(171,745,o),
(111,705,o),
(102,637,c),
(78,472,o),
(343,548,o),
(326,427,cs),
(320,382,o),
(277,354,o),
(212,354,cs),
(146,354,o),
(114,383,o),
(115,442,c),
(64,440,l),
(60,354,o),
(105,315,o),
(206,315,cs)
);
}
);
width = 396;
}
);
},
{
glyphname = T.superior;
kernLeft = public.kern2.T.superior;
kernRight = public.kern1.T.superior;
layers = (
{
layerId = "3C3B4AE3-80BB-44A4-A3CD-A752C08638B1";
shapes = (
{
closed = 1;
nodes = (
(79,740,l),
(66,646,l),
(210,646,l),
(150,700,l),
(97,320,l),
(237,320,l),
(290,700,l),
(216,646,l),
(361,646,l),
(374,740,l)
);
}
);
width = 321;
},
{
layerId = "463395A0-2DFC-45D4-87AF-EBCF54FF53ED";
shapes = (
{
closed = 1;
nodes = (
(80,740,l),
(69,660,l),
(219,660,l),
(168,706,l),
(114,320,l),
(234,320,l),
(288,706,l),
(224,660,l),
(375,660,l),
(386,740,l)
);
}
);
width = 334;
},
{
layerId = "B66266A1-0CD1-42BF-9957-E58294B85305";
shapes = (
{
closed = 1;
nodes = (
(79,740,l),
(66,646,l),
(242,646,l),
(182,700,l),
(129,320,l),
(269,320,l),
(322,700,l),
(248,646,l),
(425,646,l),
(438,740,l)
);
}
);
width = 385;
},
{
layerId = "3B401755-81E4-40F3-BD5E-9424281583CA";
shapes = (
{
closed = 1;
nodes = (
(80,740,l),
(68,653,l),
(244,653,l),
(188,703,l),
(134,320,l),
(264,320,l),
(318,703,l),
(248,653,l),
(424,653,l),
(436,740,l)
);
}
);
width = 384;
},
{
layerId = "3D671699-C126-4AA5-A66F-47C26817AED2";
shapes = (
{
closed = 1;
nodes = (
(79,740,l),
(78,736,l),
(142,736,l),
(142,737,l),
(83,320,l),
(87,320,l),
(146,737,l),
(143,736,l),
(207,736,l),
(208,740,l)
);
}
);
width = 155;
},
{
layerId = "46E74328-601B-43A9-9281-7B741E5F83E4";
shapes = (
{
closed = 1;
nodes = (
(81,740,l),
(76,701,l),
(190,701,l),
(170,726,l),
(113,320,l),
(163,320,l),
(220,726,l),
(192,701,l),
(308,701,l),
(313,740,l)
);
}
);
width = 262;
},
{
layerId = "ECB9DAFA-B085-4474-A032-AB3BEA4F5B4C";
shapes = (
{
closed = 1;
nodes = (
(83,740,l),
(82,736,l),
(215,736,l),
(214,737,l),
(155,320,l),
(159,320,l),
(218,737,l),
(216,736,l),
(349,736,l),
(350,740,l)
);
}
);
width = 301;
},
{
layerId = "287B816B-C6D9-4D62-948A-F2FEA8E41A5A";
shapes = (
{
closed = 1;
nodes = (
(82,740,l),
(77,701,l),
(221,701,l),
(201,725,l),
(144,320,l),
(194,320,l),
(251,725,l),
(223,701,l),
(369,701,l),
(374,740,l)
);
}
);
width = 324;
}
);
},
{
glyphname = a;
kernLeft = public.kern2.a;
kernRight = public.kern1.n;
layers = (
{
anchors = (
{
name = bottom;
pos = (301,0);
},
{
name = ogonek;
pos = (604,0);
},
{
name = top;
pos = (377,540);
}
);
guides = (
{
angle = 252.897;
pos = (445,497);
},
{
angle = 88.536;
pos = (-5,161);
},
{
angle = 90;
pos = (-83,0);
},
{
angle = 81.927;
pos = (604,0);
},
{
angle = 81.927;
pos = (604,0);
},
{
angle = 81.927;
pos = (604,0);
},
{
angle = 81.927;
pos = (604,0);
}
);
layerId = "3C3B4AE3-80BB-44A4-A3CD-A752C08638B1";
shapes = (
{
closed = 1;
nodes = (
(354,0,l),
(604,0,l),
(644,282,ls),
(669,463,o),
(573,555,o),
(357,555,cs),
(270,555,o),
(151,538,o),
(69,514,c),
(80,324,l),
(121,343,o),
(187,358,o),
(228,358,cs),
(310,358,o),
(341,336,o),
(334,282,cs),
(326,226,l)
);
},
{
closed = 1;
nodes = (
(315,-15,o),
(396,45,o),
(411,150,cs),
(412,155,ls),
(427,260,o),
(362,320,o),
(229,320,cs),
(102,320,o),
(25,260,o),
(10,155,cs),
(9,150,ls),
(-6,45,o),
(55,-15,o),
(182,-15,cs)
);
},
{
closed = 1;
nodes = (
(280,123,o),
(277,134,o),
(279,151,cs),
(280,155,ls),
(282,172,o),
(289,183,o),
(302,183,cs),
(315,183,o),
(318,172,o),
(316,155,cs),
(315,151,ls),
(313,134,o),
(306,123,o),
(293,123,cs)
);
}
);
width = 677;
},
{
anchors = (
{
name = bottom;
pos = (268,0);
},
{
name = ogonek;
pos = (529,0);
},
{
name = top;
pos = (344,540);
}
);
guides = (
{
angle = 90;
pos = (-83,0);
},
{
angle = 81.949;
pos = (529,0);
},
{
angle = 81.949;
pos = (529,0);
},
{
angle = 81.949;
pos = (529,0);
},
{
angle = 81.949;
pos = (529,0);
}
);
layerId = "463395A0-2DFC-45D4-87AF-EBCF54FF53ED";
shapes = (
{
closed = 1;
nodes = (
(346,0,l),
(529,0,l),
(572,304,ls),
(595,470,o),
(522,552,o),
(329,552,cs),
(257,552,o),
(161,535,o),
(78,510,c),
(86,371,l),
(134,392,o),
(198,406,o),
(249,406,cs),
(323,406,o),
(354,372,o),
(345,304,cs),
(331,207,l)
);
},
{
closed = 1;
nodes = (
(301,-12,o),
(379,44,o),
(393,144,cs),
(397,168,l),
(410,266,o),
(348,322,o),
(224,322,cs),
(106,322,o),
(32,266,o),
(19,167,c),
(15,143,ls),
(1,44,o),
(59,-12,o),
(176,-12,cs)
);
},
{
closed = 1;
nodes = (
(224,90,o),
(209,110,o),
(213,144,c),
(217,167,l),
(221,202,o),
(242,222,o),
(276,222,cs),
(311,222,o),
(327,202,o),
(323,168,c),
(319,145,l),
(315,110,o),
(293,90,o),
(257,90,cs)
);
}
);
width = 611;
},
{
anchors = (
{
name = bottom;
pos = (343,0);
},
{
name = ogonek;
pos = (684,0);
},
{
name = top;
pos = (428,540);
}
);
guides = (
{
angle = 66.939;
pos = (166,36);
},
{
angle = 109.618;
pos = (235,275);
},
{
angle = 77.229;
pos = (314,441);
},
{
angle = 90;
pos = (-83,0);
},
{
angle = 82.047;
pos = (684,0);
},
{
angle = 82.047;
pos = (684,0);
},
{
angle = 82.047;
pos = (684,0);
},
{
angle = 82.047;
pos = (684,0);
}
);
layerId = "B66266A1-0CD1-42BF-9957-E58294B85305";
shapes = (
{
closed = 1;
nodes = (
(434,0,l),
(684,0,l),
(722,272,ls),
(749,461,o),
(641,555,o),
(393,555,cs),
(299,555,o),
(166,539,o),
(81,514,c),
(91,314,l),
(159,339,o),
(221,351,o),
(283,351,cs),
(377,351,o),
(420,324,o),
(412,272,cs),
(406,226,l)
);
},
{
closed = 1;
nodes = (
(378,-15,o),
(476,45,o),
(491,150,cs),
(492,155,ls),
(507,260,o),
(425,320,o),
(268,320,cs),
(118,320,o),
(25,260,o),
(10,155,cs),
(9,150,ls),
(-6,45,o),
(71,-15,o),
(219,-15,cs)
);
},
{
closed = 1;
nodes = (
(294,123,o),
(277,135,o),
(280,153,c),
(280,157,l),
(283,175,o),
(303,187,o),
(335,187,cs),
(370,187,o),
(389,175,o),
(386,157,c),
(386,153,l),
(383,135,o),
(360,123,o),
(325,123,cs)
);
}
);
width = 757;
},
{
anchors = (
{
name = bottom;
pos = (325,0);
},
{
name = ogonek;
pos = (642,0);
},
{
name = top;
pos = (401,540);
}
);
guides = (
{
angle = 90;
pos = (-83,0);
},
{
angle = 81.955;
pos = (642,0);
},
{
angle = 81.955;
pos = (642,0);
},
{
angle = 81.955;
pos = (642,0);
},
{
angle = 81.955;
pos = (642,0);
}
);
layerId = "3B401755-81E4-40F3-BD5E-9424281583CA";
shapes = (
{
closed = 1;
nodes = (
(433,0,l),
(642,0,l),
(682,283,ls),
(707,464,o),
(609,553,o),
(382,553,cs),
(290,553,o),
(166,531,o),
(86,501,c),
(96,342,l),
(160,369,o),
(227,383,o),
(289,383,cs),
(392,383,o),
(433,352,o),
(423,283,cs),
(413,214,l)
);
},
{
closed = 1;
nodes = (
(373,-13,o),
(471,47,o),
(485,151,cs),
(486,159,ls),
(501,262,o),
(420,321,o),
(269,321,cs),
(124,321,o),
(33,261,o),
(18,157,cs),
(17,150,ls),
(3,47,o),
(77,-13,o),
(219,-13,cs)
);
},
{
closed = 1;
nodes = (
(263,102,o),
(238,122,o),
(243,153,c),
(243,159,l),
(248,190,o),
(279,210,o),
(325,210,cs),
(376,210,o),
(402,190,o),
(398,160,cs),
(397,154,ls),
(392,122,o),
(358,102,o),
(307,102,cs)
);
}
);
width = 726;
},
{
anchors = (
{
name = bottom;
pos = (60,0);
},
{
name = ogonek;
pos = (117,0);
},
{
name = top;
pos = (136,540);
}
);
guides = (
{
angle = 88.536;
pos = (6,172);
},
{
angle = 90;
pos = (-83,0);
},
{
angle = 81.971;
pos = (118,0);
},
{
angle = 81.971;
pos = (118,0);
},
{
angle = 81.971;
pos = (118,0);
},
{
angle = 81.971;
pos = (118,0);
}
);
layerId = "3D671699-C126-4AA5-A66F-47C26817AED2";
shapes = (
{
closed = 1;
nodes = (
(115,0,l),
(118,0,l),
(185,475,ls),
(191,521,o),
(177,545,o),
(142,545,cs),
(119,545,o),
(92,533,o),
(70,495,c),
(72,493,l),
(93,529,o),
(119,541,o),
(141,541,cs),
(173,541,o),
(187,520,o),
(181,475,cs),
(136,156,l)
);
},
{
closed = 1;
nodes = (
(96,-5,o),
(123,32,o),
(133,103,cs),
(149,222,l),
(160,295,o),
(144,330,o),
(103,330,cs),
(62,330,o),
(37,294,o),
(27,222,cs),
(11,103,ls),
(1,33,o),
(16,-5,o),
(56,-5,cs)
);
},
{
closed = 1;
nodes = (
(20,-1,o),
(5,35,o),
(15,103,cs),
(31,222,ls),
(41,292,o),
(65,326,o),
(103,326,cs),
(141,326,o),
(155,293,o),
(145,222,cs),
(129,103,ls),
(119,34,o),
(94,-1,o),
(57,-1,cs)
);
}
);
width = 201;
},
{
anchors = (
{
name = bottom;
pos = (168,0);
},
{
name = ogonek;
pos = (312,0);
},
{
name = top;
pos = (244,540);
}
);
guides = (
{
angle = 218.454;
pos = (124,494);
},
{
angle = 90;
pos = (-83,0);
},
{
angle = 81.948;
pos = (312,0);
},
{
angle = 81.948;
pos = (312,0);
},
{
angle = 81.948;
pos = (312,0);
},
{
angle = 81.948;
pos = (312,0);
}
);
layerId = "46E74328-601B-43A9-9281-7B741E5F83E4";
shapes = (
{
closed = 1;
nodes = (
(277,0,l),
(312,0,l),
(370,410,l),
(382,500,o),
(343,547,o),
(255,547,cs),
(203,547,o),
(136,525,o),
(92,494,c),
(95,443,l),
(139,474,o),
(194,493,o),
(241,493,cs),
(297,493,o),
(318,468,o),
(310,410,cs),
(277,176,l)
);
},
{
closed = 1;
nodes = (
(223,-7,o),
(279,41,o),
(291,126,cs),
(301,197,ls),
(313,281,o),
(271,327,o),
(186,327,cs),
(106,327,o),
(54,279,o),
(42,195,cs),
(33,125,ls),
(21,41,o),
(59,-7,o),
(138,-7,cs)
);
},
{
closed = 1;
nodes = (
(103,41,o),
(85,69,o),
(95,145,c),
(100,174,l),
(110,251,o),
(137,279,o),
(200,279,cs),
(258,279,o),
(286,242,o),
(277,176,cs),
(273,147,ls),
(264,85,o),
(219,41,o),
(165,41,cs)
);
}
);
width = 420;
},
{
anchors = (
{
name = bottom;
pos = (263,0);
},
{
name = ogonek;
pos = (453,0);
},
{
name = top;
pos = (343,540);
}
);
guides = (
{
angle = 66.939;
pos = (216,50);
},
{
angle = 77.229;
pos = (358,480);
},
{
angle = 267.825;
pos = (147,485);
},
{
angle = 90;
pos = (-83,0);
},
{
angle = 81.955;
pos = (453,0);
},
{
angle = 81.955;
pos = (453,0);
},
{
angle = 81.955;
pos = (453,0);
},
{
angle = 81.955;
pos = (453,0);
}
);
layerId = "ECB9DAFA-B085-4474-A032-AB3BEA4F5B4C";
shapes = (
{
closed = 1;
nodes = (
(451,0,l),
(453,0,l),
(506,375,l),
(521,487,o),
(464,545,o),
(334,545,cs),
(262,545,o),
(177,521,o),
(117,485,c),
(119,482,l),
(180,518,o),
(263,541,o),
(333,541,cs),
(460,541,o),
(517,485,o),
(502,375,cs),
(471,157,l)
);
},
{
closed = 1;
nodes = (
(368,-5,o),
(460,59,o),
(475,165,cs),
(478,185,ls),
(492,283,o),
(417,342,o),
(285,342,cs),
(161,342,o),
(76,280,o),
(62,178,cs),
(59,159,ls),
(45,57,o),
(110,-5,o),
(229,-5,cs)
);
},
{
closed = 1;
nodes = (
(113,-1,o),
(49,60,o),
(63,159,cs),
(66,178,ls),
(80,277,o),
(163,338,o),
(285,338,cs),
(417,338,o),
(488,280,o),
(475,185,cs),
(472,165,ls),
(458,61,o),
(367,-1,o),
(230,-1,cs)
);
}
);
width = 591;
},
{
anchors = (
{
name = bottom;
pos = (233,0);
},
{
name = ogonek;
pos = (435,0);
},
{
name = top;
pos = (311,540);
}
);
guides = (
{
angle = 90;
pos = (-83,0);
},
{
angle = 81.979;
pos = (435,0);
},
{
angle = 81.979;
pos = (435,0);
},
{
angle = 81.979;
pos = (435,0);
},
{
angle = 81.979;
pos = (435,0);
}
);
layerId = "287B816B-C6D9-4D62-948A-F2FEA8E41A5A";
shapes = (
{
closed = 1;
nodes = (
(400,0,l),
(435,0,l),
(487,369,ls),
(503,487,o),
(447,547,o),
(318,547,cs),
(248,547,o),
(160,523,o),
(105,490,c),
(108,439,l),
(167,474,o),
(234,493,o),
(299,493,cs),
(400,493,o),
(439,456,o),
(427,369,cs),
(399,173,l)
);
},
{
closed = 1;
nodes = (
(326,-7,o),
(412,50,o),
(425,145,cs),
(430,180,ls),
(443,273,o),
(374,325,o),
(251,325,cs),
(135,325,o),
(60,270,o),
(47,175,cs),
(42,142,ls),
(29,49,o),
(88,-7,o),
(199,-7,cs)
);
},
{
closed = 1;
nodes = (
(137,41,o),
(93,79,o),
(104,153,cs),
(106,167,ls),
(117,248,o),
(171,277,o),
(260,277,cs),
(357,277,o),
(409,238,o),
(399,172,cs),
(397,156,ls),
(387,86,o),
(319,41,o),
(222,41,cs)
);
}
);
width = 553;
}
);
metricRight = n;
partsSettings = (
{
bottomValue = 0;
name = Op;
topValue = 1000;
},
{
bottomValue = 0;
name = Sl;
topValue = 1000;
},
{
bottomValue = 0;
name = Wd;
topValue = 1000;
},
{
bottomValue = 0;
name = Wt;
topValue = 1000;
}
);
unicode = 97;
},
{
glyphname = b;
kernLeft = public.kern2.h;
kernRight = public.kern1.o;
layers = (
{
anchors = (
{
name = "#entry";
pos = (100,700);
}
);
layerId = "3C3B4AE3-80BB-44A4-A3CD-A752C08638B1";
shapes = (
{
closed = 1;
nodes = (
(551,-15,o),
(648,82,o),
(672,256,cs),
(676,284,ls),
(700,458,o),
(631,555,o),
(488,555,cs),
(343,555,o),
(246,457,o),
(222,284,cs),
(218,256,ls),
(194,82,o),
(262,-15,o),
(408,-15,cs)
);
},
{
closed = 1;
nodes = (
(2,0,l),
(195,0,l),
(334,229,l),
(406,740,l),
(106,740,l)
);
},
{
closed = 1;
nodes = (
(336,195,o),
(331,207,o),
(334,229,cs),
(346,311,ls),
(349,333,o),
(358,345,o),
(370,345,cs),
(380,345,o),
(384,338,o),
(381,321,cs),
(367,219,ls),
(364,202,o),
(358,195,o),
(348,195,cs)
);
}
);
width = 690;
},
{
anchors = (
{
name = "#entry";
pos = (110,700);
}
);
layerId = "463395A0-2DFC-45D4-87AF-EBCF54FF53ED";
shapes = (
{
closed = 1;
nodes = (
(500,-12,o),
(588,74,o),
(610,230,cs),
(622,310,l),
(643,465,o),
(580,552,o),
(445,552,cs),
(306,552,o),
(208,458,o),
(185,297,cs),
(177,244,l),
(156,83,o),
(226,-12,o),
(367,-12,cs)
);
},
{
closed = 1;
nodes = (
(12,0,l),
(153,0,l),
(259,194,l),
(336,740,l),
(116,740,l)
);
},
{
closed = 1;
nodes = (
(278,142,o),
(257,176,o),
(265,232,cs),
(275,308,ls),
(283,364,o),
(314,397,o),
(357,397,cs),
(393,397,o),
(410,372,o),
(404,326,cs),
(388,213,ls),
(382,167,o),
(357,142,o),
(321,142,cs)
);
}
);
width = 646;
},
{
anchors = (
{
name = "#entry";
pos = (100,700);
}
);
layerId = "B66266A1-0CD1-42BF-9957-E58294B85305";
shapes = (
{
closed = 1;
nodes = (
(655,-15,o),
(768,84,o),
(793,261,cs),
(795,279,ls),
(820,456,o),
(732,555,o),
(555,555,cs),
(378,555,o),
(246,448,o),
(222,284,cs),
(218,256,ls),
(196,92,o),
(301,-15,o),
(485,-15,cs)
);
},
{
closed = 1;
nodes = (
(2,0,l),
(195,0,l),
(320,129,l),
(406,740,l),
(106,740,l)
);
},
{
closed = 1;
nodes = (
(358,195,o),
(333,221,o),
(339,265,cs),
(340,271,ls),
(346,315,o),
(380,341,o),
(429,341,cs),
(474,341,o),
(500,313,o),
(494,271,cs),
(493,265,ls),
(487,223,o),
(453,195,o),
(408,195,cs)
);
}
);
width = 819;
},
{
anchors = (
{
name = "#entry";
pos = (112,700);
}
);
layerId = "3B401755-81E4-40F3-BD5E-9424281583CA";
shapes = (
{
closed = 1;
nodes = (
(623,-13,o),
(732,84,o),
(756,257,cs),
(760,283,ls),
(784,456,o),
(700,553,o),
(531,553,cs),
(357,553,o),
(227,448,o),
(203,284,cs),
(199,257,ls),
(177,93,o),
(279,-13,o),
(459,-13,cs)
);
},
{
closed = 1;
nodes = (
(14,0,l),
(175,0,l),
(284,144,l),
(368,740,l),
(118,740,l)
);
},
{
closed = 1;
nodes = (
(327,162,o),
(292,201,o),
(301,265,cs),
(302,273,ls),
(311,337,o),
(358,375,o),
(426,375,cs),
(485,375,o),
(517,337,o),
(509,277,cs),
(507,260,ls),
(498,200,o),
(455,162,o),
(396,162,cs)
);
}
);
width = 792;
},
{
anchors = (
{
name = "#entry";
pos = (110,700);
}
);
layerId = "3D671699-C126-4AA5-A66F-47C26817AED2";
shapes = (
{
closed = 1;
nodes = (
(124,-5,o),
(148,26,o),
(157,95,c),
(207,445,l),
(216,513,o),
(202,545,o),
(160,545,cs),
(115,545,o),
(81,483,o),
(65,371,cs),
(37,169,ls),
(22,61,o),
(39,-5,o),
(82,-5,cs)
);
},
{
closed = 1;
nodes = (
(12,0,l),
(14,0,l),
(38,156,l),
(120,740,l),
(116,740,l)
);
},
{
closed = 1;
nodes = (
(42,-1,o),
(25,64,o),
(40,169,cs),
(68,371,ls),
(84,481,o),
(116,541,o),
(159,541,cs),
(198,541,o),
(212,511,o),
(203,445,cs),
(153,95,ls),
(144,28,o),
(122,-1,o),
(83,-1,cs)
);
}
);
width = 222;
},
{
anchors = (
{
name = "#entry";
pos = (135,700);
}
);
layerId = "46E74328-601B-43A9-9281-7B741E5F83E4";
shapes = (
{
closed = 1;
nodes = (
(317,-7,o),
(373,52,o),
(389,163,cs),
(419,377,ls),
(434,487,o),
(395,547,o),
(307,547,cs),
(209,547,o),
(138,468,o),
(118,332,cs),
(101,211,ls),
(83,76,o),
(132,-7,o),
(229,-7,cs)
);
},
{
closed = 1;
nodes = (
(37,0,l),
(72,0,l),
(122,178,l),
(201,740,l),
(141,740,l)
);
},
{
closed = 1;
nodes = (
(148,46,o),
(112,108,o),
(126,209,cs),
(144,332,l),
(158,435,o),
(209,493,o),
(281,493,cs),
(342,493,o),
(370,453,o),
(359,379,c),
(329,160,l),
(318,86,o),
(280,46,o),
(219,46,cs)
);
}
);
width = 464;
},
{
anchors = (
{
name = "#entry";
pos = (170,700);
}
);
guides = (
{
angle = 229.025;
pos = (309,235);
}
);
layerId = "ECB9DAFA-B085-4474-A032-AB3BEA4F5B4C";
shapes = (
{
closed = 1;
nodes = (
(464,-5,o),
(554,83,o),
(575,235,cs),
(585,305,ls),
(606,455,o),
(543,545,o),
(410,545,cs),
(250,545,o),
(135,448,o),
(112,285,cs),
(109,264,ls),
(86,96,o),
(172,-5,o),
(332,-5,cs)
);
},
{
closed = 1;
nodes = (
(72,0,l),
(74,0,l),
(107,220,l),
(180,740,l),
(176,740,l)
);
},
{
closed = 1;
nodes = (
(174,-1,o),
(90,100,o),
(113,264,cs),
(116,285,ls),
(138,444,o),
(250,541,o),
(409,541,cs),
(538,541,o),
(602,454,o),
(581,305,cs),
(571,235,ls),
(550,85,o),
(463,-1,o),
(333,-1,cs)
);
}
);
width = 660;
},
{
anchors = (
{
name = "#entry";
pos = (150,700);
}
);
layerId = "287B816B-C6D9-4D62-948A-F2FEA8E41A5A";
shapes = (
{
closed = 1;
nodes = (
(458,-7,o),
(547,73,o),
(567,215,cs),
(583,325,ls),
(603,466,o),
(536,547,o),
(399,547,cs),
(253,547,o),
(145,452,o),
(123,301,cs),
(115,244,ls),
(94,92,o),
(176,-7,o),
(321,-7,cs)
);
},
{
closed = 1;
nodes = (
(52,0,l),
(87,0,l),
(136,172,l),
(216,740,l),
(156,740,l)
);
},
{
closed = 1;
nodes = (
(198,41,o),
(129,122,o),
(148,254,cs),
(153,289,ls),
(171,420,o),
(261,498,o),
(392,498,cs),
(491,498,o),
(538,432,o),
(521,315,cs),
(508,223,ls),
(492,108,o),
(426,41,o),
(328,41,cs)
);
}
);
width = 645;
}
);
metricLeft = l;
metricRight = o;
unicode = 98;
},
{
glyphname = c;
kernLeft = public.kern2.o;
kernRight = public.kern1.c;
layers = (
{
anchors = (
{
name = bottom;
pos = (295,0);
},
{
name = top;
pos = (371,540);
}
);
guides = (
{
angle = 175.914;
pos = (337,223);
},
{
angle = 184.086;
pos = (363,317);
}
);
layerId = "3C3B4AE3-80BB-44A4-A3CD-A752C08638B1";
shapes = (
{
closed = 1;
nodes = (
(449,-15,o),
(567,68,o),
(610,218,c),
(346,238,l),
(340,198,o),
(332,180,o),
(320,180,cs),
(308,180,o),
(305,190,o),
(308,213,cs),
(324,327,ls),
(327,350,o),
(334,360,o),
(346,360,cs),
(358,360,o),
(360,342,o),
(354,302,c),
(624,322,l),
(623,472,o),
(528,555,o),
(353,555,cs),
(163,555,o),
(42,458,o),
(18,284,cs),
(14,256,ls),
(-10,82,o),
(83,-15,o),
(273,-15,cs)
);
}
);
width = 629;
},
{
anchors = (
{
name = bottom;
pos = (268,0);
},
{
name = top;
pos = (354,540);
}
);
layerId = "463395A0-2DFC-45D4-87AF-EBCF54FF53ED";
shapes = (
{
closed = 1;
nodes = (
(420,-12,o),
(527,64,o),
(563,200,c),
(365,214,l),
(354,160,o),
(328,131,o),
(291,131,cs),
(253,131,o),
(234,159,o),
(241,208,cs),
(259,332,ls),
(266,381,o),
(293,409,o),
(331,409,cs),
(368,409,o),
(384,380,o),
(381,326,c),
(583,340,l),
(585,476,o),
(499,552,o),
(336,552,cs),
(168,552,o),
(57,463,o),
(36,310,c),
(24,230,l),
(3,76,o),
(88,-12,o),
(256,-12,cs)
);
}
);
width = 595;
},
{
anchors = (
{
name = bottom;
pos = (365,0);
},
{
name = top;
pos = (451,540);
}
);
guides = (
{
angle = 184.086;
pos = (503,313);
},
{
angle = 175.914;
pos = (479,227);
},
{
angle = 184.086;
pos = (477,293);
}
);
layerId = "B66266A1-0CD1-42BF-9957-E58294B85305";
shapes = (
{
closed = 1;
nodes = (
(571,-15,o),
(718,78,o),
(750,227,c),
(468,247,l),
(456,207,o),
(427,180,o),
(385,180,cs),
(342,180,o),
(317,211,o),
(323,257,cs),
(327,283,ls),
(333,329,o),
(368,360,o),
(411,360,cs),
(453,360,o),
(474,333,o),
(474,293,c),
(762,313,l),
(772,462,o),
(651,555,o),
(418,555,cs),
(198,555,o),
(50,450,o),
(26,279,cs),
(24,261,ls),
(0,90,o),
(118,-15,o),
(338,-15,cs)
);
}
);
width = 775;
},
{
anchors = (
{
name = bottom;
pos = (350,0);
},
{
name = top;
pos = (436,540);
}
);
layerId = "3B401755-81E4-40F3-BD5E-9424281583CA";
shapes = (
{
closed = 1;
nodes = (
(542,-13,o),
(681,76,o),
(713,219,c),
(478,236,l),
(462,183,o),
(423,149,o),
(367,149,cs),
(307,149,o),
(274,190,o),
(283,253,cs),
(287,287,l),
(296,349,o),
(342,391,o),
(401,391,cs),
(457,391,o),
(486,357,o),
(488,304,c),
(727,321,l),
(735,464,o),
(622,553,o),
(407,553,cs),
(201,553,o),
(60,450,o),
(37,283,cs),
(33,257,ls),
(10,89,o),
(120,-13,o),
(327,-13,cs)
);
}
);
width = 746;
},
{
anchors = (
{
name = bottom;
pos = (66,0);
},
{
name = top;
pos = (142,540);
}
);
guides = (
{
angle = 184.086;
pos = (74,375);
},
{
angle = 175.914;
pos = (14,165);
}
);
layerId = "3D671699-C126-4AA5-A66F-47C26817AED2";
shapes = (
{
closed = 1;
nodes = (
(106,-5,o),
(132,33,o),
(145,114,c),
(141,114,l),
(128,35,o),
(104,-1,o),
(65,-1,cs),
(27,-1,o),
(11,32,o),
(19,95,c),
(69,445,l),
(77,508,o),
(103,541,o),
(141,541,cs),
(180,541,o),
(194,505,o),
(185,426,c),
(189,426,l),
(198,507,o),
(184,545,o),
(142,545,cs),
(101,545,o),
(74,510,o),
(65,445,cs),
(15,95,ls),
(6,30,o),
(23,-5,o),
(64,-5,cs)
);
}
);
width = 183;
},
{
anchors = (
{
name = bottom;
pos = (187,0);
},
{
name = top;
pos = (263,540);
}
);
layerId = "46E74328-601B-43A9-9281-7B741E5F83E4";
shapes = (
{
closed = 1;
nodes = (
(273,-7,o),
(337,49,o),
(361,152,c),
(306,156,l),
(289,85,o),
(249,47,o),
(189,47,cs),
(126,47,o),
(95,89,o),
(104,159,c),
(136,381,l),
(145,451,o),
(189,493,o),
(251,493,cs),
(311,493,o),
(341,455,o),
(338,384,c),
(395,388,l),
(399,491,o),
(351,547,o),
(255,547,cs),
(157,547,o),
(90,484,o),
(75,377,cs),
(45,163,ls),
(30,55,o),
(78,-7,o),
(177,-7,cs)
);
}
);
width = 423;
},
{
anchors = (
{
name = bottom;
pos = (280,-1);
},
{
name = top;
pos = (356,540);
}
);
guides = (
{
angle = 186.818;
pos = (94,305);
},
{
angle = 44.881;
pos = (251,-5);
},
{
angle = 173.182;
pos = (74,235);
}
);
layerId = "ECB9DAFA-B085-4474-A032-AB3BEA4F5B4C";
shapes = (
{
closed = 1;
nodes = (
(396,-5,o),
(489,64,o),
(526,179,c),
(522,180,l),
(486,67,o),
(395,-1,o),
(270,-1,cs),
(131,-1,o),
(59,89,o),
(79,235,cs),
(89,305,ls),
(109,450,o),
(208,541,o),
(346,541,cs),
(471,541,o),
(544,473,o),
(548,360,c),
(552,361,l),
(547,476,o),
(474,545,o),
(347,545,cs),
(207,545,o),
(106,452,o),
(85,305,cs),
(75,235,ls),
(54,86,o),
(128,-5,o),
(269,-5,cs)
);
}
);
width = 599;
},
{
anchors = (
{
name = bottom;
pos = (279,0);
},
{
name = top;
pos = (355,540);
}
);
layerId = "287B816B-C6D9-4D62-948A-F2FEA8E41A5A";
shapes = (
{
closed = 1;
nodes = (
(400,-7,o),
(502,65,o),
(530,178,c),
(471,183,l),
(441,94,o),
(375,47,o),
(275,47,cs),
(164,47,o),
(107,109,o),
(122,215,cs),
(138,325,l),
(152,429,o),
(228,493,o),
(337,493,cs),
(439,493,o),
(491,448,o),
(495,357,c),
(556,362,l),
(560,477,o),
(479,547,o),
(345,547,cs),
(200,547,o),
(97,461,o),
(78,325,cs),
(62,215,ls),
(43,77,o),
(121,-7,o),
(267,-7,cs)
);
}
);
width = 595;
}
);
metricLeft = o;
unicode = 99;
},
{
glyphname = d;
kernLeft = public.kern2.o;
kernRight = public.kern1.l;
layers = (
{
anchors = (
{
name = bottom;
pos = (268,0);
},
{
name = center;
pos = (552,640);
},
{
name = top;
pos = (343,540);
},
{
name = topright;
pos = (728,540);
}
);
layerId = "3C3B4AE3-80BB-44A4-A3CD-A752C08638B1";
shapes = (
{
closed = 1;
nodes = (
(348,-15,o),
(444,82,o),
(468,256,cs),
(472,284,ls),
(496,457,o),
(427,555,o),
(282,555,cs),
(139,555,o),
(42,458,o),
(18,284,cs),
(14,256,ls),
(-10,82,o),
(59,-15,o),
(202,-15,cs)
);
},
{
closed = 1;
nodes = (
(310,195,o),
(306,202,o),
(309,219,cs),
(323,321,ls),
(326,338,o),
(332,345,o),
(342,345,cs),
(354,345,o),
(359,333,o),
(356,311,cs),
(344,229,ls),
(341,207,o),
(332,195,o),
(320,195,cs)
);
},
{
closed = 1;
nodes = (
(419,0,l),
(612,0,l),
(716,740,l),
(416,740,l),
(344,229,l)
);
}
);
width = 690;
},
{
anchors = (
{
name = bottom;
pos = (244,0);
},
{
name = center;
pos = (538,640);
},
{
name = top;
pos = (319,540);
},
{
name = topright;
pos = (684,540);
}
);
layerId = "463395A0-2DFC-45D4-87AF-EBCF54FF53ED";
shapes = (
{
closed = 1;
nodes = (
(340,-12,o),
(439,83,o),
(461,244,cs),
(469,297,ls),
(491,458,o),
(420,552,o),
(281,552,cs),
(147,552,o),
(57,465,o),
(36,310,c),
(24,230,ls),
(2,74,o),
(66,-12,o),
(199,-12,cs)
);
},
{
closed = 1;
nodes = (
(253,142,o),
(236,167,o),
(242,213,cs),
(258,326,ls),
(264,372,o),
(289,397,o),
(326,397,cs),
(369,397,o),
(389,364,o),
(381,308,cs),
(371,232,ls),
(363,176,o),
(333,142,o),
(290,142,cs)
);
},
{
closed = 1;
nodes = (
(417,0,l),
(558,0,l),
(662,740,l),
(442,740,l),
(365,194,l)
);
}
);
width = 646;
},
{
anchors = (
{
name = bottom;
pos = (288,0);
},
{
name = center;
pos = (681,640);
},
{
name = top;
pos = (364,540);
},
{
name = topright;
pos = (857,540);
}
);
layerId = "B66266A1-0CD1-42BF-9957-E58294B85305";
shapes = (
{
closed = 1;
nodes = (
(438,-15,o),
(573,92,o),
(597,256,cs),
(601,284,ls),
(623,448,o),
(521,555,o),
(344,555,cs),
(167,555,o),
(51,456,o),
(26,279,cs),
(24,261,ls),
(-1,84,o),
(84,-15,o),
(254,-15,cs)
);
},
{
closed = 1;
nodes = (
(344,195,o),
(318,223,o),
(324,265,cs),
(325,271,ls),
(331,313,o),
(365,341,o),
(410,341,cs),
(459,341,o),
(485,315,o),
(479,271,cs),
(478,265,ls),
(472,221,o),
(439,195,o),
(389,195,cs)
);
},
{
closed = 1;
nodes = (
(548,0,l),
(741,0,l),
(845,740,l),
(545,740,l),
(459,129,l)
);
}
);
width = 819;
},
{
anchors = (
{
name = bottom;
pos = (287,0);
},
{
name = center;
pos = (668,640);
},
{
name = top;
pos = (363,540);
},
{
name = topright;
pos = (831,540);
}
);
layerId = "3B401755-81E4-40F3-BD5E-9424281583CA";
shapes = (
{
closed = 1;
nodes = (
(434,-13,o),
(566,93,o),
(590,257,cs),
(594,284,ls),
(616,448,o),
(516,553,o),
(342,553,cs),
(173,553,o),
(61,456,o),
(37,283,cs),
(33,257,ls),
(9,84,o),
(90,-13,o),
(254,-13,cs)
);
},
{
closed = 1;
nodes = (
(308,162,o),
(275,200,o),
(284,260,cs),
(286,277,ls),
(294,337,o),
(338,375,o),
(397,375,cs),
(465,375,o),
(500,337,o),
(491,273,cs),
(490,265,ls),
(481,201,o),
(436,162,o),
(367,162,cs)
);
},
{
closed = 1;
nodes = (
(542,0,l),
(703,0,l),
(807,740,l),
(557,740,l),
(473,144,l)
);
}
);
width = 793;
},
{
anchors = (
{
name = bottom;
pos = (63,0);
},
{
name = center;
pos = (222,640);
},
{
name = top;
pos = (139,540);
},
{
name = topright;
pos = (260,540);
}
);
layerId = "3D671699-C126-4AA5-A66F-47C26817AED2";
shapes = (
{
closed = 1;
nodes = (
(105,-5,o),
(142,61,o),
(157,169,cs),
(185,371,ls),
(201,483,o),
(185,545,o),
(140,545,cs),
(98,545,o),
(74,513,o),
(65,445,c),
(15,95,l),
(6,26,o),
(20,-5,o),
(62,-5,cs)
);
},
{
closed = 1;
nodes = (
(24,-1,o),
(10,28,o),
(19,95,cs),
(69,445,ls),
(78,511,o),
(100,541,o),
(139,541,cs),
(182,541,o),
(198,481,o),
(182,371,cs),
(154,169,ls),
(139,64,o),
(104,-1,o),
(63,-1,cs)
);
},
{
closed = 1;
nodes = (
(132,0,l),
(134,0,l),
(238,740,l),
(234,740,l),
(152,156,l)
);
}
);
width = 222;
},
{
anchors = (
{
name = bottom;
pos = (174,0);
},
{
name = center;
pos = (410,640);
},
{
name = top;
pos = (250,540);
},
{
name = topright;
pos = (501,540);
}
);
layerId = "46E74328-601B-43A9-9281-7B741E5F83E4";
shapes = (
{
closed = 1;
nodes = (
(254,-7,o),
(327,76,o),
(346,211,cs),
(363,332,ls),
(382,468,o),
(333,547,o),
(235,547,cs),
(147,547,o),
(90,487,o),
(75,377,cs),
(45,163,ls),
(29,52,o),
(69,-7,o),
(156,-7,cs)
);
},
{
closed = 1;
nodes = (
(122,46,o),
(94,86,o),
(105,160,c),
(135,379,l),
(146,453,o),
(184,493,o),
(245,493,cs),
(317,493,o),
(351,435,o),
(337,332,c),
(319,209,ls),
(305,108,o),
(254,46,o),
(183,46,cs)
);
},
{
closed = 1;
nodes = (
(315,0,l),
(350,0,l),
(454,740,l),
(394,740,l),
(315,178,l)
);
}
);
width = 463;
},
{
anchors = (
{
name = bottom;
pos = (278,0);
},
{
name = center;
pos = (600,640);
},
{
name = top;
pos = (354,540);
},
{
name = topright;
pos = (698,540);
}
);
guides = (
{
angle = 229.025;
pos = (279,235);
}
);
layerId = "ECB9DAFA-B085-4474-A032-AB3BEA4F5B4C";
shapes = (
{
closed = 1;
nodes = (
(410,-5,o),
(526,96,o),
(549,264,cs),
(552,285,ls),
(575,448,o),
(488,545,o),
(328,545,cs),
(195,545,o),
(106,455,o),
(85,305,cs),
(75,235,ls),
(54,83,o),
(118,-5,o),
(250,-5,cs)
);
},
{
closed = 1;
nodes = (
(121,-1,o),
(58,85,o),
(79,235,cs),
(89,305,ls),
(110,454,o),
(198,541,o),
(327,541,cs),
(486,541,o),
(570,444,o),
(548,285,cs),
(545,264,ls),
(522,100,o),
(410,-1,o),
(251,-1,cs)
);
},
{
closed = 1;
nodes = (
(510,0,l),
(512,0,l),
(616,740,l),
(612,740,l),
(539,220,l)
);
}
);
width = 660;
},
{
anchors = (
{
name = bottom;
pos = (250,0);
},
{
name = center;
pos = (576,640);
},
{
name = top;
pos = (327,540);
},
{
name = topright;
pos = (682,540);
}
);
layerId = "287B816B-C6D9-4D62-948A-F2FEA8E41A5A";
shapes = (
{
closed = 1;
nodes = (
(391,-7,o),
(501,92,o),
(522,244,cs),
(530,301,ls),
(552,452,o),
(470,547,o),
(324,547,cs),
(187,547,o),
(98,466,o),
(78,325,cs),
(62,215,ls),
(42,73,o),
(109,-7,o),
(246,-7,cs)
);
},
{
closed = 1;
nodes = (
(155,41,o),
(107,108,o),
(123,223,cs),
(136,315,ls),
(153,432,o),
(218,498,o),
(317,498,cs),
(448,498,o),
(516,420,o),
(498,289,cs),
(493,254,ls),
(474,122,o),
(383,41,o),
(253,41,cs)
);
},
{
closed = 1;
nodes = (
(482,0,l),
(517,0,l),
(621,740,l),
(561,740,l),
(481,172,l)
);
}
);
width = 645;
}
);
metricLeft = o;
metricRight = l;
unicode = 100;
},
{
glyphname = eth;
kernLeft = public.kern2.eth;
kernRight = public.kern1.eth;
layers = (
{
guides = (
{
angle = 90;
pos = (395,0);
},
{
angle = 189.902;
pos = (298,674);
}
);
layerId = "3C3B4AE3-80BB-44A4-A3CD-A752C08638B1";
shapes = (
{
closed = 1;
nodes = (
(486,-15,o),
(625,104,o),
(646,257,cs),
(650,283,ls),
(674,455,o),
(655,628,o),
(623,800,c),
(341,753,l),
(363,636,o),
(377,518,o),
(373,401,c),
(598,383,l),
(611,479,o),
(526,555,o),
(371,555,cs),
(176,555,o),
(39,451,o),
(16,283,cs),
(12,257,ls),
(-9,104,o),
(96,-15,o),
(291,-15,cs)
);
},
{
closed = 1;
nodes = (
(308,195,o),
(305,203,o),
(307,223,c),
(321,317,l),
(323,337,o),
(330,345,o),
(342,345,cs),
(354,345,o),
(357,337,o),
(355,317,c),
(341,223,l),
(339,203,o),
(332,195,o),
(320,195,cs)
);
},
{
closed = 1;
nodes = (
(249,587,l),
(724,668,l),
(737,758,l),
(261,677,l)
);
}
);
width = 672;
},
{
layerId = "463395A0-2DFC-45D4-87AF-EBCF54FF53ED";
shapes = (
{
closed = 1;
nodes = (
(445,-12,o),
(566,80,o),
(587,230,cs),
(599,310,ls),
(622,473,o),
(616,637,o),
(601,800,c),
(367,761,l),
(377,664,o),
(384,586,o),
(379,469,c),
(576,383,l),
(589,477,o),
(505,552,o),
(350,552,cs),
(174,552,o),
(53,461,o),
(32,310,cs),
(20,230,ls),
(-1,79,o),
(94,-12,o),
(270,-12,cs)
);
},
{
closed = 1;
nodes = (
(252,143,o),
(232,169,o),
(238,215,cs),
(254,325,ls),
(260,371,o),
(288,397,o),
(328,397,cs),
(368,397,o),
(387,371,o),
(381,325,cs),
(365,215,ls),
(359,169,o),
(332,143,o),
(292,143,cs)
);
},
{
closed = 1;
nodes = (
(257,592,l),
(702,668,l),
(715,758,l),
(270,682,l)
);
}
);
width = 651;
},
{
guides = (
{
angle = 92.083;
pos = (845,498);
},
{
angle = 188.824;
pos = (766,800);
}
);
layerId = "B66266A1-0CD1-42BF-9957-E58294B85305";
shapes = (
{
closed = 1;
nodes = (
(593,-15,o),
(754,103,o),
(776,262,cs),
(778,278,ls),
(800,437,o),
(775,626,o),
(691,800,c),
(409,756,l),
(466,633,o),
(506,510,o),
(507,387,c),
(733,367,l),
(748,475,o),
(637,555,o),
(439,555,cs),
(205,555,o),
(44,437,o),
(22,278,cs),
(20,262,ls),
(-2,103,o),
(125,-15,o),
(359,-15,cs)
);
},
{
closed = 1;
nodes = (
(343,200,o),
(315,227,o),
(321,267,c),
(321,273,l),
(327,313,o),
(363,340,o),
(409,340,cs),
(455,340,o),
(483,313,o),
(477,273,c),
(477,267,l),
(471,227,o),
(435,200,o),
(389,200,cs)
);
},
{
closed = 1;
nodes = (
(318,588,l),
(863,670,l),
(876,760,l),
(330,678,l)
);
}
);
width = 811;
},
{
guides = (
{
pos = (0,222);
},
{
angle = 189.086;
pos = (762,800);
}
);
layerId = "3B401755-81E4-40F3-BD5E-9424281583CA";
shapes = (
{
closed = 1;
nodes = (
(564,-13,o),
(713,88,o),
(737,257,cs),
(741,283,ls),
(764,450,o),
(748,628,o),
(687,800,c),
(426,759,l),
(466,645,o),
(493,531,o),
(491,417,c),
(675,340,l),
(692,463,o),
(598,553,o),
(424,553,cs),
(205,553,o),
(55,450,o),
(32,283,cs),
(28,257,ls),
(5,89,o),
(125,-13,o),
(344,-13,cs)
);
},
{
closed = 1;
nodes = (
(307,166,o),
(271,204,o),
(279,262,cs),
(281,278,ls),
(289,336,o),
(337,374,o),
(399,374,cs),
(462,374,o),
(498,336,o),
(490,278,cs),
(488,262,ls),
(480,204,o),
(432,166,o),
(369,166,cs)
);
},
{
closed = 1;
nodes = (
(334,590,l),
(839,669,l),
(852,759,l),
(347,680,l)
);
}
);
width = 788;
},
{
layerId = "3D671699-C126-4AA5-A66F-47C26817AED2";
shapes = (
{
closed = 1;
nodes = (
(105,-5,o),
(132,28,o),
(141,95,cs),
(187,420,ls),
(202,527,o),
(207,633,o),
(204,740,c),
(200,740,l),
(203,646,o),
(199,553,o),
(188,460,c),
(190,459,l),
(187,501,o),
(169,520,o),
(135,520,cs),
(91,520,o),
(65,488,o),
(55,420,cs),
(9,95,ls),
(0,28,o),
(17,-5,o),
(61,-5,cs)
);
},
{
closed = 1;
nodes = (
(21,-1,o),
(4,31,o),
(13,95,cs),
(59,420,ls),
(68,485,o),
(93,516,o),
(135,516,cs),
(177,516,o),
(192,485,o),
(183,420,cs),
(137,95,ls),
(128,31,o),
(103,-1,o),
(62,-1,cs)
);
},
{
closed = 1;
nodes = (
(125,622,l),
(248,667,l),
(248,671,l),
(126,626,l)
);
}
);
width = 207;
},
{
guides = (
{
angle = 93.201;
pos = (442,380);
},
{
angle = 284.036;
pos = (385,740);
},
{
angle = 20.623;
pos = (338,705);
},
{
angle = 96.71;
pos = (382,507);
}
);
layerId = "46E74328-601B-43A9-9281-7B741E5F83E4";
shapes = (
{
closed = 1;
nodes = (
(280,-7,o),
(351,55,o),
(366,163,cs),
(389,327,ls),
(408,464,o),
(393,629,o),
(375,740,c),
(320,721,l),
(341,629,o),
(351,537,o),
(347,447,c),
(355,453,l),
(340,482,o),
(299,497,o),
(248,497,cs),
(144,497,o),
(74,435,o),
(59,327,cs),
(36,163,ls),
(21,55,o),
(73,-7,o),
(177,-7,cs)
);
},
{
closed = 1;
nodes = (
(118,47,o),
(85,88,o),
(96,161,c),
(119,329,l),
(130,403,o),
(173,443,o),
(240,443,cs),
(306,443,o),
(340,403,o),
(329,329,c),
(306,161,l),
(295,88,o),
(251,47,o),
(185,47,cs)
);
},
{
closed = 1;
nodes = (
(215,554,l),
(495,655,l),
(502,705,l),
(222,604,l)
);
}
);
width = 449;
},
{
guides = (
{
pos = (0,317);
}
);
layerId = "ECB9DAFA-B085-4474-A032-AB3BEA4F5B4C";
shapes = (
{
closed = 1;
nodes = (
(413,-5,o),
(516,86,o),
(537,235,cs),
(543,280,ls),
(565,433,o),
(556,587,o),
(518,740,c),
(514,740,l),
(548,600,o),
(559,460,o),
(545,320,c),
(547,317,l),
(550,444,o),
(475,520,o),
(341,520,cs),
(195,520,o),
(90,427,o),
(69,280,cs),
(63,235,ls),
(42,86,o),
(120,-5,o),
(267,-5,cs)
);
},
{
closed = 1;
nodes = (
(123,-1,o),
(47,89,o),
(67,235,cs),
(73,280,ls),
(94,425,o),
(197,516,o),
(341,516,cs),
(485,516,o),
(560,426,o),
(539,280,cs),
(533,235,ls),
(513,89,o),
(412,-1,o),
(268,-1,cs)
);
},
{
closed = 1;
nodes = (
(419,591,l),
(656,667,l),
(656,671,l),
(420,595,l)
);
}
);
width = 611;
},
{
guides = (
{
angle = 93.201;
pos = (570,217);
},
{
angle = 200.556;
pos = (606,740);
}
);
layerId = "287B816B-C6D9-4D62-948A-F2FEA8E41A5A";
shapes = (
{
closed = 1;
nodes = (
(416,-7,o),
(519,76,o),
(538,215,cs),
(547,275,l),
(568,430,o),
(566,585,o),
(540,740,c),
(484,721,l),
(501,617,o),
(507,511,o),
(502,408,c),
(511,412,l),
(483,466,o),
(421,497,o),
(335,497,cs),
(185,497,o),
(80,412,o),
(61,275,cs),
(52,215,ls),
(33,76,o),
(112,-7,o),
(264,-7,cs)
);
},
{
closed = 1;
nodes = (
(160,47,o),
(98,112,o),
(112,215,cs),
(121,275,ls),
(135,378,o),
(215,443,o),
(327,443,cs),
(440,443,o),
(501,379,o),
(487,275,c),
(478,215,l),
(464,111,o),
(385,47,o),
(272,47,cs)
);
},
{
closed = 1;
nodes = (
(359,547,l),
(671,658,l),
(678,708,l),
(366,597,l)
);
}
);
width = 625;
}
);
unicode = 240;
},
{
glyphname = e;
kernLeft = public.kern2.o;
kernRight = public.kern1.e;
lastChange = "2023-01-16 12:45:25 +0000";
layers = (
{
anchors = (
{
name = "#entry";
pos = (354,540);
},
{
name = bottom;
pos = (296,0);
},
{
name = ogonek;
pos = (413,0);
},
{
name = top;
pos = (372,540);
}
);
guides = (
{
angle = 5.974;
pos = (204,371);
},
{
angle = 250.478;
pos = (325,169);
}
);
layerId = "3C3B4AE3-80BB-44A4-A3CD-A752C08638B1";
shapes = (
{
closed = 1;
nodes = (
(453,-15,o),
(573,50,o),
(628,160,c),
(348,188,l),
(339,168,o),
(330,160,o),
(318,160,cs),
(306,160,o),
(302,168,o),
(304,188,c),
(325,342,ls),
(328,362,o),
(334,370,o),
(346,370,cs),
(358,370,o),
(362,362,o),
(359,342,cs),
(352,293,l),
(424,319,l),
(269,319,l),
(254,216,l),
(644,216,l),
(647,235,ls),
(677,450,o),
(569,555,o),
(374,555,cs),
(179,555,o),
(41,450,o),
(17,279,cs),
(15,261,ls),
(-9,90,o),
(96,-15,o),
(284,-15,cs)
);
}
);
width = 668;
},
{
anchors = (
{
name = "#entry";
pos = (288,540);
},
{
name = bottom;
pos = (270,-1);
},
{
name = ogonek;
pos = (355,-1);
},
{
name = top;
pos = (346,540);
}
);
guides = (
{
angle = 253.35;
pos = (343,174);
}
);
layerId = "463395A0-2DFC-45D4-87AF-EBCF54FF53ED";
shapes = (
{
closed = 1;
nodes = (
(408,-12,o),
(516,48,o),
(563,155,c),
(357,174,l),
(342,140,o),
(324,118,o),
(288,118,cs),
(251,118,o),
(233,150,o),
(240,200,cs),
(259,331,l),
(265,379,o),
(292,405,o),
(332,405,cs),
(371,405,o),
(390,374,o),
(382,318,cs),
(377,283,l),
(423,319,l),
(218,319,l),
(204,217,l),
(581,217,l),
(589,275,ls),
(615,459,o),
(524,552,o),
(350,552,cs),
(177,552,o),
(57,461,o),
(35,309,c),
(25,231,l),
(3,79,o),
(93,-12,o),
(258,-12,cs)
);
}
);
width = 618;
},
{
anchors = (
{
name = "#entry";
pos = (363,540);
},
{
name = bottom;
pos = (347,0);
},
{
name = ogonek;
pos = (463,0);
},
{
name = top;
pos = (423,540);
}
);
guides = (
{
angle = 250.478;
pos = (436,190);
}
);
layerId = "B66266A1-0CD1-42BF-9957-E58294B85305";
shapes = (
{
closed = 1;
nodes = (
(528,-15,o),
(673,52,o),
(732,170,c),
(447,190,l),
(441,178,o),
(417,160,o),
(377,160,cs),
(338,160,o),
(313,183,o),
(319,227,cs),
(330,303,ls),
(335,342,o),
(370,370,o),
(415,370,cs),
(459,370,o),
(486,342,o),
(481,303,cs),
(478,283,l),
(528,319,l),
(278,319,l),
(263,216,l),
(748,216,l),
(750,227,ls),
(780,440,o),
(668,555,o),
(431,555,cs),
(204,555,o),
(50,450,o),
(26,279,cs),
(24,261,ls),
(0,90,o),
(116,-15,o),
(330,-15,cs)
);
}
);
width = 781;
},
{
anchors = (
{
name = "#entry";
pos = (323,540);
},
{
name = bottom;
pos = (336,-1);
},
{
name = ogonek;
pos = (449,-1);
},
{
name = top;
pos = (412,540);
}
);
guides = (
{
angle = 251.565;
pos = (454,186);
}
);
layerId = "3B401755-81E4-40F3-BD5E-9424281583CA";
shapes = (
{
closed = 1;
nodes = (
(505,-13,o),
(642,52,o),
(698,169,c),
(466,186,l),
(452,155,o),
(416,133,o),
(368,133,cs),
(306,133,o),
(271,170,o),
(279,228,cs),
(288,293,ls),
(296,351,o),
(343,389,o),
(404,389,cs),
(469,389,o),
(505,351,o),
(497,293,cs),
(496,281,l),
(532,321,l),
(247,321,l),
(232,215,l),
(713,215,l),
(717,240,ls),
(745,443,o),
(640,553,o),
(419,553,cs),
(206,553,o),
(60,451,o),
(37,283,cs),
(33,257,ls),
(9,88,o),
(118,-13,o),
(320,-13,cs)
);
}
);
width = 755;
},
{
anchors = (
{
name = "#entry";
pos = (80,540);
},
{
name = bottom;
pos = (66,-3);
},
{
name = ogonek;
pos = (68,-4);
},
{
name = top;
pos = (143,540);
}
);
guides = (
{
angle = 5.974;
pos = (65,360);
},
{
angle = 174.026;
pos = (15,180);
},
{
angle = 174.026;
pos = (378,360);
}
);
layerId = "3D671699-C126-4AA5-A66F-47C26817AED2";
shapes = (
{
closed = 1;
nodes = (
(106,-5,o),
(132,33,o),
(145,114,c),
(141,114,l),
(128,35,o),
(104,-1,o),
(65,-1,cs),
(27,-1,o),
(11,32,o),
(19,95,c),
(69,445,ls),
(78,510,o),
(102,541,o),
(144,541,cs),
(186,541,o),
(202,510,o),
(193,445,cs),
(168,268,l),
(169,269,l),
(43,269,l),
(42,265,l),
(171,265,l),
(197,445,l),
(206,513,o),
(189,545,o),
(145,545,cs),
(101,545,o),
(74,513,o),
(65,445,c),
(15,95,ls),
(6,30,o),
(23,-5,o),
(64,-5,cs)
);
}
);
width = 212;
},
{
anchors = (
{
name = "#entry";
pos = (158,540);
},
{
name = bottom;
pos = (181,-3);
},
{
name = ogonek;
pos = (206,-4);
},
{
name = top;
pos = (258,540);
}
);
layerId = "46E74328-601B-43A9-9281-7B741E5F83E4";
shapes = (
{
closed = 1;
nodes = (
(265,-7,o),
(327,42,o),
(355,136,c),
(300,140,l),
(282,77,o),
(244,47,o),
(187,47,cs),
(124,47,o),
(94,84,o),
(104,153,cs),
(136,386,ls),
(146,455,o),
(188,493,o),
(254,493,cs),
(316,493,o),
(346,455,o),
(336,384,cs),
(319,262,l),
(334,297,l),
(113,297,l),
(106,247,l),
(377,247,l),
(394,371,ls),
(410,486,o),
(362,547,o),
(262,547,cs),
(159,547,o),
(90,487,o),
(75,379,cs),
(45,161,ls),
(30,54,o),
(79,-7,o),
(179,-7,cs)
);
}
);
width = 440;
},
{
anchors = (
{
name = "#entry";
pos = (120,540);
},
{
name = bottom;
pos = (275,-3);
},
{
name = ogonek;
pos = (273,-4);
},
{
name = top;
pos = (351,540);
}
);
layerId = "ECB9DAFA-B085-4474-A032-AB3BEA4F5B4C";
shapes = (
{
closed = 1;
nodes = (
(389,-5,o),
(484,53,o),
(524,164,c),
(520,165,l),
(480,57,o),
(391,-1,o),
(268,-1,cs),
(125,-1,o),
(57,81,o),
(79,235,cs),
(89,305,ls),
(110,454,o),
(209,541,o),
(353,541,cs),
(493,541,o),
(566,454,o),
(545,305,cs),
(540,269,l),
(542,271,l),
(82,271,l),
(82,267,l),
(544,267,l),
(549,305,ls),
(570,456,o),
(496,545,o),
(354,545,cs),
(207,545,o),
(106,456,o),
(85,305,cs),
(75,235,ls),
(53,80,o),
(122,-5,o),
(267,-5,cs)
);
}
);
width = 624;
},
{
anchors = (
{
name = "#entry";
pos = (168,540);
},
{
name = bottom;
pos = (265,-3);
},
{
name = ogonek;
pos = (291,-4);
},
{
name = top;
pos = (341,540);
}
);
guides = (
{
angle = 258.275;
pos = (445,161);
}
);
layerId = "287B816B-C6D9-4D62-948A-F2FEA8E41A5A";
shapes = (
{
closed = 1;
nodes = (
(389,-7,o),
(481,52,o),
(518,158,c),
(461,161,l),
(435,87,o),
(368,47,o),
(270,47,cs),
(160,47,o),
(107,104,o),
(121,209,c),
(138,325,ls),
(153,432,o),
(225,493,o),
(338,493,cs),
(446,493,o),
(503,432,o),
(488,330,cs),
(481,277,l),
(495,297,l),
(122,297,l),
(115,247,l),
(537,247,l),
(546,316,l),
(567,463,o),
(495,547,o),
(346,547,cs),
(198,547,o),
(97,464,o),
(78,326,cs),
(62,214,ls),
(42,72,o),
(114,-7,o),
(262,-7,cs)
);
}
);
width = 610;
}
);
metricLeft = o;
metricRight = o;
partsSettings = (
{
bottomValue = 0;
name = Op;
topValue = 1000;
},
{
bottomValue = 0;
name = Sl;
topValue = 1000;
},
{
bottomValue = 0;
name = Wd;
topValue = 1000;
},
{
bottomValue = 0;
name = Wt;
topValue = 1000;
}
);
unicode = 101;
},
{
glyphname = f;
kernLeft = public.kern2.f;
kernRight = public.kern1.f;
layers = (
{
layerId = "3C3B4AE3-80BB-44A4-A3CD-A752C08638B1";
shapes = (
{
closed = 1;
nodes = (
(27,0,l),
(327,0,l),
(400,520,ls),
(406,560,o),
(423,578,o),
(458,578,cs),
(474,578,o),
(492,574,o),
(507,566,c),
(563,744,l),
(519,762,o),
(443,775,o),
(379,775,cs),
(225,775,o),
(123,682,o),
(100,521,cs)
);
},
{
closed = 1;
nodes = (
(15,340,l),
(455,340,l),
(483,540,l),
(43,540,l)
);
}
);
width = 466;
},
{
layerId = "463395A0-2DFC-45D4-87AF-EBCF54FF53ED";
shapes = (
{
closed = 1;
nodes = (
(38,0,l),
(258,0,l),
(334,543,ls),
(342,598,o),
(367,623,o),
(414,623,cs),
(433,623,o),
(453,619,o),
(469,611,c),
(510,742,l),
(473,757,o),
(410,768,o),
(357,768,cs),
(222,768,o),
(135,687,o),
(114,543,c)
);
},
{
closed = 1;
nodes = (
(27,393,l),
(405,393,l),
(426,540,l),
(48,540,l)
);
}
);
width = 395;
},
{
guides = (
{
angle = 80.121;
pos = (599,655);
}
);
layerId = "B66266A1-0CD1-42BF-9957-E58294B85305";
shapes = (
{
closed = 1;
nodes = (
(37,0,l),
(337,0,l),
(408,503,ls),
(415,555,o),
(438,578,o),
(483,578,cs),
(504,578,o),
(527,573,o),
(546,562,c),
(602,742,l),
(556,761,o),
(474,775,o),
(406,775,cs),
(241,775,o),
(132,676,o),
(108,503,cs)
);
},
{
closed = 1;
nodes = (
(15,340,l),
(485,340,l),
(513,540,l),
(43,540,l)
);
}
);
width = 476;
},
{
layerId = "3B401755-81E4-40F3-BD5E-9424281583CA";
shapes = (
{
closed = 1;
nodes = (
(51,0,l),
(301,0,l),
(374,518,ls),
(382,579,o),
(411,607,o),
(465,607,cs),
(488,607,o),
(514,602,o),
(534,591,c),
(581,741,l),
(538,759,o),
(464,772,o),
(401,772,cs),
(247,772,o),
(147,680,o),
(124,518,cs)
);
},
{
closed = 1;
nodes = (
(26,373,l),
(464,373,l),
(488,540,l),
(50,540,l)
);
}
);
width = 449;
},
{
layerId = "3D671699-C126-4AA5-A66F-47C26817AED2";
shapes = (
{
closed = 1;
nodes = (
(12,0,l),
(16,0,l),
(106,643,ls),
(116,710,o),
(143,741,o),
(193,741,cs),
(201,741,o),
(212,739,o),
(218,736,c),
(220,740,l),
(213,743,o),
(203,745,o),
(194,745,cs),
(142,745,o),
(112,712,o),
(102,643,cs)
);
},
{
closed = 1;
nodes = (
(38,536,l),
(149,536,l),
(150,540,l),
(39,540,l)
);
}
);
width = 100;
},
{
layerId = "46E74328-601B-43A9-9281-7B741E5F83E4";
shapes = (
{
closed = 1;
nodes = (
(44,0,l),
(104,0,l),
(189,604,ls),
(199,675,o),
(226,702,o),
(288,702,cs),
(308,702,o),
(330,698,o),
(344,691,c),
(357,738,l),
(339,747,o),
(308,753,o),
(280,753,cs),
(194,753,o),
(143,702,o),
(129,604,cs)
);
},
{
closed = 1;
nodes = (
(45,490,l),
(267,490,l),
(274,540,l),
(52,540,l)
);
}
);
width = 228;
},
{
layerId = "ECB9DAFA-B085-4474-A032-AB3BEA4F5B4C";
shapes = (
{
closed = 1;
nodes = (
(118,0,l),
(122,0,l),
(205,590,ls),
(220,698,o),
(277,751,o),
(375,751,cs),
(410,751,o),
(449,744,o),
(475,733,c),
(477,737,l),
(450,748,o),
(411,755,o),
(375,755,cs),
(274,755,o),
(216,700,o),
(201,590,cs)
);
},
{
closed = 1;
nodes = (
(84,536,l),
(363,536,l),
(364,540,l),
(85,540,l)
);
}
);
width = 316;
},
{
guides = (
{
angle = 345.465;
pos = (479,694);
}
);
layerId = "287B816B-C6D9-4D62-948A-F2FEA8E41A5A";
shapes = (
{
closed = 1;
nodes = (
(85,0,l),
(145,0,l),
(226,576,ls),
(238,663,o),
(276,700,o),
(352,700,cs),
(374,700,o),
(395,697,o),
(418,690,c),
(436,741,l),
(408,749,o),
(377,753,o),
(352,753,cs),
(246,753,o),
(182,692,o),
(166,576,cs)
);
},
{
closed = 1;
nodes = (
(61,490,l),
(352,490,l),
(359,540,l),
(68,540,l)
);
}
);
width = 304;
}
);
unicode = 102;
},
{
glyphname = g;
kernLeft = public.kern2.g;
kernRight = public.kern1.g;
layers = (
{
anchors = (
{
name = bottom;
pos = (285,0);
},
{
name = top;
pos = (361,540);
}
);
guides = (
{
angle = 85.674;
pos = (28,362);
},
{
angle = 275.877;
pos = (21,-88);
}
);
layerId = "3C3B4AE3-80BB-44A4-A3CD-A752C08638B1";
shapes = (
{
closed = 1;
nodes = (
(493,161,o),
(615,233,o),
(632,353,cs),
(633,362,ls),
(650,482,o),
(548,555,o),
(363,555,cs),
(178,555,o),
(56,482,o),
(39,362,cs),
(38,353,ls),
(21,233,o),
(123,161,o),
(308,161,cs)
);
},
{
closed = 1;
nodes = (
(370,-195,ls),
(503,-195,o),
(579,-142,o),
(593,-42,cs),
(607,58,o),
(546,111,o),
(413,111,cs),
(186,111,ls),
(56,111,o),
(-22,58,o),
(-36,-42,cs),
(-50,-142,o),
(12,-195,o),
(144,-195,cs)
);
},
{
closed = 1;
nodes = (
(263,-59,ls),
(249,-59,o),
(242,-54,o),
(244,-42,cs),
(246,-30,o),
(254,-25,o),
(268,-25,cs),
(295,-25,ls),
(309,-25,o),
(315,-30,o),
(313,-42,cs),
(311,-54,o),
(304,-59,o),
(290,-59,cs)
);
},
{
closed = 1;
nodes = (
(294,64,l),
(301,111,l),
(283,111,ls),
(264,111,o),
(254,120,o),
(256,136,cs),
(258,152,o),
(271,161,o),
(290,161,cs),
(308,161,l),
(314,208,l),
(140,208,ls),
(86,208,o),
(53,182,o),
(46,136,cs),
(40,95,o),
(72,64,o),
(120,64,cs)
);
},
{
closed = 1;
nodes = (
(321,326,o),
(315,333,o),
(317,346,cs),
(320,370,ls),
(322,383,o),
(330,390,o),
(340,390,cs),
(350,390,o),
(356,383,o),
(354,370,cs),
(351,346,ls),
(349,333,o),
(341,326,o),
(331,326,cs)
);
},
{
closed = 1;
nodes = (
(455,406,l),
(674,406,l),
(699,582,l),
(640,582,l),
(467,493,l)
);
}
);
width = 658;
},
{
anchors = (
{
name = bottom;
pos = (256,0);
},
{
name = top;
pos = (332,540);
}
);
layerId = "463395A0-2DFC-45D4-87AF-EBCF54FF53ED";
shapes = (
{
closed = 1;
nodes = (
(441,161,o),
(547,227,o),
(563,338,cs),
(568,374,ls),
(583,486,o),
(496,552,o),
(334,552,cs),
(172,552,o),
(65,486,o),
(50,374,cs),
(45,338,ls),
(29,227,o),
(117,161,o),
(279,161,cs)
);
},
{
closed = 1;
nodes = (
(325,-192,ls),
(444,-192,o),
(514,-143,o),
(527,-51,cs),
(540,42,o),
(484,91,o),
(365,91,cs),
(171,91,ls),
(52,91,o),
(-17,42,o),
(-30,-51,cs),
(-43,-143,o),
(13,-192,o),
(132,-192,cs)
);
},
{
closed = 1;
nodes = (
(214,-92,ls),
(185,-92,o),
(172,-78,o),
(176,-51,cs),
(180,-23,o),
(197,-9,o),
(226,-9,cs),
(283,-9,ls),
(312,-9,o),
(325,-23,o),
(321,-51,cs),
(317,-78,o),
(300,-92,o),
(271,-92,cs)
);
},
{
closed = 1;
nodes = (
(264,56,l),
(269,91,l),
(240,91,ls),
(214,91,o),
(204,104,o),
(206,126,cs),
(209,147,o),
(225,161,o),
(250,161,cs),
(279,161,l),
(284,196,l),
(136,196,ls),
(82,196,o),
(49,170,o),
(43,126,cs),
(37,85,o),
(66,56,o),
(115,56,cs)
);
},
{
closed = 1;
nodes = (
(264,282,o),
(246,301,o),
(251,336,cs),
(257,377,ls),
(262,412,o),
(285,431,o),
(317,431,cs),
(350,431,o),
(366,412,o),
(361,377,cs),
(355,336,ls),
(350,301,o),
(328,282,o),
(296,282,cs)
);
},
{
closed = 1;
nodes = (
(421,439,l),
(617,445,l),
(635,575,l),
(590,575,l),
(430,503,l)
);
}
);
width = 597;
},
{
anchors = (
{
name = bottom;
pos = (320,0);
},
{
name = top;
pos = (396,540);
}
);
guides = (
{
angle = 266.524;
pos = (156,358);
}
);
layerId = "B66266A1-0CD1-42BF-9957-E58294B85305";
shapes = (
{
closed = 1;
nodes = (
(551,161,o),
(687,233,o),
(704,353,cs),
(705,362,ls),
(722,483,o),
(606,555,o),
(398,555,cs),
(189,555,o),
(54,483,o),
(37,362,cs),
(36,353,ls),
(19,233,o),
(134,161,o),
(343,161,cs)
);
},
{
closed = 1;
nodes = (
(416,-195,ls),
(560,-195,o),
(644,-143,o),
(658,-42,cs),
(672,59,o),
(603,111,o),
(459,111,cs),
(210,111,ls),
(61,111,o),
(-17,58,o),
(-31,-42,cs),
(-45,-143,o),
(25,-195,o),
(168,-195,cs)
);
},
{
closed = 1;
nodes = (
(267,-59,ls),
(254,-59,o),
(247,-54,o),
(249,-42,cs),
(251,-30,o),
(259,-25,o),
(272,-25,cs),
(362,-25,ls),
(375,-25,o),
(380,-30,o),
(378,-42,cs),
(376,-54,o),
(370,-59,o),
(357,-59,cs)
);
},
{
closed = 1;
nodes = (
(329,64,l),
(336,111,l),
(316,111,ls),
(290,111,o),
(281,118,o),
(282,136,cs),
(284,153,o),
(299,161,o),
(323,161,cs),
(343,161,l),
(349,208,l),
(148,208,ls),
(79,208,o),
(38,182,o),
(31,136,cs),
(25,93,o),
(63,64,o),
(128,64,cs)
);
},
{
closed = 1;
nodes = (
(339,326,o),
(323,337,o),
(326,356,cs),
(327,360,ls),
(329,379,o),
(348,390,o),
(375,390,cs),
(402,390,o),
(417,379,o),
(415,360,cs),
(414,356,ls),
(411,337,o),
(393,326,o),
(366,326,cs)
);
},
{
closed = 1;
nodes = (
(509,406,l),
(754,406,l),
(779,582,l),
(719,582,l),
(521,493,l)
);
}
);
width = 739;
},
{
anchors = (
{
name = bottom;
pos = (305,0);
},
{
name = top;
pos = (381,540);
}
);
layerId = "3B401755-81E4-40F3-BD5E-9424281583CA";
shapes = (
{
closed = 1;
nodes = (
(523,161,o),
(650,232,o),
(667,352,cs),
(668,361,ls),
(685,482,o),
(578,553,o),
(383,553,cs),
(188,553,o),
(62,482,o),
(45,361,cs),
(44,352,ls),
(27,232,o),
(133,161,o),
(328,161,cs)
);
},
{
closed = 1;
nodes = (
(394,-193,ls),
(530,-193,o),
(610,-143,o),
(624,-46,cs),
(637,51,o),
(571,101,o),
(435,101,cs),
(201,101,ls),
(61,101,o),
(-13,50,o),
(-26,-46,cs),
(-40,-143,o),
(26,-193,o),
(161,-193,cs)
);
},
{
closed = 1;
nodes = (
(243,-80,ls),
(217,-80,o),
(203,-69,o),
(207,-46,cs),
(210,-23,o),
(226,-12,o),
(252,-12,cs),
(354,-12,ls),
(381,-12,o),
(393,-23,o),
(390,-46,cs),
(386,-69,o),
(372,-80,o),
(345,-80,cs)
);
},
{
closed = 1;
nodes = (
(314,61,l),
(319,101,l),
(285,101,ls),
(256,101,o),
(246,110,o),
(247,131,cs),
(249,151,o),
(267,161,o),
(294,161,cs),
(328,161,l),
(333,201,l),
(149,201,ls),
(84,201,o),
(45,175,o),
(38,131,c),
(33,89,o),
(68,61,o),
(130,61,cs)
);
},
{
closed = 1;
nodes = (
(304,299,o),
(280,319,o),
(285,355,cs),
(286,359,ls),
(291,395,o),
(321,416,o),
(364,416,cs),
(408,416,o),
(431,395,o),
(426,359,cs),
(425,355,ls),
(420,319,o),
(391,299,o),
(347,299,cs)
);
},
{
closed = 1;
nodes = (
(490,426,l),
(723,430,l),
(744,577,l),
(693,577,l),
(500,499,l)
);
}
);
width = 707;
},
{
anchors = (
{
name = bottom;
pos = (67,0);
},
{
name = top;
pos = (143,540);
}
);
guides = (
{
angle = 180;
pos = (-83,-61);
},
{
angle = 85.674;
pos = (-7,151);
},
{
angle = 275.877;
pos = (35,-127);
}
);
layerId = "3D671699-C126-4AA5-A66F-47C26817AED2";
shapes = (
{
closed = 1;
nodes = (
(134,160,o),
(160,193,o),
(170,260,cs),
(196,445,ls),
(205,513,o),
(188,545,o),
(144,545,cs),
(100,545,o),
(73,513,o),
(64,445,cs),
(38,260,ls),
(28,193,o),
(46,160,o),
(90,160,cs)
);
},
{
closed = 1;
nodes = (
(52,-185,ls),
(105,-185,o),
(139,-148,o),
(149,-81,cs),
(158,-14,o),
(134,23,o),
(81,23,cs),
(57,23,ls),
(3,23,o),
(-32,-14,o),
(-41,-81,cs),
(-51,-148,o),
(-26,-185,o),
(28,-185,cs)
);
},
{
closed = 1;
nodes = (
(29,-181,ls),
(-23,-181,o),
(-46,-146,o),
(-37,-81,cs),
(-28,-16,o),
(5,19,o),
(57,19,cs),
(81,19,ls),
(131,19,o),
(154,-16,o),
(145,-81,cs),
(136,-146,o),
(103,-181,o),
(53,-181,cs)
);
},
{
closed = 1;
nodes = (
(70,20,l),
(70,23,l),
(50,23,ls),
(17,23,o),
(8,54,o),
(13,92,cs),
(18,129,o),
(37,160,o),
(70,160,cs),
(90,160,l),
(90,163,l),
(69,163,ls),
(35,163,o),
(15,133,o),
(9,92,cs),
(3,50,o),
(15,20,o),
(49,20,cs)
);
},
{
closed = 1;
nodes = (
(49,164,o),
(33,196,o),
(42,260,cs),
(68,445,ls),
(77,510,o),
(101,541,o),
(143,541,cs),
(185,541,o),
(201,510,o),
(192,445,cs),
(166,260,ls),
(157,196,o),
(131,164,o),
(90,164,cs)
);
},
{
closed = 1;
nodes = (
(178,529,l),
(238,551,l),
(239,555,l),
(235,555,l),
(179,532,l)
);
}
);
width = 207;
},
{
anchors = (
{
name = bottom;
pos = (172,0);
},
{
name = top;
pos = (248,540);
}
);
layerId = "46E74328-601B-43A9-9281-7B741E5F83E4";
shapes = (
{
closed = 1;
nodes = (
(290,160,o),
(351,210,o),
(363,301,cs),
(378,406,ls),
(391,497,o),
(344,547,o),
(249,547,cs),
(153,547,o),
(92,497,o),
(79,406,cs),
(64,301,ls),
(52,210,o),
(99,160,o),
(195,160,cs)
);
},
{
closed = 1;
nodes = (
(196,-185,ls),
(279,-185,o),
(329,-144,o),
(339,-69,cs),
(350,7,o),
(312,48,o),
(229,48,cs),
(128,48,ls),
(44,48,o),
(-7,7,o),
(-18,-69,cs),
(-28,-144,o),
(11,-185,o),
(95,-185,cs)
);
},
{
closed = 1;
nodes = (
(99,-135,ls),
(55,-135,o),
(36,-111,o),
(42,-69,cs),
(48,-26,o),
(74,-2,o),
(118,-2,cs),
(225,-2,ls),
(267,-2,o),
(285,-26,o),
(279,-69,cs),
(273,-111,o),
(248,-135,o),
(206,-135,cs)
);
},
{
closed = 1;
nodes = (
(176,26,l),
(179,48,l),
(136,48,ls),
(102,48,o),
(90,71,o),
(95,104,cs),
(99,137,o),
(119,160,o),
(153,160,cs),
(195,160,l),
(198,182,l),
(134,182,ls),
(79,182,o),
(46,151,o),
(40,104,cs),
(33,58,o),
(58,26,o),
(111,26,cs)
);
},
{
closed = 1;
nodes = (
(144,212,o),
(116,243,o),
(124,301,cs),
(139,406,ls),
(147,464,o),
(184,495,o),
(242,495,cs),
(300,495,o),
(326,465,o),
(318,406,cs),
(303,301,ls),
(295,243,o),
(259,212,o),
(202,212,cs)
);
},
{
closed = 1;
nodes = (
(308,485,l),
(430,494,l),
(440,560,l),
(424,560,l),
(312,514,l)
);
}
);
width = 409;
},
{
anchors = (
{
name = bottom;
pos = (230,0);
},
{
name = top;
pos = (306,540);
}
);
guides = (
{
angle = 266.524;
pos = (20,153);
}
);
layerId = "ECB9DAFA-B085-4474-A032-AB3BEA4F5B4C";
shapes = (
{
closed = 1;
nodes = (
(380,160,o),
(464,230,o),
(481,348,cs),
(482,357,ls),
(499,475,o),
(434,545,o),
(307,545,cs),
(181,545,o),
(95,475,o),
(78,357,cs),
(77,348,ls),
(60,230,o),
(127,160,o),
(253,160,cs)
);
},
{
closed = 1;
nodes = (
(285,-185,ls),
(381,-185,o),
(438,-144,o),
(449,-66,cs),
(460,12,o),
(415,53,o),
(319,53,cs),
(158,53,ls),
(61,53,o),
(4,12,o),
(-7,-66,cs),
(-18,-144,o),
(27,-185,o),
(124,-185,cs)
);
},
{
closed = 1;
nodes = (
(125,-181,ls),
(30,-181,o),
(-14,-142,o),
(-3,-66,cs),
(7,10,o),
(62,49,o),
(157,49,cs),
(318,49,ls),
(412,49,o),
(455,10,o),
(445,-66,cs),
(434,-142,o),
(380,-181,o),
(286,-181,cs)
);
},
{
closed = 1;
nodes = (
(237,49,l),
(238,53,l),
(134,53,ls),
(91,53,o),
(69,72,o),
(74,105,cs),
(79,140,o),
(106,160,o),
(151,160,cs),
(253,160,l),
(253,164,l),
(151,164,ls),
(104,164,o),
(75,143,o),
(70,105,cs),
(65,69,o),
(88,49,o),
(133,49,cs)
);
},
{
closed = 1;
nodes = (
(129,164,o),
(65,233,o),
(81,348,cs),
(82,357,ls),
(98,472,o),
(182,541,o),
(306,541,cs),
(431,541,o),
(495,473,o),
(478,357,cs),
(477,348,ls),
(461,232,o),
(378,164,o),
(253,164,cs)
);
},
{
closed = 1;
nodes = (
(394,527,l),
(571,551,l),
(572,555,l),
(562,555,l),
(395,530,l)
);
}
);
width = 546;
},
{
anchors = (
{
name = bottom;
pos = (230,0);
},
{
name = top;
pos = (306,540);
}
);
layerId = "287B816B-C6D9-4D62-948A-F2FEA8E41A5A";
shapes = (
{
closed = 1;
nodes = (
(384,160,o),
(468,223,o),
(484,333,cs),
(490,374,ls),
(505,484,o),
(438,547,o),
(307,547,cs),
(176,547,o),
(90,484,o),
(75,374,cs),
(69,333,ls),
(53,223,o),
(122,160,o),
(253,160,cs)
);
},
{
closed = 1;
nodes = (
(282,-185,ls),
(382,-185,o),
(443,-143,o),
(454,-63,cs),
(465,16,o),
(416,58,o),
(316,58,cs),
(160,58,ls),
(57,58,o),
(-1,16,o),
(-12,-63,cs),
(-23,-143,o),
(25,-185,o),
(126,-185,cs)
);
},
{
closed = 1;
nodes = (
(136,-135,l),
(71,-136,o),
(41,-111,o),
(48,-63,cs),
(55,-17,o),
(91,8,o),
(156,8,cs),
(307,8,ls),
(370,8,o),
(399,-17,o),
(392,-63,cs),
(386,-110,o),
(350,-135,o),
(287,-135,cs)
);
},
{
closed = 1;
nodes = (
(235,36,l),
(238,58,l),
(164,58,ls),
(125,58,o),
(109,76,o),
(113,109,cs),
(117,141,o),
(142,160,o),
(181,160,cs),
(253,160,l),
(256,182,l),
(157,182,ls),
(100,182,o),
(65,154,o),
(58,109,cs),
(52,64,o),
(80,36,o),
(135,36,cs)
);
},
{
closed = 1;
nodes = (
(166,212,o),
(118,258,o),
(129,336,cs),
(134,371,ls),
(145,450,o),
(206,495,o),
(300,495,cs),
(394,495,o),
(440,450,o),
(429,371,cs),
(424,336,ls),
(413,257,o),
(354,212,o),
(260,212,cs)
);
},
{
closed = 1;
nodes = (
(409,479,l),
(561,493,l),
(571,559,l),
(553,559,l),
(415,518,l)
);
}
);
width = 542;
}
);
unicode = 103;
},
{
glyphname = h;
kernLeft = public.kern2.h;
kernRight = public.kern1.n;
layers = (
{
anchors = (
{
name = bottom;
pos = (318,0);
},
{
name = center;
pos = (242,640);
},
{
name = top;
pos = (250,700);
}
);
layerId = "3C3B4AE3-80BB-44A4-A3CD-A752C08638B1";
shapes = (
{
closed = 1;
nodes = (
(334,0,l),
(634,0,l),
(680,330,ls),
(702,487,o),
(658,555,o),
(533,555,cs),
(378,555,o),
(279,446,o),
(250,245,c),
(249,231,l),
(344,300,l),
(347,321,o),
(355,332,o),
(367,332,cs),
(377,332,o),
(380,326,o),
(378,310,cs)
);
},
{
closed = 1;
nodes = (
(2,0,l),
(302,0,l),
(360,414,l),
(406,740,l),
(106,740,l)
);
}
);
width = 707;
},
{
anchors = (
{
name = bottom;
pos = (289,0);
},
{
name = center;
pos = (212,640);
},
{
name = top;
pos = (220,700);
}
);
layerId = "463395A0-2DFC-45D4-87AF-EBCF54FF53ED";
shapes = (
{
closed = 1;
nodes = (
(347,0,l),
(567,0,l),
(615,342,ls),
(635,488,o),
(591,552,o),
(470,552,cs),
(323,552,o),
(230,447,o),
(201,250,cs),
(195,209,l),
(272,284,l),
(282,353,o),
(308,388,o),
(351,388,cs),
(386,388,o),
(399,367,o),
(392,320,cs)
);
},
{
closed = 1;
nodes = (
(12,0,l),
(232,0,l),
(289,402,l),
(336,740,l),
(116,740,l)
);
}
);
width = 649;
},
{
anchors = (
{
name = bottom;
pos = (367,0);
},
{
name = center;
pos = (242,640);
},
{
name = top;
pos = (250,700);
}
);
layerId = "B66266A1-0CD1-42BF-9957-E58294B85305";
shapes = (
{
closed = 1;
nodes = (
(432,0,l),
(732,0,l),
(774,295,ls),
(800,477,o),
(739,555,o),
(576,555,cs),
(387,555,o),
(266,421,o),
(231,175,cs),
(219,91,l),
(330,202,l),
(343,290,o),
(373,332,o),
(422,332,cs),
(463,332,o),
(475,308,o),
(466,243,cs)
);
},
{
closed = 1;
nodes = (
(2,0,l),
(302,0,l),
(360,414,l),
(406,740,l),
(106,740,l)
);
}
);
width = 805;
},
{
anchors = (
{
name = bottom;
pos = (354,0);
},
{
name = center;
pos = (229,640);
},
{
name = top;
pos = (237,700);
}
);
layerId = "3B401755-81E4-40F3-BD5E-9424281583CA";
shapes = (
{
closed = 1;
nodes = (
(445,0,l),
(695,0,l),
(737,298,ls),
(762,475,o),
(703,553,o),
(544,553,cs),
(362,553,o),
(245,426,o),
(211,193,cs),
(200,118,l),
(294,216,l),
(309,317,o),
(350,367,o),
(416,367,cs),
(473,367,o),
(492,335,o),
(481,255,cs)
);
},
{
closed = 1;
nodes = (
(14,0,l),
(264,0,l),
(320,399,l),
(368,740,l),
(118,740,l)
);
}
);
width = 779;
},
{
anchors = (
{
name = bottom;
pos = (72,0);
},
{
name = center;
pos = (104,640);
},
{
name = top;
pos = (112,700);
}
);
layerId = "3D671699-C126-4AA5-A66F-47C26817AED2";
shapes = (
{
closed = 1;
nodes = (
(128,0,l),
(132,0,l),
(199,475,ls),
(205,520,o),
(193,545,o),
(164,545,cs),
(111,545,o),
(81,491,o),
(63,355,cs),
(53,280,l),
(66,355,l),
(84,485,o),
(113,541,o),
(162,541,cs),
(189,541,o),
(201,518,o),
(195,475,cs)
);
},
{
closed = 1;
nodes = (
(12,0,l),
(16,0,l),
(73,404,l),
(120,740,l),
(116,740,l)
);
}
);
width = 215;
},
{
anchors = (
{
name = bottom;
pos = (193,0);
},
{
name = center;
pos = (157,640);
},
{
name = top;
pos = (165,700);
}
);
layerId = "46E74328-601B-43A9-9281-7B741E5F83E4";
shapes = (
{
closed = 1;
nodes = (
(290,0,l),
(350,0,l),
(406,401,ls),
(420,499,o),
(388,547,o),
(309,547,cs),
(200,547,o),
(132,467,o),
(111,309,cs),
(103,250,l),
(141,315,l),
(158,436,o),
(204,498,o),
(277,498,cs),
(333,498,o),
(355,464,o),
(345,394,cs)
);
},
{
closed = 1;
nodes = (
(37,0,l),
(97,0,l),
(147,357,l),
(201,740,l),
(141,740,l)
);
}
);
width = 458;
},
{
anchors = (
{
name = bottom;
pos = (292,0);
},
{
name = center;
pos = (164,640);
},
{
name = top;
pos = (172,700);
}
);
layerId = "ECB9DAFA-B085-4474-A032-AB3BEA4F5B4C";
shapes = (
{
closed = 1;
nodes = (
(508,0,l),
(512,0,l),
(556,313,ls),
(578,469,o),
(523,545,o),
(387,545,cs),
(238,545,o),
(136,448,o),
(113,284,c),
(108,250,l),
(116,284,l),
(139,445,o),
(240,541,o),
(387,541,cs),
(520,541,o),
(574,466,o),
(552,313,cs)
);
},
{
closed = 1;
nodes = (
(72,0,l),
(76,0,l),
(122,326,l),
(180,740,l),
(176,740,l)
);
}
);
width = 650;
},
{
anchors = (
{
name = bottom;
pos = (279,0);
},
{
name = center;
pos = (172,640);
},
{
name = top;
pos = (180,700);
}
);
layerId = "287B816B-C6D9-4D62-948A-F2FEA8E41A5A";
shapes = (
{
closed = 1;
nodes = (
(446,0,l),
(506,0,l),
(553,331,ls),
(574,477,o),
(522,547,o),
(394,547,cs),
(242,547,o),
(145,446,o),
(117,264,cs),
(107,199,l),
(149,264,l),
(170,415,o),
(248,498,o),
(367,498,cs),
(470,498,o),
(509,447,o),
(493,331,cs)
);
},
{
closed = 1;
nodes = (
(52,0,l),
(112,0,l),
(162,357,l),
(216,740,l),
(156,740,l)
);
}
);
width = 624;
}
);
metricLeft = l;
metricRight = n;
unicode = 104;
},
{
glyphname = idotless;
kernLeft = public.kern2.i;
kernRight = public.kern1.i;
layers = (
{
anchors = (
{
name = bottom;
pos = (152,0);
},
{
name = ogonek;
pos = (302,0);
},
{
name = top;
pos = (228,540);
}
);
layerId = "3C3B4AE3-80BB-44A4-A3CD-A752C08638B1";
shapes = (
{
closed = 1;
nodes = (
(78,540,l),
(2,0,l),
(302,0,l),
(378,540,l)
);
}
);
width = 380;
},
{
anchors = (
{
name = bottom;
pos = (122,0);
},
{
name = ogonek;
pos = (232,0);
},
{
name = top;
pos = (198,540);
}
);
layerId = "463395A0-2DFC-45D4-87AF-EBCF54FF53ED";
shapes = (
{
closed = 1;
nodes = (
(88,540,l),
(12,0,l),
(232,0,l),
(308,540,l)
);
}
);
width = 320;
},
{
anchors = (
{
name = bottom;
pos = (152,0);
},
{
name = ogonek;
pos = (302,0);
},
{
name = top;
pos = (228,540);
}
);
layerId = "B66266A1-0CD1-42BF-9957-E58294B85305";
shapes = (
{
closed = 1;
nodes = (
(78,540,l),
(2,0,l),
(302,0,l),
(378,540,l)
);
}
);
width = 380;
},
{
anchors = (
{
name = bottom;
pos = (139,0);
},
{
name = ogonek;
pos = (264,0);
},
{
name = top;
pos = (215,540);
}
);
layerId = "3B401755-81E4-40F3-BD5E-9424281583CA";
shapes = (
{
closed = 1;
nodes = (
(90,540,l),
(14,0,l),
(264,0,l),
(340,540,l)
);
}
);
width = 354;
},
{
anchors = (
{
name = bottom;
pos = (14,0);
},
{
name = ogonek;
pos = (16,0);
},
{
name = top;
pos = (90,540);
}
);
layerId = "3D671699-C126-4AA5-A66F-47C26817AED2";
shapes = (
{
closed = 1;
nodes = (
(88,540,l),
(12,0,l),
(16,0,l),
(92,540,l)
);
}
);
width = 104;
},
{
anchors = (
{
name = bottom;
pos = (67,0);
},
{
name = ogonek;
pos = (97,0);
},
{
name = top;
pos = (143,540);
}
);
layerId = "46E74328-601B-43A9-9281-7B741E5F83E4";
shapes = (
{
closed = 1;
nodes = (
(113,540,l),
(37,0,l),
(97,0,l),
(173,540,l)
);
}
);
width = 210;
},
{
anchors = (
{
name = bottom;
pos = (74,0);
},
{
name = ogonek;
pos = (76,0);
},
{
name = top;
pos = (150,540);
}
);
layerId = "ECB9DAFA-B085-4474-A032-AB3BEA4F5B4C";
shapes = (
{
closed = 1;
nodes = (
(148,540,l),
(72,0,l),
(76,0,l),
(152,540,l)
);
}
);
width = 224;
},
{
anchors = (
{
name = bottom;
pos = (82,0);
},
{
name = ogonek;
pos = (112,0);
},
{
name = top;
pos = (158,540);
}
);
layerId = "287B816B-C6D9-4D62-948A-F2FEA8E41A5A";
shapes = (
{
closed = 1;
nodes = (
(128,540,l),
(52,0,l),
(112,0,l),
(188,540,l)
);
}
);
width = 240;
}
);
metricLeft = l;
metricRight = l;
unicode = 305;
},
{
glyphname = jdotless;
kernLeft = public.kern2.j;
kernRight = public.kern1.j;
layers = (
{
anchors = (
{
name = bottom;
pos = (152,0);
},
{
name = top;
pos = (228,540);
}
);
layerId = "3C3B4AE3-80BB-44A4-A3CD-A752C08638B1";
shapes = (
{
closed = 1;
nodes = (
(214,-195,o),
(284,-126,o),
(306,29,cs),
(378,540,l),
(78,540,l),
(6,30,l),
(1,-10,o),
(-12,-25,o),
(-43,-25,cs),
(-49,-25,o),
(-56,-24,o),
(-63,-22,c),
(-84,-171,l),
(-31,-187,o),
(27,-195,o),
(79,-195,cs)
);
}
);
width = 380;
},
{
anchors = (
{
name = bottom;
pos = (122,0);
},
{
name = top;
pos = (198,540);
}
);
layerId = "463395A0-2DFC-45D4-87AF-EBCF54FF53ED";
shapes = (
{
closed = 1;
nodes = (
(150,-194,o),
(214,-130,o),
(233,5,cs),
(308,540,l),
(88,540,l),
(13,9,ls),
(6,-45,o),
(-17,-68,o),
(-63,-68,cs),
(-75,-68,o),
(-87,-66,o),
(-99,-62,c),
(-114,-172,l),
(-69,-186,o),
(-18,-194,o),
(28,-194,cs)
);
}
);
width = 320;
},
{
anchors = (
{
name = bottom;
pos = (152,0);
},
{
name = top;
pos = (228,540);
}
);
layerId = "B66266A1-0CD1-42BF-9957-E58294B85305";
shapes = (
{
closed = 1;
nodes = (
(209,-195,o),
(284,-126,o),
(306,29,cs),
(378,540,l),
(78,540,l),
(8,45,ls),
(1,-6,o),
(-18,-25,o),
(-63,-25,cs),
(-72,-25,o),
(-82,-24,o),
(-93,-22,c),
(-114,-171,l),
(-56,-187,o),
(6,-195,o),
(63,-195,cs)
);
}
);
width = 380;
},
{
anchors = (
{
name = bottom;
pos = (139,0);
},
{
name = top;
pos = (215,540);
}
);
layerId = "3B401755-81E4-40F3-BD5E-9424281583CA";
shapes = (
{
closed = 1;
nodes = (
(174,-195,o),
(246,-128,o),
(267,19,cs),
(340,540,l),
(90,540,l),
(19,32,ls),
(10,-28,o),
(-16,-53,o),
(-70,-53,cs),
(-83,-53,o),
(-98,-51,o),
(-112,-48,c),
(-129,-172,l),
(-76,-187,o),
(-18,-195,o),
(35,-195,cs)
);
}
);
width = 354;
},
{
anchors = (
{
name = bottom;
pos = (12,0);
},
{
name = top;
pos = (88,540);
}
);
guides = (
{
angle = 5.541;
pos = (-77,-30);
},
{
angle = 289.592;
pos = (-157,-119);
}
);
layerId = "3D671699-C126-4AA5-A66F-47C26817AED2";
shapes = (
{
closed = 1;
nodes = (
(-33,-185,o),
(-6,-145,o),
(2,-83,c),
(90,540,l),
(86,540,l),
(-2,-83,ls),
(-11,-150,o),
(-40,-181,o),
(-91,-181,cs),
(-108,-181,o),
(-129,-175,o),
(-142,-167,c),
(-144,-171,l),
(-130,-179,o),
(-110,-185,o),
(-92,-185,cs)
);
}
);
width = 102;
},
{
anchors = (
{
name = bottom;
pos = (55,0);
},
{
name = top;
pos = (131,540);
}
);
layerId = "46E74328-601B-43A9-9281-7B741E5F83E4";
shapes = (
{
closed = 1;
nodes = (
(15,-185,o),
(66,-134,o),
(80,-36,cs),
(161,540,l),
(101,540,l),
(20,-36,ls),
(10,-107,o),
(-17,-134,o),
(-79,-134,cs),
(-99,-134,o),
(-121,-130,o),
(-135,-123,c),
(-148,-170,l),
(-130,-179,o),
(-99,-185,o),
(-71,-185,cs)
);
}
);
width = 198;
},
{
anchors = (
{
name = bottom;
pos = (74,0);
},
{
name = top;
pos = (150,540);
}
);
guides = (
{
pos = (0,-119);
}
);
layerId = "ECB9DAFA-B085-4474-A032-AB3BEA4F5B4C";
shapes = (
{
closed = 1;
nodes = (
(0,-185,o),
(58,-130,o),
(73,-20,cs),
(152,540,l),
(148,540,l),
(69,-20,ls),
(54,-128,o),
(-2,-181,o),
(-100,-181,cs),
(-136,-181,o),
(-174,-174,o),
(-201,-163,c),
(-202,-167,l),
(-176,-178,o),
(-137,-185,o),
(-101,-185,cs)
);
}
);
width = 224;
},
{
anchors = (
{
name = bottom;
pos = (83,0);
},
{
name = top;
pos = (159,540);
}
);
layerId = "287B816B-C6D9-4D62-948A-F2FEA8E41A5A";
shapes = (
{
closed = 1;
nodes = (
(31,-185,o),
(95,-124,o),
(111,-8,cs),
(188,540,l),
(128,540,l),
(51,-8,ls),
(39,-95,o),
(1,-132,o),
(-75,-132,cs),
(-97,-132,o),
(-118,-129,o),
(-141,-122,c),
(-159,-173,l),
(-131,-181,o),
(-100,-185,o),
(-75,-185,cs)
);
}
);
width = 240;
}
);
metricRight = l;
unicode = 567;
},
{
glyphname = k;
kernLeft = public.kern2.h;
kernRight = public.kern1.k;
layers = (
{
anchors = (
{
name = bottom;
pos = (322,0);
},
{
name = top;
pos = (400,540);
}
);
layerId = "3C3B4AE3-80BB-44A4-A3CD-A752C08638B1";
shapes = (
{
closed = 1;
nodes = (
(300,53,l),
(758,540,l),
(438,540,l),
(108,189,l)
);
},
{
closed = 1;
nodes = (
(2,0,l),
(302,0,l),
(406,740,l),
(106,740,l)
);
},
{
closed = 1;
nodes = (
(393,0,l),
(670,0,l),
(534,394,l),
(319,212,l)
);
}
);
width = 722;
},
{
anchors = (
{
name = bottom;
pos = (279,0);
},
{
name = top;
pos = (348,540);
}
);
layerId = "463395A0-2DFC-45D4-87AF-EBCF54FF53ED";
shapes = (
{
closed = 1;
nodes = (
(232,72,l),
(657,540,l),
(404,540,l),
(74,168,l)
);
},
{
closed = 1;
nodes = (
(12,0,l),
(232,0,l),
(336,740,l),
(116,740,l)
);
},
{
closed = 1;
nodes = (
(345,0,l),
(569,0,l),
(439,351,l),
(259,230,l)
);
}
);
width = 622;
},
{
anchors = (
{
name = bottom;
pos = (352,0);
},
{
name = top;
pos = (434,540);
}
);
layerId = "B66266A1-0CD1-42BF-9957-E58294B85305";
shapes = (
{
closed = 1;
nodes = (
(304,47,l),
(808,540,l),
(448,540,l),
(57,162,l)
);
},
{
closed = 1;
nodes = (
(2,0,l),
(302,0,l),
(406,740,l),
(106,740,l)
);
},
{
closed = 1;
nodes = (
(422,0,l),
(734,0,l),
(578,341,l),
(333,178,l)
);
}
);
width = 774;
},
{
anchors = (
{
name = bottom;
pos = (323,0);
},
{
name = top;
pos = (399,540);
}
);
layerId = "3B401755-81E4-40F3-BD5E-9424281583CA";
shapes = (
{
closed = 1;
nodes = (
(257,56,l),
(735,540,l),
(460,540,l),
(88,163,l)
);
},
{
closed = 1;
nodes = (
(14,0,l),
(264,0,l),
(368,740,l),
(118,740,l)
);
},
{
closed = 1;
nodes = (
(412,0,l),
(660,0,l),
(498,332,l),
(305,220,l)
);
}
);
width = 701;
},
{
anchors = (
{
name = bottom;
pos = (75,0);
},
{
name = top;
pos = (144,540);
}
);
layerId = "3D671699-C126-4AA5-A66F-47C26817AED2";
shapes = (
{
closed = 1;
nodes = (
(37,152,l),
(221,540,l),
(217,540,l),
(34,153,l)
);
},
{
closed = 1;
nodes = (
(12,0,l),
(16,0,l),
(120,740,l),
(116,740,l)
);
},
{
closed = 1;
nodes = (
(143,0,l),
(147,0,l),
(106,301,l),
(103,298,l)
);
}
);
width = 188;
},
{
anchors = (
{
name = bottom;
pos = (178,0);
},
{
name = top;
pos = (244,540);
}
);
layerId = "46E74328-601B-43A9-9281-7B741E5F83E4";
shapes = (
{
closed = 1;
nodes = (
(85,96,l),
(410,540,l),
(344,540,l),
(85,185,l)
);
},
{
closed = 1;
nodes = (
(37,0,l),
(97,0,l),
(201,740,l),
(141,740,l)
);
},
{
closed = 1;
nodes = (
(273,0,l),
(335,0,l),
(234,335,l),
(189,282,l)
);
}
);
width = 377;
},
{
anchors = (
{
name = bottom;
pos = (232,0);
},
{
name = top;
pos = (288,540);
}
);
guides = (
{
angle = 227.661;
pos = (614,540);
},
{
angle = 126.838;
pos = (491,0);
}
);
layerId = "ECB9DAFA-B085-4474-A032-AB3BEA4F5B4C";
shapes = (
{
closed = 1;
nodes = (
(100,173,l),
(492,540,l),
(487,540,l),
(99,176,l)
);
},
{
closed = 1;
nodes = (
(72,0,l),
(76,0,l),
(180,740,l),
(176,740,l)
);
},
{
closed = 1;
nodes = (
(417,0,l),
(422,0,l),
(247,311,l),
(243,309,l)
);
}
);
width = 466;
},
{
anchors = (
{
name = bottom;
pos = (234,0);
},
{
name = top;
pos = (296,540);
}
);
layerId = "287B816B-C6D9-4D62-948A-F2FEA8E41A5A";
shapes = (
{
closed = 1;
nodes = (
(93,104,l),
(512,540,l),
(438,540,l),
(89,175,l)
);
},
{
closed = 1;
nodes = (
(52,0,l),
(112,0,l),
(216,740,l),
(156,740,l)
);
},
{
closed = 1;
nodes = (
(374,0,l),
(441,0,l),
(280,326,l),
(231,290,l)
);
}
);
width = 484;
}
);
metricLeft = l;
unicode = 107;
},
{
glyphname = kgreenlandic;
kernLeft = public.kern2.h;
kernRight = public.kern1.k;
layers = (
{
anchors = (
{
name = bottom;
pos = (322,0);
},
{
name = top;
pos = (400,540);
}
);
layerId = "3C3B4AE3-80BB-44A4-A3CD-A752C08638B1";
shapes = (
{
closed = 1;
nodes = (
(300,53,l),
(758,540,l),
(438,540,l),
(108,189,l)
);
},
{
closed = 1;
nodes = (
(2,0,l),
(302,0,l),
(378,540,l),
(78,540,l)
);
},
{
closed = 1;
nodes = (
(393,0,l),
(670,0,l),
(534,394,l),
(319,212,l)
);
}
);
width = 722;
},
{
anchors = (
{
name = bottom;
pos = (279,0);
},
{
name = top;
pos = (348,540);
}
);
layerId = "463395A0-2DFC-45D4-87AF-EBCF54FF53ED";
shapes = (
{
closed = 1;
nodes = (
(232,72,l),
(657,540,l),
(404,540,l),
(74,168,l)
);
},
{
closed = 1;
nodes = (
(12,0,l),
(232,0,l),
(308,540,l),
(88,540,l)
);
},
{
closed = 1;
nodes = (
(345,0,l),
(569,0,l),
(439,351,l),
(259,230,l)
);
}
);
width = 622;
},
{
anchors = (
{
name = bottom;
pos = (352,0);
},
{
name = top;
pos = (434,540);
}
);
layerId = "B66266A1-0CD1-42BF-9957-E58294B85305";
shapes = (
{
closed = 1;
nodes = (
(304,47,l),
(808,540,l),
(448,540,l),
(57,162,l)
);
},
{
closed = 1;
nodes = (
(2,0,l),
(302,0,l),
(378,540,l),
(78,540,l)
);
},
{
closed = 1;
nodes = (
(422,0,l),
(734,0,l),
(578,341,l),
(333,178,l)
);
}
);
width = 774;
},
{
anchors = (
{
name = bottom;
pos = (323,0);
},
{
name = top;
pos = (399,540);
}
);
layerId = "3B401755-81E4-40F3-BD5E-9424281583CA";
shapes = (
{
closed = 1;
nodes = (
(257,56,l),
(735,540,l),
(460,540,l),
(88,163,l)
);
},
{
closed = 1;
nodes = (
(14,0,l),
(264,0,l),
(340,540,l),
(90,540,l)
);
},
{
closed = 1;
nodes = (
(412,0,l),
(660,0,l),
(498,332,l),
(305,220,l)
);
}
);
width = 701;
},
{
anchors = (
{
name = bottom;
pos = (75,0);
},
{
name = top;
pos = (144,540);
}
);
layerId = "3D671699-C126-4AA5-A66F-47C26817AED2";
shapes = (
{
closed = 1;
nodes = (
(37,152,l),
(221,540,l),
(217,540,l),
(34,153,l)
);
},
{
closed = 1;
nodes = (
(12,0,l),
(16,0,l),
(92,540,l),
(88,540,l)
);
},
{
closed = 1;
nodes = (
(143,0,l),
(147,0,l),
(106,301,l),
(103,298,l)
);
}
);
width = 188;
},
{
anchors = (
{
name = bottom;
pos = (178,0);
},
{
name = top;
pos = (244,540);
}
);
layerId = "46E74328-601B-43A9-9281-7B741E5F83E4";
shapes = (
{
closed = 1;
nodes = (
(85,96,l),
(410,540,l),
(344,540,l),
(85,185,l)
);
},
{
closed = 1;
nodes = (
(37,0,l),
(97,0,l),
(173,540,l),
(113,540,l)
);
},
{
closed = 1;
nodes = (
(273,0,l),
(335,0,l),
(234,335,l),
(189,282,l)
);
}
);
width = 377;
},
{
anchors = (
{
name = bottom;
pos = (232,0);
},
{
name = top;
pos = (288,540);
}
);
guides = (
{
angle = 227.661;
pos = (614,540);
},
{
angle = 126.838;
pos = (491,0);
}
);
layerId = "ECB9DAFA-B085-4474-A032-AB3BEA4F5B4C";
shapes = (
{
closed = 1;
nodes = (
(100,173,l),
(492,540,l),
(487,540,l),
(99,176,l)
);
},
{
closed = 1;
nodes = (
(72,0,l),
(76,0,l),
(152,540,l),
(148,540,l)
);
},
{
closed = 1;
nodes = (
(417,0,l),
(422,0,l),
(247,311,l),
(243,309,l)
);
}
);
width = 466;
},
{
anchors = (
{
name = bottom;
pos = (234,0);
},
{
name = top;
pos = (296,540);
}
);
layerId = "287B816B-C6D9-4D62-948A-F2FEA8E41A5A";
shapes = (
{
closed = 1;
nodes = (
(93,104,l),
(512,540,l),
(438,540,l),
(89,175,l)
);
},
{
closed = 1;
nodes = (
(52,0,l),
(112,0,l),
(188,540,l),
(128,540,l)
);
},
{
closed = 1;
nodes = (
(374,0,l),
(441,0,l),
(280,326,l),
(231,290,l)
);
}
);
width = 484;
}
);
metricLeft = l;
unicode = 312;
},
{
glyphname = l;
kernLeft = public.kern2.h;
kernRight = public.kern1.l;
layers = (
{
anchors = (
{
name = "#entry";
pos = (100,700);
},
{
name = bottom;
pos = (152,0);
},
{
name = center;
pos = (204,370);
},
{
name = top;
pos = (250,700);
},
{
name = topright;
pos = (418,540);
}
);
layerId = "3C3B4AE3-80BB-44A4-A3CD-A752C08638B1";
shapes = (
{
closed = 1;
nodes = (
(106,740,l),
(2,0,l),
(302,0,l),
(406,740,l)
);
}
);
width = 380;
},
{
anchors = (
{
name = "#entry";
pos = (110,700);
},
{
name = bottom;
pos = (122,0);
},
{
name = center;
pos = (174,370);
},
{
name = top;
pos = (220,700);
},
{
name = topright;
pos = (358,540);
}
);
layerId = "463395A0-2DFC-45D4-87AF-EBCF54FF53ED";
shapes = (
{
closed = 1;
nodes = (
(116,740,l),
(12,0,l),
(232,0,l),
(336,740,l)
);
}
);
width = 320;
},
{
anchors = (
{
name = "#entry";
pos = (100,700);
},
{
name = bottom;
pos = (152,0);
},
{
name = center;
pos = (204,370);
},
{
name = top;
pos = (250,700);
},
{
name = topright;
pos = (418,540);
}
);
layerId = "B66266A1-0CD1-42BF-9957-E58294B85305";
shapes = (
{
closed = 1;
nodes = (
(106,740,l),
(2,0,l),
(302,0,l),
(406,740,l)
);
}
);
width = 380;
},
{
anchors = (
{
name = "#entry";
pos = (112,700);
},
{
name = bottom;
pos = (139,0);
},
{
name = center;
pos = (191,370);
},
{
name = top;
pos = (237,700);
},
{
name = topright;
pos = (392,540);
}
);
layerId = "3B401755-81E4-40F3-BD5E-9424281583CA";
shapes = (
{
closed = 1;
nodes = (
(118,740,l),
(14,0,l),
(264,0,l),
(368,740,l)
);
}
);
width = 354;
},
{
anchors = (
{
name = "#entry";
pos = (110,700);
},
{
name = bottom;
pos = (14,0);
},
{
name = center;
pos = (66,370);
},
{
name = top;
pos = (112,700);
},
{
name = topright;
pos = (142,540);
}
);
layerId = "3D671699-C126-4AA5-A66F-47C26817AED2";
shapes = (
{
closed = 1;
nodes = (
(116,740,l),
(12,0,l),
(16,0,l),
(120,740,l)
);
}
);
width = 104;
},
{
anchors = (
{
name = "#entry";
pos = (135,700);
},
{
name = bottom;
pos = (67,0);
},
{
name = center;
pos = (119,370);
},
{
name = top;
pos = (165,700);
},
{
name = topright;
pos = (248,540);
}
);
layerId = "46E74328-601B-43A9-9281-7B741E5F83E4";
shapes = (
{
closed = 1;
nodes = (
(141,740,l),
(37,0,l),
(97,0,l),
(201,740,l)
);
}
);
width = 210;
},
{
anchors = (
{
name = "#entry";
pos = (170,700);
},
{
name = bottom;
pos = (74,0);
},
{
name = center;
pos = (126,370);
},
{
name = top;
pos = (172,700);
},
{
name = topright;
pos = (262,540);
}
);
layerId = "ECB9DAFA-B085-4474-A032-AB3BEA4F5B4C";
shapes = (
{
closed = 1;
nodes = (
(176,740,l),
(72,0,l),
(76,0,l),
(180,740,l)
);
}
);
width = 224;
},
{
anchors = (
{
name = "#entry";
pos = (150,700);
},
{
name = bottom;
pos = (82,0);
},
{
name = center;
pos = (134,370);
},
{
name = top;
pos = (180,700);
},
{
name = topright;
pos = (278,540);
}
);
layerId = "287B816B-C6D9-4D62-948A-F2FEA8E41A5A";
shapes = (
{
closed = 1;
nodes = (
(156,740,l),
(52,0,l),
(112,0,l),
(216,740,l)
);
}
);
width = 240;
}
);
metricRight = "=|";
unicode = 108;
},
